<svg width="171" height="125" viewBox="0 0 171 125" fill="none" xmlns="http://www.w3.org/2000/svg">
<path d="M14.2054 60.3218C14.0325 60.322 13.8666 60.386 13.7443 60.4999C13.622 60.6138 13.5532 60.7682 13.553 60.9293V123.744C13.5532 123.905 13.622 124.06 13.7443 124.174C13.8666 124.288 14.0324 124.352 14.2054 124.352H98.7949C98.9678 124.352 99.1337 124.288 99.256 124.174C99.3783 124.06 99.4471 123.905 99.4472 123.744V71.0124C99.4471 70.8514 99.3783 70.6969 99.256 70.583C99.1337 70.4691 98.9678 70.405 98.7949 70.4048H50.2461C49.7532 70.4052 49.278 70.2343 48.9135 69.9254L37.999 60.6921C37.7175 60.4536 37.3504 60.3215 36.9697 60.3218H14.2054Z" fill="#3F3D56"/>
<path d="M53.2717 52.2041C53.166 52.1465 53.04 52.1302 52.9215 52.1589C52.8029 52.1875 52.7014 52.2588 52.6392 52.3571L27.5889 92.046C27.5269 92.1444 27.5095 92.2616 27.5402 92.372C27.571 92.4824 27.6476 92.577 27.7532 92.6349L62.0943 111.424C62.2 111.482 62.326 111.498 62.4445 111.47C62.5631 111.441 62.6646 111.37 62.7268 111.271L87.7771 71.5824C87.8391 71.484 87.8565 71.3667 87.8257 71.2563C87.795 71.1459 87.7184 71.0514 87.6128 70.9935L53.2717 52.2041Z" fill="#E6E6E6"/>
<path d="M53.7975 54.0889C53.6918 54.0312 53.5658 54.0149 53.4473 54.0436C53.3287 54.0723 53.2272 54.1436 53.165 54.2419L29.6131 91.5568C29.5511 91.6552 29.5336 91.7725 29.5644 91.8829C29.5952 91.9933 29.6718 92.0878 29.7773 92.1457L61.5688 109.54C61.6745 109.598 61.8005 109.614 61.919 109.585C62.0376 109.557 62.1391 109.485 62.2013 109.387L85.7533 72.0722C85.8152 71.9737 85.8327 71.8565 85.8019 71.7461C85.7711 71.6357 85.6945 71.5412 85.589 71.4833L53.7975 54.0889Z" fill="white"/>
<path d="M47.7906 72.5221L71.216 85.339C71.2944 85.3819 71.3813 85.41 71.4714 85.4217C71.5616 85.4334 71.6533 85.4285 71.7414 85.4072C71.8295 85.3859 71.9122 85.3486 71.9849 85.2976C72.0575 85.2465 72.1186 85.1826 72.1647 85.1095C72.2109 85.0365 72.2411 84.9557 72.2536 84.8717C72.2662 84.7878 72.2609 84.7024 72.238 84.6203C72.2151 84.5383 72.1751 84.4613 72.1203 84.3937C72.0654 84.326 71.9968 84.2691 71.9183 84.2262L48.493 71.4093C48.4145 71.3662 48.3277 71.3379 48.2374 71.3261C48.1472 71.3143 48.0554 71.3192 47.9672 71.3404C47.879 71.3617 47.7961 71.3989 47.7234 71.45C47.6507 71.5011 47.5895 71.5651 47.5433 71.6382C47.4971 71.7113 47.4669 71.7922 47.4544 71.8763C47.4418 71.9603 47.4472 72.0458 47.4701 72.1279C47.4931 72.21 47.5333 72.287 47.5882 72.3547C47.6432 72.4223 47.712 72.4792 47.7906 72.5221V72.5221Z" fill="#E6E6E6"/>
<path d="M54.1331 62.0448L69.6741 70.5479C69.8931 70.6677 70.2278 70.5157 70.4218 70.2085C70.6157 69.9012 70.5954 69.555 70.3765 69.4352L54.8354 60.9321C54.6164 60.8123 54.2817 60.9643 54.0878 61.2715C53.8938 61.5788 53.9141 61.925 54.1331 62.0448Z" fill="#E6E6E6"/>
<path d="M52.1196 65.2348L67.6607 73.7379C67.8797 73.8577 68.2144 73.7057 68.4084 73.3984C68.6023 73.0911 68.582 72.7449 68.3631 72.6251L52.822 64.122C52.603 64.0022 52.2683 64.1542 52.0743 64.4615C51.8804 64.7688 51.9006 65.115 52.1196 65.2348Z" fill="#E6E6E6"/>
<path d="M45.5199 76.1199L68.9452 88.9368C69.1037 89.0233 69.2926 89.0477 69.4704 89.0046C69.6482 88.9616 69.8003 88.8545 69.8934 88.7071C69.9865 88.5596 70.0129 88.3837 69.9668 88.2181C69.9207 88.0526 69.8059 87.9108 69.6475 87.824L46.2222 75.0071C46.0638 74.9206 45.8749 74.8962 45.6971 74.9393C45.5193 74.9823 45.3671 75.0894 45.274 75.2368C45.1809 75.3843 45.1545 75.5602 45.2006 75.7258C45.2468 75.8913 45.3616 76.0331 45.5199 76.1199Z" fill="#E6E6E6"/>
<path d="M43.2489 79.7178L66.6743 92.5347C66.8327 92.6213 67.0216 92.6457 67.1994 92.6026C67.3772 92.5595 67.5294 92.4525 67.6225 92.305C67.7156 92.1575 67.742 91.9817 67.6959 91.8161C67.6497 91.6505 67.5349 91.5088 67.3766 91.422L43.9513 78.6051C43.8728 78.5621 43.786 78.534 43.6959 78.5223C43.6057 78.5106 43.514 78.5155 43.4259 78.5368C43.3378 78.5581 43.255 78.5954 43.1824 78.6465C43.1098 78.6975 43.0486 78.7614 43.0025 78.8345C42.9564 78.9076 42.9262 78.9884 42.9136 79.0723C42.9011 79.1562 42.9064 79.2417 42.9292 79.3237C42.9521 79.4057 42.9921 79.4827 43.047 79.5504C43.1018 79.618 43.1705 79.6749 43.2489 79.7178V79.7178Z" fill="#E6E6E6"/>
<path d="M40.9779 83.316L64.4033 96.1329C64.5617 96.2193 64.7506 96.2436 64.9283 96.2005C65.106 96.1574 65.258 96.0504 65.3511 95.9029C65.4441 95.7555 65.4705 95.5798 65.4245 95.4142C65.3785 95.2487 65.2638 95.107 65.1056 95.0201L41.6803 82.2032C41.6018 82.1603 41.515 82.1322 41.4249 82.1204C41.3347 82.1087 41.243 82.1137 41.1549 82.135C41.0668 82.1563 40.984 82.1935 40.9114 82.2446C40.8388 82.2957 40.7776 82.3596 40.7315 82.4326C40.6854 82.5057 40.6552 82.5865 40.6426 82.6705C40.6301 82.7544 40.6354 82.8398 40.6582 82.9218C40.6811 83.0039 40.7211 83.0809 40.776 83.1485C40.8308 83.2161 40.8995 83.2731 40.9779 83.316V83.316Z" fill="#E6E6E6"/>
<path d="M38.707 86.9137L62.1323 99.7305C62.2107 99.7735 62.2975 99.8016 62.3877 99.8133C62.4778 99.825 62.5696 99.8201 62.6577 99.7988C62.7458 99.7775 62.8285 99.7402 62.9012 99.6891C62.9738 99.6381 63.0349 99.5742 63.081 99.5011C63.1271 99.428 63.1573 99.3472 63.1699 99.2633C63.1825 99.1794 63.1772 99.094 63.1543 99.0119C63.1314 98.9299 63.0914 98.8529 63.0366 98.7852C62.9817 98.7176 62.9131 98.6607 62.8346 98.6178L39.4093 85.8009C39.2508 85.7142 39.0618 85.6896 38.8839 85.7326C38.706 85.7757 38.5537 85.8827 38.4605 86.0303C38.3674 86.1779 38.341 86.3538 38.3873 86.5195C38.4335 86.6851 38.5485 86.8269 38.707 86.9137Z" fill="#E6E6E6"/>
<path d="M36.4362 90.5118L59.8615 103.329C60.02 103.415 60.209 103.44 60.3869 103.397C60.5648 103.354 60.7171 103.247 60.8103 103.099C60.9034 102.952 60.9298 102.776 60.8836 102.61C60.8373 102.444 60.7223 102.303 60.5639 102.216L37.1385 89.399C37.0601 89.3561 36.9733 89.328 36.8831 89.3162C36.793 89.3045 36.7012 89.3095 36.6131 89.3308C36.525 89.3521 36.4423 89.3893 36.3697 89.4404C36.297 89.4915 36.2359 89.5554 36.1898 89.6284C36.1437 89.7015 36.1135 89.7823 36.1009 89.8662C36.0883 89.9502 36.0936 90.0356 36.1165 90.1176C36.1394 90.1997 36.1794 90.2767 36.2342 90.3443C36.2891 90.4119 36.3577 90.4688 36.4362 90.5118Z" fill="#E6E6E6"/>
<path d="M74.5309 78.0511C76.547 78.0511 78.1813 76.5294 78.1813 74.6522C78.1813 72.7751 76.547 71.2534 74.5309 71.2534C72.5148 71.2534 70.8804 72.7751 70.8804 74.6522C70.8804 76.5294 72.5148 78.0511 74.5309 78.0511Z" fill="#E6E6E6"/>
<path d="M24.1269 63.6343C24.007 63.6107 23.882 63.6324 23.7793 63.6945C23.6765 63.7566 23.6044 63.8541 23.5788 63.9656L13.2927 108.993C13.2674 109.105 13.2906 109.221 13.3573 109.317C13.424 109.412 13.5288 109.479 13.6486 109.503L52.6089 117.219C52.7288 117.242 52.8538 117.221 52.9565 117.158C53.0593 117.096 53.1314 116.999 53.157 116.887L63.4431 71.8599C63.4684 71.7483 63.4452 71.6319 63.3785 71.5362C63.3118 71.4405 63.207 71.3734 63.0872 71.3495L24.1269 63.6343Z" fill="#E6E6E6"/>
<path d="M25.2655 65.2671C25.1457 65.2435 25.0207 65.2652 24.9179 65.3273C24.8152 65.3894 24.7431 65.4869 24.7174 65.5984L15.0466 107.933C15.0213 108.044 15.0445 108.161 15.1112 108.256C15.1779 108.352 15.2827 108.419 15.4025 108.443L51.4702 115.585C51.5901 115.609 51.7151 115.587 51.8178 115.525C51.9206 115.463 51.9927 115.366 52.0183 115.254L61.6891 72.9199C61.7145 72.8083 61.6912 72.6919 61.6245 72.5962C61.5578 72.5005 61.4531 72.4334 61.3333 72.4096L25.2655 65.2671Z" fill="white"/>
<path d="M52.4035 89.7857L25.8272 84.5229C25.7381 84.5054 25.6535 84.4717 25.5783 84.4237C25.5032 84.3758 25.4389 84.3145 25.3892 84.2433C25.3395 84.1722 25.3054 84.0927 25.2887 84.0092C25.2721 83.9258 25.2733 83.8402 25.2923 83.7572C25.3112 83.6742 25.3476 83.5955 25.3992 83.5256C25.4509 83.4557 25.5168 83.396 25.5933 83.3498C25.6698 83.3037 25.7553 83.2721 25.8449 83.2567C25.9345 83.2414 26.0265 83.2427 26.1156 83.2604L52.6919 88.5233C52.781 88.5408 52.8656 88.5745 52.9408 88.6224C53.0159 88.6704 53.0802 88.7317 53.1299 88.8028C53.1796 88.874 53.2137 88.9535 53.2304 89.0369C53.247 89.1203 53.2458 89.206 53.2268 89.289C53.2079 89.372 53.1715 89.4507 53.1199 89.5206C53.0682 89.5905 53.0023 89.6502 52.9258 89.6963C52.8493 89.7425 52.7638 89.7741 52.6742 89.7894C52.5846 89.8048 52.4926 89.8035 52.4035 89.7857Z" fill="#E6E6E6"/>
<path d="M55.3186 78.0694L37.6871 74.5779C37.4387 74.5287 37.3019 74.2062 37.3816 73.8576C37.4612 73.509 37.7271 73.2662 37.9755 73.3154L55.607 76.8069C55.8555 76.8561 55.9922 77.1786 55.9126 77.5272C55.833 77.8759 55.5671 78.1186 55.3186 78.0694Z" fill="#E6E6E6"/>
<path d="M54.492 81.6885L36.8605 78.197C36.6121 78.1478 36.4753 77.8253 36.5549 77.4767C36.6345 77.1281 36.9005 76.8854 37.1489 76.9346L54.7804 80.4261C55.0288 80.4753 55.1656 80.7978 55.0859 81.1464C55.0063 81.495 54.7404 81.7377 54.492 81.6885Z" fill="#E6E6E6"/>
<path d="M51.4709 93.8678L24.8947 88.6049C24.7151 88.5691 24.5582 88.4684 24.4584 88.3249C24.3585 88.1814 24.3239 88.0069 24.3621 87.8397C24.4003 87.6725 24.5082 87.5262 24.6621 87.433C24.816 87.3398 25.0034 87.3072 25.183 87.3425L51.7593 92.6053C51.8483 92.6229 51.9328 92.6567 52.0078 92.7047C52.0828 92.7528 52.1469 92.814 52.1965 92.8851C52.246 92.9562 52.2801 93.0357 52.2966 93.119C52.3132 93.2024 52.312 93.2879 52.2931 93.3708C52.2741 93.4537 52.2378 93.5323 52.1863 93.6022C52.1347 93.672 52.0689 93.7317 51.9925 93.7778C51.9162 93.824 51.8308 93.8557 51.7413 93.8711C51.6518 93.8865 51.5599 93.8854 51.4709 93.8678Z" fill="#E6E6E6"/>
<path d="M50.5385 97.9498L23.9623 92.687C23.7827 92.6511 23.6258 92.5504 23.526 92.4069C23.4261 92.2635 23.3915 92.089 23.4297 91.9217C23.4679 91.7545 23.5758 91.6082 23.7297 91.515C23.8837 91.4218 24.071 91.3893 24.2507 91.4245L50.8269 96.6873C50.9159 96.705 51.0004 96.7388 51.0754 96.7868C51.1504 96.8348 51.2145 96.8961 51.2641 96.9672C51.3136 97.0382 51.3477 97.1177 51.3642 97.201C51.3808 97.2844 51.3796 97.3699 51.3607 97.4528C51.3417 97.5357 51.3054 97.6143 51.2539 97.6842C51.2023 97.754 51.1365 97.8137 51.0601 97.8598C50.9838 97.906 50.8984 97.9377 50.8089 97.9531C50.7194 97.9686 50.6275 97.9674 50.5385 97.9498Z" fill="#E6E6E6"/>
<path d="M49.6061 102.032L23.0299 96.769C22.9407 96.7515 22.8561 96.7178 22.781 96.6698C22.7058 96.6218 22.6415 96.5606 22.5918 96.4894C22.5422 96.4183 22.508 96.3388 22.4914 96.2553C22.4747 96.1719 22.4759 96.0863 22.4949 96.0033C22.5139 95.9203 22.5502 95.8416 22.6019 95.7717C22.6535 95.7018 22.7195 95.6421 22.796 95.5959C22.8724 95.5498 22.9579 95.5182 23.0476 95.5028C23.1372 95.4875 23.2292 95.4888 23.3183 95.5066L49.8945 100.769C50.074 100.805 50.2309 100.906 50.3308 101.049C50.4306 101.193 50.4653 101.367 50.4271 101.535C50.3889 101.702 50.281 101.848 50.127 101.941C49.9731 102.035 49.7858 102.067 49.6061 102.032Z" fill="#E6E6E6"/>
<path d="M48.6737 106.114L22.0975 100.851C22.0083 100.834 21.9238 100.8 21.8486 100.752C21.7734 100.704 21.7092 100.643 21.6595 100.571C21.6098 100.5 21.5756 100.421 21.559 100.337C21.5424 100.254 21.5436 100.168 21.5625 100.085C21.5815 100.002 21.6178 99.9236 21.6695 99.8537C21.7212 99.7838 21.7871 99.7241 21.8636 99.678C21.9401 99.6318 22.0256 99.6002 22.1152 99.5849C22.2048 99.5695 22.2968 99.5708 22.3859 99.5886L48.9621 104.851C49.0513 104.869 49.1359 104.903 49.211 104.951C49.2862 104.999 49.3505 105.06 49.4002 105.131C49.4499 105.202 49.484 105.282 49.5006 105.365C49.5173 105.448 49.5161 105.534 49.4971 105.617C49.4782 105.7 49.4418 105.779 49.3902 105.849C49.3385 105.919 49.2725 105.978 49.1961 106.024C49.1196 106.071 49.0341 106.102 48.9445 106.118C48.8548 106.133 48.7628 106.132 48.6737 106.114Z" fill="#E6E6E6"/>
<path d="M47.7411 110.195L21.1649 104.933C20.9854 104.897 20.8285 104.796 20.7286 104.653C20.6288 104.509 20.5942 104.335 20.6324 104.167C20.6706 104 20.7785 103.854 20.9324 103.761C21.0863 103.667 21.2736 103.635 21.4533 103.67L48.0295 108.933C48.1187 108.95 48.2033 108.984 48.2784 109.032C48.3536 109.08 48.4179 109.141 48.4676 109.213C48.5173 109.284 48.5514 109.363 48.568 109.447C48.5847 109.53 48.5835 109.616 48.5645 109.699C48.5455 109.782 48.5092 109.86 48.4575 109.93C48.4059 110 48.3399 110.06 48.2635 110.106C48.187 110.152 48.1015 110.184 48.0119 110.199C47.9222 110.214 47.8302 110.213 47.7411 110.195Z" fill="#E6E6E6"/>
<path d="M31.128 77.9534C33.1441 77.9534 34.7785 76.4317 34.7785 74.5546C34.7785 72.6775 33.1441 71.1558 31.128 71.1558C29.1119 71.1558 27.4775 72.6775 27.4775 74.5546C27.4775 76.4317 29.1119 77.9534 31.128 77.9534Z" fill="#E6E6E6"/>
<path d="M107.35 66.0434C107.671 66.3011 108.05 66.4886 108.458 66.5924C108.867 66.6961 109.295 66.7133 109.712 66.6429C110.129 66.5724 110.524 66.416 110.867 66.1851C111.211 65.9541 111.494 65.6546 111.697 65.3084L114.692 60.2005L112.427 58.4526L107.49 61.9349C107.153 62.1728 106.877 62.478 106.683 62.828C106.488 63.1781 106.381 63.5641 106.367 63.958C106.354 64.3518 106.435 64.7435 106.605 65.1043C106.775 65.4651 107.03 65.786 107.35 66.0434Z" fill="#FFB9B9"/>
<path d="M110.856 58.9212L114.353 61.5469L133.417 47.7886L132.289 23.8428C131.217 24.6414 130.325 25.6299 129.666 26.7513C129.007 27.8727 128.593 29.1046 128.448 30.3759L125.182 43.9026L110.856 58.9212Z" fill="#FF8811"/>
<path d="M147.63 114.584H152.368L152.819 75.9351H143.344L147.63 114.584Z" fill="#FFB9B9"/>
<path d="M135.899 116.685H140.636L141.087 75.5148L131.612 75.0947L135.899 116.685Z" fill="#FFB9B9"/>
<path d="M129.807 79.2962L141.539 79.7163L141.99 77.4057L142.667 80.5565L153.496 80.1364C153.494 69.9204 153.26 58.632 154.624 54.7202L129.582 57.0308C127.609 64.9459 127.366 72.4444 129.807 79.2962Z" fill="#2F2E41"/>
<path d="M150.358 124.667C152.891 124.667 154.876 125.582 154.646 123.234L153.99 115.295C153.977 114.958 153.86 114.633 153.652 114.357C153.444 114.082 153.155 113.869 152.819 113.744C151.014 111.774 149.209 111.564 147.404 113.114C146.818 113.797 146.475 114.634 146.426 115.507L146.059 123.392C145.932 125.684 147.893 124.667 150.358 124.667Z" fill="#2F2E41"/>
<path d="M127.232 124.778L139.272 124.482C139.771 124.417 140.226 124.183 140.551 123.825C140.876 123.467 141.047 123.01 141.032 122.542L141.259 117.063C141.273 116.794 141.174 116.529 140.982 116.326C140.79 116.123 140.521 115.998 140.232 115.978L138.38 115.845C138.16 113.969 136.934 113.514 135.222 113.744L129.807 119.416L126.239 120.346C125.667 120.495 125.173 120.834 124.85 121.298C124.528 121.762 124.398 122.32 124.486 122.868C124.581 123.458 124.923 123.99 125.437 124.348C125.951 124.706 126.596 124.861 127.232 124.778Z" fill="#2F2E41"/>
<path d="M141.087 15.8605C144.95 15.8605 148.081 12.9452 148.081 9.34897C148.081 5.75273 144.95 2.8374 141.087 2.8374C137.225 2.8374 134.094 5.75273 134.094 9.34897C134.094 12.9452 137.225 15.8605 141.087 15.8605Z" fill="#FFB9B9"/>
<path d="M137.478 20.9019L149.435 17.7512C146.761 16.7827 145.728 15.0932 146.276 12.71H138.38C139.395 16.3002 139.399 19.23 137.478 20.9019Z" fill="#FFB9B9"/>
<path d="M128.905 59.7614C135.653 60.5643 141.87 58.1317 147.743 56.2956C150.394 55.4667 153.065 56.332 155.526 54.9302C154.462 45.1698 155.495 34.1755 157.756 22.4593C157.885 21.796 157.75 21.1117 157.377 20.534C157.004 19.9563 156.418 19.5248 155.729 19.3198L148.307 17.1211L141.764 19.2216L138.38 19.8518L131.412 24.2355C131.005 24.4912 130.686 24.8509 130.494 25.2713C130.302 25.6916 130.244 26.1547 130.327 26.605C132.421 37.6237 131.935 48.9333 128.905 59.7614Z" fill="#FF8811"/>
<path d="M147.855 56.4006L150.112 61.8619L152.368 58.7111L149.435 55.9805L147.855 56.4006Z" fill="#FFB9B9"/>
<path d="M134.376 7.02717C137.096 5.40226 139.807 4.86704 142.512 5.32422C143.335 5.46717 144.117 5.76599 144.811 6.20215C145.505 6.6383 146.095 7.20249 146.544 7.85972C146.994 8.51695 147.294 9.25319 147.425 10.0228C147.557 10.7924 147.517 11.579 147.309 12.3337C147.303 12.354 147.297 12.3743 147.292 12.3947L147.696 11.6873C148.768 9.81143 149.134 7.65506 148.735 5.56281C148.429 3.95615 147.507 2.50748 146.14 1.48558C144.774 0.463677 143.056 -0.0620817 141.305 0.00584773L139.783 0.06487C138.032 0.132789 136.366 0.785243 135.09 1.90289C133.813 3.02055 133.012 4.52869 132.831 6.15151C132.812 6.32676 132.847 6.50346 132.931 6.66118C133.015 6.81889 133.146 6.9512 133.307 7.04278C133.469 7.13437 133.655 7.18151 133.844 7.17875C134.033 7.17598 134.218 7.12343 134.376 7.02717Z" fill="#2F2E41"/>
<path d="M148.983 55.9806L152.142 59.7615L163.196 44.4278L162.24 28.8497C162.119 26.8656 161.46 24.9424 160.325 23.259C159.191 21.5757 157.617 20.1868 155.752 19.2217L155.977 43.1675L148.983 55.9806Z" fill="#FF8811"/>
<path d="M77.6741 42.4202C77.5706 42.3592 77.4453 42.339 77.3257 42.3639C77.2062 42.3888 77.1022 42.4569 77.0364 42.5532L50.5585 81.4303C50.493 81.5267 50.4712 81.6434 50.498 81.7547C50.5248 81.866 50.5979 81.9629 50.7012 82.0241L84.3401 101.884C84.4436 101.945 84.5689 101.965 84.6885 101.941C84.808 101.916 84.912 101.848 84.9778 101.751L111.456 62.8742C111.521 62.7778 111.543 62.6611 111.516 62.5498C111.489 62.4385 111.416 62.3416 111.313 62.2804L77.6741 42.4202Z" fill="#FF8811"/>
<path d="M78.1312 44.3196C78.0276 44.2587 77.9023 44.2384 77.7828 44.2633C77.6632 44.2883 77.5592 44.3563 77.4935 44.4526L52.5992 81.0044C52.5337 81.1008 52.512 81.2174 52.5388 81.3287C52.5655 81.44 52.6386 81.5369 52.742 81.5981L83.8833 99.9838C83.9869 100.045 84.1122 100.065 84.2317 100.04C84.3513 100.015 84.4553 99.9471 84.521 99.8509L109.415 63.2991C109.481 63.2027 109.502 63.086 109.476 62.9747C109.449 62.8634 109.376 62.7665 109.272 62.7053L78.1312 44.3196Z" fill="white"/>
<path d="M94.4044 76.1005L71.4582 62.5531C71.3813 62.5078 71.3148 62.4487 71.2624 62.3794C71.2101 62.3101 71.1729 62.2318 71.153 62.1491C71.1331 62.0664 71.1309 61.9809 71.1465 61.8974C71.1621 61.8139 71.1953 61.7341 71.244 61.6625C71.2927 61.591 71.3562 61.529 71.4306 61.4803C71.5051 61.4315 71.5891 61.3969 71.6779 61.3784C71.7667 61.3599 71.8586 61.3578 71.9483 61.3724C72.038 61.3869 72.1237 61.4177 72.2005 61.4631L95.1468 75.0105C95.2237 75.0559 95.2902 75.1149 95.3425 75.1842C95.3949 75.2535 95.4321 75.3318 95.452 75.4145C95.4719 75.4972 95.4741 75.5827 95.4585 75.6662C95.4428 75.7497 95.4097 75.8295 95.361 75.9011C95.3122 75.9727 95.2488 76.0346 95.1744 76.0833C95.0999 76.1321 95.0159 76.1667 94.927 76.1852C94.8382 76.2038 94.7463 76.2058 94.6567 76.1913C94.567 76.1767 94.4813 76.1459 94.4044 76.1005Z" fill="#FF8811"/>
<path d="M101.518 66.0616L86.2944 57.0739C86.08 56.9473 86.0723 56.6006 86.2773 56.2996C86.4823 55.9987 86.8223 55.8573 87.0368 55.9839L102.26 64.9716C102.475 65.0983 102.482 65.4449 102.277 65.7459C102.072 66.0469 101.732 66.1883 101.518 66.0616Z" fill="#FF8811"/>
<path d="M99.3897 69.1862L84.1665 60.1984C83.952 60.0718 83.9443 59.7252 84.1493 59.4242C84.3543 59.1232 84.6944 58.9818 84.9089 59.1084L100.132 68.0962C100.347 68.2228 100.354 68.5695 100.149 68.8705C99.9443 69.1715 99.6042 69.3128 99.3897 69.1862Z" fill="#FF8811"/>
<path d="M92.004 79.6249L69.0577 66.0776C68.9028 65.9858 68.7932 65.8405 68.7532 65.6736C68.7132 65.5067 68.746 65.3319 68.8443 65.1874C68.9427 65.043 69.0986 64.9409 69.2778 64.9034C69.457 64.8659 69.6449 64.8962 69.8001 64.9876L92.7463 78.5349C92.8232 78.5803 92.8897 78.6394 92.9421 78.7087C92.9945 78.778 93.0316 78.8562 93.0515 78.9389C93.0714 79.0216 93.0736 79.1072 93.058 79.1907C93.0424 79.2741 93.0093 79.354 92.9605 79.4255C92.9118 79.4971 92.8484 79.559 92.7739 79.6078C92.6995 79.6566 92.6154 79.6912 92.5266 79.7097C92.4378 79.7282 92.3459 79.7302 92.2562 79.7157C92.1666 79.7012 92.0808 79.6703 92.004 79.6249H92.004Z" fill="#FF8811"/>
<path d="M89.6036 83.1494L66.6574 69.602C66.5024 69.5102 66.3928 69.3649 66.3528 69.198C66.3128 69.0311 66.3456 68.8563 66.4439 68.7119C66.5423 68.5674 66.6982 68.4653 66.8774 68.4278C67.0566 68.3903 67.2445 68.4206 67.3997 68.512L90.3459 82.0594C90.4229 82.1047 90.4896 82.1637 90.5421 82.233C90.5946 82.3024 90.6319 82.3806 90.6518 82.4634C90.6718 82.5462 90.674 82.6318 90.6584 82.7153C90.6428 82.7989 90.6097 82.8788 90.5609 82.9504C90.5121 83.0221 90.4487 83.084 90.3741 83.1328C90.2996 83.1816 90.2155 83.2162 90.1265 83.2347C90.0376 83.2531 89.9457 83.2551 89.8559 83.2405C89.7662 83.2259 89.6804 83.1949 89.6036 83.1494Z" fill="#FF8811"/>
<path d="M87.2033 86.6737L64.257 73.1264C64.18 73.081 64.1134 73.022 64.0609 72.9527C64.0084 72.8834 63.9711 72.8051 63.9512 72.7223C63.9312 72.6396 63.929 72.5539 63.9446 72.4704C63.9602 72.3868 63.9933 72.3069 64.0421 72.2353C64.0909 72.1637 64.1544 72.1017 64.2289 72.0529C64.3034 72.0041 64.3876 71.9695 64.4765 71.951C64.5654 71.9326 64.6573 71.9306 64.7471 71.9452C64.8368 71.9599 64.9226 71.9908 64.9994 72.0363L87.9457 85.5837C88.1006 85.6755 88.2102 85.8208 88.2502 85.9877C88.2902 86.1546 88.2574 86.3294 88.1591 86.4739C88.0607 86.6183 87.9048 86.7204 87.7256 86.7579C87.5464 86.7954 87.3585 86.7651 87.2033 86.6737Z" fill="#FF8811"/>
<path d="M84.8028 90.1982L61.8566 76.6508C61.7014 76.5591 61.5916 76.4138 61.5514 76.2468C61.5113 76.0798 61.544 75.9047 61.6424 75.7602C61.7409 75.6157 61.897 75.5134 62.0764 75.476C62.2557 75.4386 62.4437 75.4691 62.599 75.5608L85.5452 89.1082C85.7002 89.1999 85.8097 89.3452 85.8497 89.5121C85.8897 89.679 85.857 89.8539 85.7586 89.9983C85.6602 90.1427 85.5043 90.2449 85.3251 90.2824C85.1459 90.3198 84.9581 90.2896 84.8028 90.1982Z" fill="#FF8811"/>
<path d="M82.4027 93.7226L59.4565 80.1752C59.3796 80.1298 59.3131 80.0708 59.2607 80.0015C59.2083 79.9322 59.1712 79.8539 59.1513 79.7712C59.1314 79.6885 59.1292 79.603 59.1448 79.5195C59.1604 79.436 59.1935 79.3562 59.2423 79.2846C59.291 79.213 59.3544 79.1511 59.4289 79.1024C59.5033 79.0536 59.5874 79.019 59.6762 79.0005C59.765 78.9819 59.8569 78.9799 59.9466 78.9944C60.0362 79.009 60.122 79.0398 60.1988 79.0852L83.1451 92.6326C83.3003 92.7242 83.4101 92.8695 83.4503 93.0366C83.4905 93.2036 83.4577 93.3786 83.3593 93.5232C83.2608 93.6677 83.1047 93.7699 82.9253 93.8073C82.746 93.8447 82.558 93.8142 82.4027 93.7226Z" fill="#FF8811"/>
<path d="M80.1544 58.325C82.1705 58.325 83.8049 56.8033 83.8049 54.9262C83.8049 53.049 82.1705 51.5273 80.1544 51.5273C78.1383 51.5273 76.5039 53.049 76.5039 54.9262C76.5039 56.8033 78.1383 58.325 80.1544 58.325Z" fill="#FF8811"/>
<path d="M8.45596 76.8203C8.36411 76.8203 8.27329 76.8383 8.18945 76.8733C8.1056 76.9082 8.03062 76.9592 7.96941 77.023C7.90821 77.0867 7.86216 77.1618 7.83427 77.2433C7.80638 77.3248 7.79728 77.4108 7.80758 77.4958L13.4637 124.232C13.4815 124.381 13.5575 124.518 13.6772 124.618C13.7968 124.717 13.9516 124.772 14.112 124.772H98.8879C99.0484 124.772 99.2032 124.717 99.3229 124.618C99.4425 124.518 99.5185 124.381 99.5363 124.232L105.192 77.4958C105.203 77.4108 105.194 77.3248 105.166 77.2433C105.138 77.1619 105.092 77.0868 105.031 77.023C104.97 76.9589 104.895 76.9076 104.811 76.8727C104.727 76.8377 104.636 76.8199 104.544 76.8203H8.45596Z" fill="#E6E6E6"/>
<path d="M16.1686 84.6699L43.3389 84.5329C43.5225 84.5316 43.6981 84.4626 43.8271 84.341C43.9561 84.2193 44.028 84.055 44.027 83.884C44.026 83.7131 43.9522 83.5495 43.8218 83.4291C43.6913 83.3088 43.515 83.2416 43.3314 83.2422L16.1611 83.3792C15.9772 83.3801 15.8013 83.449 15.672 83.5707C15.5428 83.6923 15.4707 83.8569 15.4717 84.028C15.4727 84.1992 15.5467 84.363 15.6773 84.4833C15.808 84.6037 15.9847 84.6708 16.1686 84.6699Z" fill="white"/>
<path d="M16.1686 88.6606L32.2842 88.5236C32.4679 88.5223 32.6434 88.4533 32.7725 88.3317C32.9015 88.21 32.9734 88.0457 32.9724 87.8747C32.9714 87.7038 32.8976 87.5402 32.7671 87.4199C32.6367 87.2995 32.4604 87.2323 32.2767 87.2329L16.1611 87.3699C15.9772 87.3708 15.8013 87.4397 15.672 87.5614C15.5428 87.6831 15.4707 87.8476 15.4717 88.0187C15.4727 88.1899 15.5467 88.3537 15.6773 88.474C15.808 88.5944 15.9847 88.6615 16.1686 88.6606Z" fill="white"/>
<path d="M170.911 125H0V124.542H171L170.911 125Z" fill="#3F3D56"/>
</svg>
