<svg width="162" height="119" viewBox="0 0 162 119" fill="none" xmlns="http://www.w3.org/2000/svg">
<g clip-path="url(#clip0)">
<path d="M153.132 15.6831H17.5115V88.5251H153.132V15.6831Z" fill="#F2F2F2"/>
<path opacity="0.3" d="M74.4425 28.1704H30.6265V81.8356H74.4425V28.1704Z" fill="#FF8811"/>
<path d="M126.306 32.0356H91.2834V33.9682H126.306V32.0356Z" fill="#3F3D56"/>
<path d="M142.253 35.6035H91.2834V37.5361H142.253V35.6035Z" fill="#3F3D56"/>
<path d="M126.306 44.2256H91.2834V46.1581H126.306V44.2256Z" fill="#3F3D56"/>
<path d="M126.306 58.4966H91.2834V60.4291H126.306V58.4966Z" fill="#3F3D56"/>
<path d="M142.253 47.7935H91.2834V49.726H142.253V47.7935Z" fill="#3F3D56"/>
<path d="M142.253 51.3608H91.2834V53.2934H142.253V51.3608Z" fill="#3F3D56"/>
<path d="M142.253 54.9287H91.2834V56.8613H142.253V54.9287Z" fill="#3F3D56"/>
<path d="M109.615 67.1187H91.2834V72.173H109.615V67.1187Z" fill="#FF8811"/>
<path d="M77.274 25.2715H33.458V78.9367H77.274V25.2715Z" fill="#3F3D56"/>
<path d="M71.0148 54.9447C71.0148 65.3671 64.8031 69.0063 57.1406 69.0063C49.4781 69.0063 43.2664 65.3671 43.2664 54.9447C43.2664 44.5222 57.1406 31.2632 57.1406 31.2632C57.1406 31.2632 71.0148 44.5222 71.0148 54.9447Z" fill="#FF8811"/>
<path d="M56.6351 67.412L56.7773 58.6892L62.6908 47.8981L56.7995 57.321L56.8634 53.3988L60.9391 45.5915L56.8803 52.3609V52.361L56.9952 45.307L61.3595 39.0913L57.0132 44.1977L57.085 31.2632L56.6339 48.3862L56.671 47.6798L52.2338 40.9052L56.5998 49.0357L56.1864 56.914L56.1741 56.7048L51.0588 49.5755L56.1586 57.4435L56.1069 58.4288L56.0977 58.4436L56.1019 58.5245L55.053 78.5119H56.4543L56.6226 68.188L61.7097 60.3393L56.6351 67.412Z" fill="#3F3D56"/>
<path d="M19.5979 119C30.3804 119 39.1214 117.869 39.1214 116.473C39.1214 115.077 30.3804 113.946 19.5979 113.946C8.81541 113.946 0.0744629 115.077 0.0744629 116.473C0.0744629 117.869 8.81541 119 19.5979 119Z" fill="#3F3D56"/>
<path d="M10.3763 46.5112L9.72778 48.0476L10.4574 57.9934C10.4574 57.9934 10.052 58.5595 10.4574 58.9638C10.8627 59.3681 10.7816 59.5298 10.7816 59.5298C10.7816 59.5298 10.1331 59.5298 10.4574 60.0149C10.7816 60.5001 10.7816 60.7427 10.7816 60.7427L10.6195 61.2279C10.6195 61.2279 10.9438 61.6322 10.9438 61.9556C10.9438 62.279 13.0515 72.2249 13.0515 72.2249L15.0781 68.2627L13.9432 52.4949L10.3763 46.5112Z" fill="#FF8811"/>
<path d="M31.7007 71.3901C31.7007 71.3901 35.2674 74.0106 35.393 76.1061C35.5186 78.2016 30.7953 72.9855 30.7632 72.3977C30.7311 71.8099 31.7007 71.3901 31.7007 71.3901Z" fill="#FFB9B9"/>
<path d="M9.32254 111.038L8.43082 113.949C8.43082 113.949 7.13378 116.779 8.91721 117.183C10.7006 117.588 12.403 116.051 12.403 116.051V114.111L13.0516 111.038H9.32254Z" fill="#2F2E41"/>
<path d="M23.9142 111.038C23.9142 111.038 23.5088 116.537 24.4006 116.86C25.2923 117.183 28.4538 117.264 28.5349 116.86C28.616 116.456 29.5888 116.051 28.8592 115.485C28.1296 114.919 27.6432 111.604 27.6432 111.604L23.9142 111.038Z" fill="#2F2E41"/>
<path d="M15.7265 58.9636V61.3894C15.7265 61.3894 13.0513 66.9688 12.0785 75.7826C11.1057 84.5964 7.78206 111.442 8.59272 111.927C9.40337 112.412 18.1585 112.736 18.4017 112.089C18.6448 111.442 18.888 92.5207 18.888 92.5207L21.8875 79.1787C21.8875 79.1787 22.4549 83.9495 22.9413 84.7581C23.4277 85.5667 22.1307 111.846 22.9413 112.251C23.752 112.655 34.6958 113.383 34.5337 112.089C34.3716 110.795 30.7236 75.7017 30.7236 75.7017C30.7236 75.7017 28.8591 59.1253 28.2917 58.9636C27.7242 58.8019 22.536 58.6401 21.7254 58.8019C20.9147 58.9636 15.7265 58.9636 15.7265 58.9636Z" fill="#2F2E41"/>
<path d="M21.8876 38.9105C24.4396 38.9105 26.5083 36.8469 26.5083 34.3014C26.5083 31.7559 24.4396 29.6924 21.8876 29.6924C19.3356 29.6924 17.2668 31.7559 17.2668 34.3014C17.2668 36.8469 19.3356 38.9105 21.8876 38.9105Z" fill="#FFB9B9"/>
<path d="M22.8602 38.1825C22.8602 38.1825 20.5093 41.8212 21.0767 42.7916C21.6442 43.7619 15.0779 41.8212 15.0779 41.8212C15.0779 41.8212 19.0501 36.9696 18.969 36.4036C18.888 35.8376 22.8602 38.1825 22.8602 38.1825Z" fill="#FFB9B9"/>
<path d="M27.7243 43.6001C27.7243 43.6001 23.4279 42.2254 22.8604 41.6594C22.4964 41.2885 22.1705 40.8822 21.8876 40.4465C21.8876 40.4465 16.6994 39.7188 16.5373 39.7188C16.3752 39.7188 15.1592 41.1742 14.8349 41.4977C14.5107 41.8211 10.3763 44.0044 10.3763 44.5704C10.3763 45.1364 9.72778 48.0474 9.72778 48.0474C9.72778 48.0474 11.187 51.0392 12.0787 51.6861C12.9704 52.333 13.2136 52.1713 13.2947 53.2225C13.3757 54.2737 14.5107 55.9717 14.5107 55.9717C14.5107 55.9717 15.2402 57.8315 15.0781 58.3976C14.916 58.9636 14.1864 59.4487 15.8888 59.287C17.5911 59.1253 26.022 59.6105 26.022 58.721C26.022 57.8315 24.4007 49.3412 24.4007 49.3412L27.7243 43.6001Z" fill="#FF8811"/>
<path d="M26.1839 43.7618L27.7241 43.6001C27.7241 43.6001 28.2916 43.9235 28.3727 47.0771C28.4537 50.2307 28.4537 57.8316 29.0212 58.4784C29.5887 59.1253 31.9396 69.152 31.9396 69.152C31.9396 69.152 32.5881 69.3138 32.5881 69.8798C32.5881 70.4458 33.3177 70.931 32.9934 71.5779C32.6692 72.2247 33.3177 72.063 32.9124 72.4673C32.507 72.8716 30.5614 73.6802 30.4804 73.1951C30.3993 72.7099 30.7236 72.629 30.3993 72.4673C30.0751 72.3056 30.0751 72.2247 29.994 71.6587C29.9129 71.0927 29.1833 70.5267 29.2644 70.2841C29.3455 70.0415 25.6975 63.0066 25.6975 62.7641C25.6975 62.5215 25.4543 61.632 25.13 61.4703C24.8058 61.3086 24.3194 61.1469 24.5626 60.7425C24.8058 60.3382 23.9141 48.2092 23.9141 48.2092L26.1839 43.7618Z" fill="#FF8811"/>
<path d="M25.7951 31.3784C24.3781 29.8441 22.1529 29.0298 20.1123 29.4862C18.0717 29.9425 16.3533 31.7497 16.1938 33.8296C16.1611 34.2551 16.1883 34.6896 16.0779 35.1019C15.8923 35.7953 15.3399 36.3449 15.1452 37.0358C15.0147 37.4985 15.0534 37.9968 14.9152 38.4573C14.6597 39.3082 13.8691 39.863 13.2665 40.5169C13.0225 40.7566 12.8413 41.0524 12.7388 41.3784C12.6858 41.6674 12.6724 41.9623 12.6989 42.255C12.7243 43.8324 12.1363 45.3583 11.0583 46.5128C11.6922 46.0431 12.377 45.646 13.0998 45.329C12.7415 46.467 13.0691 47.8135 13.9705 48.5973C14.872 49.3811 16.3159 49.5028 17.2906 48.8118C17.8696 48.4012 18.2457 47.7711 18.6049 47.1597L19.965 44.845C20.211 44.4263 20.4679 43.9955 20.8609 43.7095C21.1733 43.4822 21.5528 43.3613 21.8673 43.1369C22.6605 42.5708 22.8735 41.4628 22.7258 40.5012C22.5781 39.5396 22.1445 38.6467 21.8959 37.706C21.6992 36.962 21.6375 36.1093 22.0799 35.479C22.6672 34.6423 23.8741 34.5356 24.6721 33.8956C24.9726 33.6546 25.1068 33.3615 25.322 33.0599C25.5206 32.7814 25.5712 32.8812 25.879 32.8685C26.7242 32.8335 26.1083 31.7175 25.7951 31.3784Z" fill="#2F2E41"/>
<path d="M21.7588 36.7927C21.9646 36.7927 22.1314 36.3933 22.1314 35.9007C22.1314 35.4081 21.9646 35.0088 21.7588 35.0088C21.553 35.0088 21.3862 35.4081 21.3862 35.9007C21.3862 36.3933 21.553 36.7927 21.7588 36.7927Z" fill="#FFB9B9"/>
<path d="M100.449 107.925C103.083 107.925 105.218 105.795 105.218 103.168C105.218 100.541 103.083 98.4111 100.449 98.4111C97.8151 98.4111 95.6799 100.541 95.6799 103.168C95.6799 105.795 97.8151 107.925 100.449 107.925Z" fill="#F2F2F2"/>
<path d="M4.76909 14.2709C7.40298 14.2709 9.53818 12.1411 9.53818 9.51386C9.53818 6.88663 7.40298 4.75684 4.76909 4.75684C2.13519 4.75684 0 6.88663 0 9.51386C0 12.1411 2.13519 14.2709 4.76909 14.2709Z" fill="#F2F2F2"/>
<path d="M157.231 9.51405C159.865 9.51405 162 7.38426 162 4.75703C162 2.12979 159.865 0 157.231 0C154.597 0 152.462 2.12979 152.462 4.75703C152.462 7.38426 154.597 9.51405 157.231 9.51405Z" fill="#F2F2F2"/>
</g>
<defs>
<clipPath id="clip0">
<rect width="162" height="119" fill="white"/>
</clipPath>
</defs>
</svg>
