<svg width="158" height="108" viewBox="0 0 158 108" fill="none" xmlns="http://www.w3.org/2000/svg">
<g clip-path="url(#clip0)">
<path opacity="0.1" d="M52.5288 107.939C60.2233 107.939 66.4609 106.973 66.4609 105.78C66.4609 104.587 60.2233 103.621 52.5288 103.621C44.8343 103.621 38.5967 104.587 38.5967 105.78C38.5967 106.973 44.8343 107.939 52.5288 107.939Z" fill="#FF8811"/>
<path opacity="0.1" d="M128.262 108C137.863 108 145.647 107.034 145.647 105.841C145.647 104.648 137.863 103.682 128.262 103.682C118.66 103.682 110.876 104.648 110.876 105.841C110.876 107.034 118.66 108 128.262 108Z" fill="#FF8811"/>
<path opacity="0.1" d="M1.97904 46.6636H16.4902V65.7499H3.04139C3.00565 65.9458 2.97133 66.1432 2.93416 66.3405H16.4902V81.7332C16.4659 81.7263 16.4445 81.718 16.4216 81.7097C16.0384 81.5634 15.6581 81.4089 15.2777 81.2433L15.0347 81.1371C14.6534 80.9632 14.2721 80.7793 13.8908 80.5852C13.7578 80.5176 13.6249 80.4472 13.4933 80.3755C11.3766 79.2312 9.45367 77.7814 7.79123 76.0761C7.74261 76.0306 7.69686 75.9823 7.64825 75.9381C7.41662 75.6953 7.18928 75.4497 6.96909 75.1986L6.72602 74.9226C6.46579 74.6149 6.21414 74.299 5.96965 73.9789C5.9339 73.9319 5.89959 73.885 5.86241 73.8409C4.86804 72.5104 4.0424 71.0698 3.40313 69.5498C3.38312 69.5043 3.36596 69.4546 3.34737 69.4118C3.15101 68.9243 2.97705 68.4322 2.82549 67.9355C2.75972 67.7271 2.69681 67.5215 2.64247 67.3049C2.62246 67.2414 2.6053 67.1794 2.58957 67.1173C1.77744 64.0583 1.68164 60.8807 1.68164 57.7252C1.68164 57.3568 1.68164 56.987 1.68164 56.6214C1.68164 55.3451 1.69737 54.0605 1.72025 52.7773C1.72025 52.4448 1.73454 52.1137 1.74169 51.7798C1.76171 50.9326 1.79031 50.0854 1.82748 49.2382C1.83606 49.0023 1.8475 48.7677 1.86037 48.5332C1.86037 48.3979 1.86752 48.2627 1.88181 48.1275C1.91613 47.6363 1.94473 47.1493 1.97904 46.6636Z" fill="#FF8811"/>
<path opacity="0.1" d="M16.49 25.4126H8.53027C9.82418 23.4583 11.2379 21.5803 12.7639 19.7887C13.9464 18.3869 15.1946 17.0209 16.49 15.7046V25.4126Z" fill="#FF8811"/>
<path opacity="0.1" d="M16.4903 26.0029V46.073H2.0249C2.0249 46.0151 2.03491 45.9558 2.0392 45.8978C2.05207 45.7391 2.06494 45.5805 2.07923 45.4232C2.09496 45.2383 2.11212 45.052 2.13071 44.8713C2.1493 44.6905 2.16931 44.4698 2.19076 44.2697C2.21221 44.0696 2.23222 43.8668 2.25653 43.6667C2.28084 43.4667 2.30229 43.2666 2.32802 43.0679C2.35376 42.8692 2.37664 42.6678 2.4038 42.4691C2.42525 42.3035 2.44813 42.1393 2.471 41.9738C2.50389 41.7406 2.5382 41.506 2.57538 41.2742C2.57538 41.2397 2.58539 41.2038 2.59111 41.1707C2.85208 39.4738 3.20766 37.7918 3.65632 36.1318C4.12595 34.3905 4.72566 32.6843 5.45073 31.0267C6.22135 29.2925 7.12363 27.6157 8.15022 26.0098L16.4903 26.0029Z" fill="#FF8811"/>
<path opacity="0.1" d="M19.9546 46.6623V65.75H50.9486V46.6623H19.9546ZM19.9546 66.3392V82.7308C20.1319 82.7667 20.3078 82.8012 20.4822 82.8302C20.7195 82.8743 20.9555 82.9143 21.1971 82.9488C21.2429 82.9557 21.29 82.9626 21.3401 82.9668C21.4344 82.9819 21.5317 82.9943 21.626 83.0068C21.8648 83.0385 22.1022 83.0647 22.3409 83.0854C22.4539 83.0965 22.5683 83.1061 22.6827 83.1144L22.9586 83.1351C23.1088 83.1461 23.2575 83.1544 23.4047 83.1585C23.4962 83.1585 23.5877 83.1668 23.6821 83.1696C23.7536 83.1696 23.8251 83.1696 23.8994 83.1696C23.9738 83.1696 24.0796 83.1696 24.1697 83.1696C24.2926 83.1696 24.4156 83.1696 24.5371 83.1696H24.7016C24.8245 83.1696 24.9475 83.1696 25.069 83.1585H25.0776C25.162 83.1585 25.2478 83.1585 25.3335 83.1475C25.3574 83.1489 25.3812 83.1489 25.405 83.1475C25.4765 83.1475 25.548 83.1475 25.6166 83.1378H25.6667L26.1457 83.102C26.303 83.0882 26.4617 83.0702 26.6218 83.0537L26.9478 83.0164C28.2741 82.8371 29.5856 82.5678 30.8726 82.2106C33.7637 81.4324 36.5919 80.3438 39.4815 79.5463C43.2176 78.5184 47.3455 78.0134 50.9558 79.2704V66.3392H19.9546ZM50.9486 25.4125V0.00127989C47.5553 -0.0341972 44.1712 0.348799 40.8785 1.14097C33.0302 3.04367 25.9884 7.17056 19.9546 12.4413V25.4111H21.5102V26.0003H19.9546V46.0731H50.9486V26.0016H27.8972V25.4125H50.9486ZM90.7589 16.8289C88.8172 16.7627 86.887 16.1694 85.1412 15.2532C81.8026 13.5009 79.136 10.7952 76.1562 8.51169C69.9652 3.75563 62.2871 0.885711 54.4102 0.173751V25.4125H98.6558L98.7659 25.3007L90.7589 16.8289ZM94.7896 16.1391L99.0633 20.6647V14.9525C97.632 15.1235 96.3781 15.5306 94.7953 16.1335L94.7896 16.1391ZM99.0633 86.8011V66.3392H89.9568C89.9325 66.2522 89.9082 66.1639 89.8796 66.0756C89.9068 66.1639 89.9296 66.2522 89.9554 66.3392H54.4159V81.1372C54.7534 81.3786 55.0865 81.6325 55.4168 81.8905C55.7728 82.1665 56.1246 82.4576 56.4777 82.7432L56.8338 83.0275C57.0039 83.1654 57.1755 83.3034 57.3485 83.4331C57.6916 83.7017 58.0381 83.9666 58.388 84.2279C58.561 84.3658 58.7383 84.49 58.9141 84.6197C61.7061 86.6797 64.6514 88.5386 67.7261 90.1816C68.4152 90.5495 69.1106 90.9087 69.8122 91.2592C70.2797 91.4896 70.7501 91.7186 71.222 91.9408C71.9311 92.2747 72.6461 92.5966 73.3667 92.9066C80.0105 95.7846 87.0359 97.7594 94.242 98.7748C95.8424 99.0029 97.449 99.1822 99.0619 99.3129V86.7997H99.2048L99.0633 86.8011ZM54.4159 26.0016V46.0731H99.069V26.0016H54.4159ZM54.4159 46.6623V65.75H99.069V46.6623H54.4159ZM102.535 14.9276V21.2994L107.99 15.5237C106.182 15.2422 104.364 15.0412 102.535 14.9207V14.9276ZM102.535 46.6692V65.75H145.965V46.6623L102.535 46.6692ZM145.807 88.3161L145.96 66.3392H102.535V99.5322C105.332 99.6457 108.134 99.6134 110.928 99.4357H110.976C112.311 99.3547 113.639 99.237 114.961 99.0824H114.991C122.045 98.2903 128.942 96.5144 135.466 93.8104L145.807 88.3161ZM154.34 49.8054C154.177 49.4342 154.007 49.0658 153.834 48.7016C153.511 48.0117 153.169 47.3411 152.817 46.6706H149.428V65.75H157.996C157.992 60.3468 156.575 54.8278 154.344 49.7985L154.34 49.8054ZM149.428 66.3461V85.2489C151.842 83.0164 153.881 80.4625 155.349 77.5429C157.115 74.0272 157.923 70.2205 157.989 66.3433L149.428 66.3461ZM149.428 41.1073V46.0745H152.5C151.571 44.3646 150.547 42.7042 149.433 41.1004L149.428 41.1073ZM119.974 18.6723C119.748 18.5895 119.522 18.5054 119.295 18.4239C116.897 17.5695 114.447 16.8589 111.959 16.2963L103.612 25.1365L103.451 25.3007L103.559 25.4139H133.267C129.13 22.6654 124.669 20.4001 119.979 18.6654L119.974 18.6723ZM134.138 26.0085H103.144L102.535 26.5466V46.0731H107.874H107.882H145.971V36.6148C142.526 32.5936 138.549 29.0255 134.142 26.0016L134.138 26.0085Z" fill="#FF8811"/>
<path opacity="0.1" d="M16.4903 36.1265V46.0732H2.0249C2.0249 46.0153 2.03491 45.9559 2.0392 45.898C2.05207 45.7393 2.06494 45.5806 2.07923 45.4233C2.09496 45.2385 2.11212 45.0522 2.13071 44.8714C2.1493 44.6907 2.16931 44.4699 2.19076 44.2699C2.21221 44.0698 2.23222 43.867 2.25653 43.6669C2.28084 43.4668 2.30229 43.2668 2.32802 43.0681C2.35376 42.8694 2.37664 42.6679 2.4038 42.4693C2.42525 42.3037 2.44813 42.1395 2.471 41.9739C2.50389 41.7407 2.5382 41.5062 2.57538 41.2744C2.57538 41.2399 2.58539 41.204 2.59111 41.1709C2.85208 39.474 3.20766 37.7919 3.65632 36.132L16.4903 36.1265Z" fill="#FF8811"/>
<path opacity="0.1" d="M1.97904 46.6636H16.4902V65.7499H3.04139C3.00565 65.9458 2.97133 66.1432 2.93416 66.3405H16.4902V81.7332C16.4659 81.7263 16.4445 81.718 16.4216 81.7097C16.0384 81.5634 15.6581 81.4089 15.2777 81.2433L15.0347 81.1371C14.6534 80.9632 14.2721 80.7793 13.8908 80.5852C13.7578 80.5176 13.6249 80.4472 13.4933 80.3755C11.3766 79.2312 9.45367 77.7814 7.79123 76.0761C7.74261 76.0306 7.69686 75.9823 7.64825 75.9381C7.41662 75.6953 7.18928 75.4497 6.96909 75.1986L6.72602 74.9226C6.46579 74.6149 6.21414 74.299 5.96965 73.9789C5.9339 73.9319 5.89959 73.885 5.86241 73.8409C4.86804 72.5104 4.0424 71.0698 3.40313 69.5498C3.38312 69.5043 3.36596 69.4546 3.34737 69.4118C3.15101 68.9243 2.97705 68.4322 2.82549 67.9355C2.75972 67.7271 2.69681 67.5215 2.64247 67.3049C2.62246 67.2414 2.6053 67.1794 2.58957 67.1173C1.77744 64.0583 1.68164 60.8807 1.68164 57.7252C1.68164 57.3568 1.68164 56.987 1.68164 56.6214C1.68164 55.3451 1.69737 54.0605 1.72025 52.7773C1.72025 52.4448 1.73454 52.1137 1.74169 51.7798C1.76171 50.9326 1.79031 50.0854 1.82748 49.2382C1.83606 49.0023 1.8475 48.7677 1.86037 48.5332C1.86037 48.3979 1.86752 48.2627 1.88181 48.1275C1.91613 47.6363 1.94473 47.1493 1.97904 46.6636Z" fill="#FF8811"/>
<path opacity="0.1" d="M30.8655 28.8758V46.0733H19.9546V28.8758H21.5102V23.0532H27.8958V28.8758H30.8655Z" fill="#FF8811"/>
<path opacity="0.1" d="M30.8655 46.6626H19.9561V65.7489H30.8655V46.6626Z" fill="#FF8811"/>
<path opacity="0.1" d="M19.9546 66.3408H30.8655V82.2082C29.5784 82.565 28.2669 82.8338 26.9407 83.0126L26.6147 83.0512C26.4545 83.0691 26.2958 83.0843 26.1385 83.0995C25.9812 83.1147 25.8182 83.1257 25.6595 83.1354H25.6095C25.5409 83.1354 25.4665 83.1436 25.3993 83.145H25.3264C25.2406 83.145 25.1548 83.1533 25.069 83.1561C24.9475 83.163 24.826 83.1643 24.7016 83.1657C24.6487 83.1657 24.5986 83.1657 24.5457 83.1657C24.4228 83.1657 24.3012 83.1657 24.1783 83.1657H23.908C23.8351 83.1657 23.765 83.1657 23.6893 83.1657L23.4133 83.1561C23.2703 83.1561 23.1159 83.1409 22.9672 83.1312L22.6927 83.1119L22.351 83.0816C22.1107 83.0609 21.872 83.0346 21.636 83.0029L21.3501 82.9643L21.2071 82.945C20.9683 82.9091 20.7324 82.8704 20.4922 82.8263C20.3163 82.7973 20.1419 82.7614 19.9646 82.727L19.9546 66.3408Z" fill="#FF8811"/>
<path opacity="0.1" d="M99.0691 26.8447H90.0728V46.0718H99.0691V26.8447Z" fill="#FF8811"/>
<path opacity="0.1" d="M99.07 46.6626V65.7503H54.4155V57.5172H78.2005V62.374H90.0722V46.6626H99.07Z" fill="#FF8811"/>
<path opacity="0.1" d="M99.2115 86.8054H99.0686V99.3268C97.4576 99.1953 95.8515 99.0164 94.2501 98.7901C87.0404 97.7715 80.0121 95.7924 73.3663 92.9095C71.4474 92.0761 69.5677 91.1664 67.7271 90.1803C64.6525 88.5366 61.7068 86.6777 58.9137 84.6185C58.2122 84.0997 57.5196 83.5689 56.8362 83.0262C56.3629 82.6495 55.8925 82.2632 55.4164 81.8879C55.0861 81.6299 54.753 81.376 54.4155 81.1332V66.3407H89.9535C89.9292 66.2524 89.9049 66.1641 89.8792 66.0771C89.9063 66.1641 89.9321 66.2524 89.9564 66.3407H99.0686V86.7971C99.1172 86.7985 99.1644 86.8027 99.2115 86.8054Z" fill="#FF8811"/>
<path opacity="0.1" d="M122.532 25.4125H116.67V23.6547H119.298V18.4185C119.526 18.4985 119.753 18.5808 119.979 18.6654V23.6547H122.532V25.4125Z" fill="#FF8811"/>
<path opacity="0.1" d="M136.656 46.073H107.876C107.876 46.073 107.876 46.0731 107.886 46.08L107.874 46.073H102.535V26.846H104.047V41.0576H110.961V32.641H116.671V26.0029H122.533V32.6465H128.244V41.0631H136.656V46.073Z" fill="#FF8811"/>
<path opacity="0.1" d="M102.535 46.6626V65.7503H136.656V46.6626H102.535ZM145.918 88.2185L145.965 73.11H136.656V66.3491H102.535V99.5326C105.332 99.646 108.134 99.6137 110.928 99.436H110.976C112.311 99.355 113.639 99.2373 114.961 99.0828H114.991C122.045 98.2906 128.941 96.5147 135.466 93.8107" fill="#FF8811"/>
<path opacity="0.1" d="M150.035 66.3408H157.994C157.924 70.2166 157.118 74.0234 155.353 77.539C153.885 80.46 151.845 83.0139 149.434 85.245V73.1031H150.035V66.3408Z" fill="#FF8811"/>
<path opacity="0.1" d="M157.999 65.7503H150.035V49.7988H154.344C156.575 54.8281 157.992 60.3472 157.999 65.7503Z" fill="#FF8811"/>
<path opacity="0.1" d="M99.0704 32.1899H94.2505V38.2181H99.0704V32.1899Z" fill="#FF8811"/>
<path opacity="0.1" d="M99.0704 44.6851H94.2505V46.0731H99.0704V44.6851Z" fill="#FF8811"/>
<path opacity="0.1" d="M99.0704 46.6626H94.2505V50.7122H99.0704V46.6626Z" fill="#FF8811"/>
<path opacity="0.1" d="M99.0704 57.1807H94.2505V63.2089H99.0704V57.1807Z" fill="#FF8811"/>
<path opacity="0.1" d="M99.0704 69.6758H94.2505V75.704H99.0704V69.6758Z" fill="#FF8811"/>
<path opacity="0.1" d="M99.069 86.7973C99.1176 86.7973 99.1648 86.7973 99.2119 86.8055H99.069V88.206H94.2505V82.1709H99.069V86.7973Z" fill="#FF8811"/>
<path opacity="0.1" d="M99.069 94.6631V99.3198C97.458 99.1883 95.8519 99.0094 94.2505 98.7831V94.6631H99.069Z" fill="#FF8811"/>
<path opacity="0.1" d="M75.072 65.3071H54.4155V65.75H75.072V65.3071Z" fill="#FF8811"/>
<path opacity="0.1" d="M75.072 66.3394H54.4155V68.0365H75.072V66.3394Z" fill="#FF8811"/>
<path opacity="0.1" d="M75.072 73.5996H54.4155V76.3288H75.072V73.5996Z" fill="#FF8811"/>
<path opacity="0.1" d="M75.0707 81.8921V84.6213H58.9138C58.2122 84.1043 57.5192 83.5736 56.8348 83.029C56.3616 82.6523 55.8926 82.266 55.415 81.8921H75.0707Z" fill="#FF8811"/>
<path opacity="0.1" d="M75.0711 90.1828V92.9093H73.3653C71.4484 92.075 69.5691 91.1648 67.7275 90.1787L75.0711 90.1828Z" fill="#FF8811"/>
<path opacity="0.1" d="M114.996 48.5127H110.929V52.4368H114.996V48.5127Z" fill="#FF8811"/>
<path opacity="0.1" d="M26.9507 30.2295H22.8843V34.1535H26.9507V30.2295Z" fill="#FF8811"/>
<path opacity="0.1" d="M26.9507 39.3442H22.8843V43.2683H26.9507V39.3442Z" fill="#FF8811"/>
<path opacity="0.1" d="M26.9507 48.459H22.8843V52.383H26.9507V48.459Z" fill="#FF8811"/>
<path opacity="0.1" d="M26.9507 57.5723H22.8843V61.4963H26.9507V57.5723Z" fill="#FF8811"/>
<path opacity="0.1" d="M26.9507 66.687H22.8843V70.6111H26.9507V66.687Z" fill="#FF8811"/>
<path opacity="0.1" d="M26.9507 75.8018H22.8843V79.7258H26.9507V75.8018Z" fill="#FF8811"/>
<path opacity="0.1" d="M130.519 48.5127H126.453V52.4368H130.519V48.5127Z" fill="#FF8811"/>
<path opacity="0.1" d="M114.996 58.1919H110.929V62.1159H114.996V58.1919Z" fill="#FF8811"/>
<path opacity="0.1" d="M130.519 58.1919H126.453V62.1159H130.519V58.1919Z" fill="#FF8811"/>
<path opacity="0.1" d="M114.996 67.8696H110.929V71.7937H114.996V67.8696Z" fill="#FF8811"/>
<path opacity="0.1" d="M130.519 67.8696H126.453V71.7937H130.519V67.8696Z" fill="#FF8811"/>
<path opacity="0.1" d="M114.996 77.5483H110.929V81.4724H114.996V77.5483Z" fill="#FF8811"/>
<path opacity="0.1" d="M130.519 77.5483H126.453V81.4724H130.519V77.5483Z" fill="#FF8811"/>
<path opacity="0.1" d="M114.996 87.2275H110.929V91.1516H114.996V87.2275Z" fill="#FF8811"/>
<path opacity="0.1" d="M130.519 87.2275H126.453V91.1516H130.519V87.2275Z" fill="#FF8811"/>
<path opacity="0.1" d="M110.929 99.4358V96.9053H114.994V99.0757L110.929 99.4358Z" fill="#FF8811"/>
<path opacity="0.1" d="M2.57373 41.168V43.4129H16.4901V41.168H2.57373ZM3.96065 43.2721H2.82538V41.3059H3.96923L3.96065 43.2721ZM5.34614 43.2721H4.20229V41.3059H5.34614V43.2721ZM6.72877 43.2721H5.58492V41.3059H6.72877V43.2721ZM8.11425 43.2721H6.97183V41.3059H8.11568L8.11425 43.2721ZM9.49831 43.2721H8.35446V41.3059H9.49831V43.2721ZM10.8838 43.2721H9.73995V41.3059H10.8838V43.2721ZM12.2693 43.2721H11.1254V41.3059H12.2693V43.2721ZM13.6533 43.2721H12.5095V41.3059H13.6533V43.2721ZM15.0374 43.2721H13.8936V41.3059H15.0374V43.2721ZM16.4215 43.2721H15.2776V41.3059H16.4215V43.2721Z" fill="#FF8811"/>
<path opacity="0.1" d="M2.57373 47.6997V49.9446H16.4901V47.6997H2.57373ZM3.96065 49.8025H2.82538V47.8418H3.96923L3.96065 49.8025ZM5.34614 49.8025H4.20229V47.8418H5.34614V49.8025ZM6.72877 49.8025H5.58492V47.8418H6.72877V49.8025ZM8.11425 49.8025H6.97183V47.8418H8.11568L8.11425 49.8025ZM9.49831 49.8025H8.35446V47.8418H9.49831V49.8025ZM10.8838 49.8025H9.73995V47.8418H10.8838V49.8025ZM12.2693 49.8025H11.1254V47.8418H12.2693V49.8025ZM13.6533 49.8025H12.5095V47.8418H13.6533V49.8025ZM15.0374 49.8025H13.8936V47.8418H15.0374V49.8025ZM16.4215 49.8025H15.2776V47.8418H16.4215V49.8025Z" fill="#FF8811"/>
<path opacity="0.1" d="M2.57373 54.2344V56.4834H16.4901V54.2344H2.57373ZM3.96065 56.3371H2.82538V54.3751H3.96923L3.96065 56.3371ZM5.34614 56.3371H4.20229V54.3751H5.34614V56.3371ZM6.72877 56.3371H5.58492V54.3751H6.72877V56.3371ZM8.11425 56.3371H6.97183V54.3751H8.11568L8.11425 56.3371ZM9.49831 56.3371H8.35446V54.3751H9.49831V56.3371ZM10.8838 56.3371H9.73995V54.3751H10.8838V56.3371ZM12.2693 56.3371H11.1254V54.3751H12.2693V56.3371ZM13.6533 56.3371H12.5095V54.3751H13.6533V56.3371ZM15.0374 56.3371H13.8936V54.3751H15.0374V56.3371ZM16.4215 56.3371H15.2776V54.3751H16.4215V56.3371Z" fill="#FF8811"/>
<path opacity="0.1" d="M2.57373 60.769V63.0112H16.4901V60.769H2.57373ZM3.96065 62.8718H2.82538V60.9084H3.96923L3.96065 62.8718ZM5.34614 62.8718H4.20229V60.9084H5.34614V62.8718ZM6.72877 62.8718H5.58492V60.9084H6.72877V62.8718ZM8.11425 62.8718H6.97183V60.9084H8.11568L8.11425 62.8718ZM9.49831 62.8718H8.35446V60.9084H9.49831V62.8718ZM10.8838 62.8718H9.73995V60.9084H10.8838V62.8718ZM12.2693 62.8718H11.1254V60.9084H12.2693V62.8718ZM13.6533 62.8718H12.5095V60.9084H13.6533V62.8718ZM15.0374 62.8718H13.8936V60.9084H15.0374V62.8718ZM16.4215 62.8718H15.2776V60.9084H16.4215V62.8718Z" fill="#FF8811"/>
<path opacity="0.1" d="M2.63379 67.3022C2.68955 67.5134 2.75246 67.7245 2.81823 67.9328V67.443H3.96208V69.405H3.35012C3.36871 69.4505 3.3873 69.5002 3.40589 69.543H16.4901V67.3022H2.63379ZM5.35043 69.405H4.20658V67.443H5.35043V69.405ZM6.73306 69.405H5.58921V67.443H6.73306V69.405ZM8.11855 69.405H6.97184V67.443H8.11569L8.11855 69.405ZM9.50261 69.405H8.35876V67.443H9.50261V69.405ZM10.8881 69.405H9.74424V67.443H10.8881V69.405ZM12.2736 69.405H11.1297V67.443H12.2736V69.405ZM13.6576 69.405H12.5138V67.443H13.6576V69.405ZM15.0417 69.405H13.8978V67.443H15.0417V69.405ZM16.4258 69.405H15.2819V67.443H16.4258V69.405Z" fill="#FF8811"/>
<path opacity="0.1" d="M5.86523 73.8369C5.90098 73.8811 5.9353 73.9307 5.97247 73.9749H6.72884V74.9173C6.81034 75.0111 6.89041 75.1049 6.97334 75.1932V73.9694H8.11719V75.9383H7.65393C7.69968 75.9838 7.74401 76.0321 7.79691 76.0763H16.4945V73.8369H5.86523ZM9.49839 75.9383H8.35454V73.9776H9.49839V75.9383ZM10.8839 75.9383H9.74003V73.9776H10.8839V75.9383ZM12.2694 75.9383H11.1255V73.9776H12.2694V75.9383ZM13.6534 75.9383H12.5096V73.9776H13.6534V75.9383ZM15.0375 75.9383H13.8936V73.9776H15.0375V75.9383ZM16.4215 75.9383H15.2777V73.9776H16.4215V75.9383Z" fill="#FF8811"/>
<path opacity="0.1" d="M13.499 80.3701C13.6291 80.4419 13.7621 80.5081 13.8965 80.5798V80.5109H15.0404V81.1317L15.2834 81.2407V80.5109H16.4273V81.7043C16.4492 81.7149 16.4722 81.7232 16.4959 81.7292V80.3701H13.499Z" fill="#FF8811"/>
<path opacity="0.1" d="M107.876 46.073H107.885H107.876ZM99.0686 86.7955H99.2116H99.0686ZM89.8792 66.0755C89.9064 66.1638 89.9293 66.2521 89.955 66.339C89.9321 66.2521 89.9078 66.1638 89.8792 66.0755ZM107.876 46.0689H107.885H107.876ZM21.5156 25.4082V25.9974H27.9026V25.4082H21.5156ZM99.0686 86.7955H99.2116H99.0686ZM89.8792 66.0755C89.9064 66.1638 89.9293 66.2521 89.955 66.339C89.9321 66.2521 89.9078 66.1638 89.8792 66.0755ZM107.876 46.0689H107.885H107.876ZM99.0686 86.7913H99.2116H99.0686ZM89.8792 66.0755C89.9064 66.1638 89.9293 66.2521 89.955 66.339C89.9321 66.2521 89.9078 66.1638 89.8792 66.0755Z" fill="#FF8811"/>
<path d="M66.0001 52.3856C66.0001 52.3856 65.4368 52.3097 65.4368 51.5177C65.4368 50.7257 65.0336 49.2466 65.0336 49.2466C65.0336 49.2397 64.6847 46.6706 64.2028 46.2622C63.721 45.8538 63.1019 43.4557 63.1019 43.4557C63.1019 43.4557 62.9961 42.1546 62.7802 41.8745C62.5643 41.5944 62.2726 40.9087 61.8422 39.9304C61.4119 38.9522 59.6174 38.2747 59.6174 38.2747C59.6174 38.2747 56.3732 36.4589 55.4538 35.867C55.3703 35.8184 55.2922 35.7615 55.2208 35.6973C55.0606 35.4945 54.3629 35.4903 54.3629 35.4903C54.29 35.0461 54.2199 34.5355 54.197 34.0733C54.197 34.0236 54.197 33.974 54.1899 33.9243C55.215 33.3395 55.9872 32.4175 56.3646 31.3276C56.3818 31.2751 56.3961 31.22 56.4118 31.1675C56.4732 31.148 56.5298 31.1163 56.5778 31.0745C56.6258 31.0327 56.6642 30.9817 56.6906 30.9247C56.7735 30.7467 56.775 30.5384 56.8779 30.3728C56.998 30.1769 57.2268 30.072 57.407 29.9244C57.8616 29.5518 57.9789 28.924 57.9574 28.3528C57.9431 27.8906 57.8659 27.4242 57.896 26.9648L57.9045 26.8489C57.9131 26.7799 57.9231 26.7109 57.936 26.6446C58.006 26.3025 58.159 25.9796 58.2448 25.6402C58.3306 25.3008 58.3392 24.9186 58.139 24.626C57.8459 24.1969 57.2354 24.1114 56.6992 24.0672C56.0915 24.0176 55.5482 24.0824 55.1593 23.5954C54.9773 23.3408 54.7725 23.1021 54.5473 22.882C54.4673 22.8103 53.6894 22.3522 53.6894 22.3218C52.9303 21.9825 52.0698 21.9188 51.2659 22.1425C50.8627 22.2556 50.4824 22.4405 50.0735 22.5329C49.1913 22.7344 48.1761 22.5164 47.4269 23.0034C47.0094 23.2794 46.7591 23.7182 46.5247 24.1459C46.334 24.4982 46.1405 24.85 45.9442 25.2014C45.6282 25.7795 45.3065 26.3673 45.1735 27.0075C45.1455 27.1468 45.1283 27.288 45.122 27.4297V27.4366C45.122 27.4877 45.122 27.5387 45.122 27.5898V27.6546C45.122 27.7029 45.122 27.7498 45.1306 27.7926C45.1392 27.8354 45.1377 27.8492 45.142 27.8782C45.1463 27.9071 45.1535 27.972 45.162 28.0161C45.1706 28.0603 45.1878 28.1376 45.2049 28.1983C45.2121 28.2245 45.2221 28.2493 45.2307 28.2742C45.245 28.3211 45.2621 28.3666 45.2807 28.4121C45.2907 28.4356 45.3007 28.4604 45.3122 28.4839C45.3336 28.5322 45.3594 28.5791 45.3851 28.6219C45.3965 28.6412 45.4051 28.6591 45.4166 28.677C45.4564 28.7412 45.5004 28.803 45.5481 28.8619C45.8541 29.2303 46.3045 29.4649 46.6376 29.8098C46.6376 29.8236 46.6376 29.8374 46.6376 29.8498C46.6376 29.8885 46.6376 29.9257 46.6376 29.9644C46.6553 30.7337 46.8675 31.4871 47.2557 32.1593C47.644 32.8314 48.1965 33.4018 48.8653 33.8208C48.8653 33.8733 48.8724 33.9271 48.8753 33.9795C48.9031 34.3891 48.8979 34.8001 48.8595 35.2089C48.8013 35.1427 48.7284 35.09 48.6463 35.0546C48.5641 35.0193 48.4748 35.0022 48.3848 35.0047C48.3234 35.0018 48.2618 35.0069 48.2018 35.0198L48.189 35.0102V35.0226C47.8744 35.0971 47.4869 35.4131 47.1166 36.3113C47.1166 36.3113 45.9899 37.5365 45.132 37.4855C44.2741 37.4344 42.1022 38.7604 42.1022 38.7604C42.1022 38.7604 39.9833 40.0877 39.5286 41.4399C39.2744 42.2067 38.9697 42.9569 38.6164 43.6862L35.9969 48.8948L35.5137 53.0272C35.5137 53.0272 35.781 54.8651 35.7281 55.1451C35.6752 55.4252 36.8277 57.9516 36.8277 57.9516C36.8277 57.9516 40.6353 64.4075 42.1909 64.7387L42.3024 64.6628C42.369 64.6963 42.4396 64.7218 42.5126 64.7387L42.8329 64.5207C42.8521 64.7636 42.844 65.0079 42.8086 65.2492C42.5941 65.8866 42.8886 70.0466 43.2633 70.8621C43.6379 71.6775 43.5049 82.3694 43.5049 82.3694L43.452 83.3131C43.452 83.3131 43.452 83.3435 43.4649 83.3959L43.452 83.6194L43.4906 83.6387C43.5307 83.9381 43.5176 84.2419 43.452 84.537C43.3176 84.9509 43.2633 86.1209 43.2633 86.1209C43.2633 86.1209 42.1923 92.7273 42.6999 94.0546C43.2075 95.382 43.6393 96.8362 43.6393 96.8362C43.6393 96.8362 44.1755 98.492 43.665 98.7748C43.1546 99.0577 41.7033 99.5323 42.0022 100.222C42.2738 100.86 43.3047 102.568 43.4577 102.818L43.4448 102.949L43.2347 105.147C43.2687 105.437 43.3503 105.72 43.4763 105.985C43.7065 106.464 44.154 106.961 45.0048 106.907C45.1477 106.898 45.3136 106.881 45.4737 106.86C47.0308 106.659 48.9482 105.988 48.9482 105.988C48.8486 105.927 48.7574 105.854 48.6765 105.772C48.6 105.7 48.5393 105.614 48.4983 105.519C48.4572 105.424 48.4366 105.323 48.4377 105.22C48.4606 104.82 47.6842 102.913 47.4912 102.444C47.4612 102.376 47.4455 102.337 47.4455 102.337C47.4455 102.337 49.2156 100.552 48.921 98.9694C48.921 98.9694 46.9622 97.8655 47.607 97.2598C48.2519 96.6541 49.4043 94.9142 49.4043 94.9142C49.4043 94.9142 49.4572 88.4086 49.4043 87.4372C49.3491 86.7631 49.3823 86.0848 49.503 85.4186C49.5244 85.3179 49.5501 85.22 49.5773 85.1234C50.4691 85.2518 51.3694 85.3178 52.2711 85.3207C52.5999 85.3207 52.9345 85.3207 53.2719 85.3014C53.2719 85.3933 53.2762 85.4927 53.2848 85.5994C53.3592 87.211 53.4978 90.0367 53.6108 91.0867C53.7709 92.5921 54.656 96.6486 54.656 96.6486C54.656 96.6486 52.9674 97.6945 54.9505 100.272C54.9505 100.272 54.9505 101.206 54.819 101.341C54.6786 101.783 54.5654 102.233 54.4801 102.688C54.3972 103.174 54.3629 103.665 54.4973 103.92C54.819 104.53 56.7492 104.48 56.7492 104.48L56.7964 104.472C57.1608 104.436 57.5291 104.469 57.8798 104.571C58.2306 104.674 58.5568 104.842 58.8396 105.067C59.5731 105.635 62.357 105.385 63.864 105.205C64.4545 105.133 64.8491 105.067 64.8491 105.067C64.8683 105.002 64.875 104.935 64.8691 104.868C64.8534 104.511 64.5632 103.727 62.5957 103.027C62.5957 103.027 60.7456 101.827 60.7713 100.781H60.7327H60.5182C60.6741 100.773 60.7742 100.781 60.7742 100.781C60.7742 100.781 60.0492 98.2284 60.3452 98.0215C60.6412 97.8145 59.7547 94.986 59.7547 94.986C59.7547 94.986 59.2471 90.2396 59.22 89.907C59.2211 89.6217 59.2659 89.3381 59.3529 89.0654L59.22 86.4631C59.22 86.4631 59.1942 85.598 59.22 85.3165C59.2156 85.0722 59.1951 84.8284 59.1585 84.5866C59.1456 84.4901 59.1327 84.3893 59.1184 84.29C59.8119 84.1203 60.2623 83.963 60.2623 83.963L60.1822 74.9048C60.7713 73.801 60.88 71.3795 60.8771 69.6617C60.8771 68.5579 60.8256 67.7411 60.8256 67.7411L61.6306 66.473C61.6306 66.473 61.8165 64.9553 61.522 64.6228C61.3918 64.4724 61.4505 64.3165 61.5577 64.1881C61.6134 64.1455 61.6722 64.1068 61.7336 64.0722C61.7336 64.0722 61.725 64.0598 61.715 64.0419C61.7712 63.9966 61.8309 63.9555 61.8937 63.9191C61.8937 63.9191 61.6077 63.4914 61.8637 63.3106C62.1039 63.4679 62.3184 63.5866 62.4814 63.6832C62.4699 63.7839 62.4585 63.8418 62.4585 63.8418L62.5271 63.7038C62.6844 63.7894 62.7802 63.8418 62.7802 63.8418C62.7802 63.8418 64.0413 61.4176 64.0141 61.0602C63.9869 60.7029 64.872 59.1975 64.872 59.1975C64.872 59.1975 64.9792 58.4069 65.4625 58.0758C65.9458 57.7446 65.8371 55.3452 65.8371 55.3452C65.8371 55.3452 65.9715 54.0951 66.2932 53.5846C66.6149 53.0741 66.0001 52.3856 66.0001 52.3856ZM41.8706 51.3218L41.8949 51.8999C41.7519 51.6778 41.649 51.5177 41.649 51.5177L41.8706 51.3218Z" fill="url(#paint0_linear)"/>
<path d="M62.8489 62.7946L62.5401 64.064C62.5401 64.064 60.0665 62.8456 59.6204 61.2975C59.1743 59.7494 60.3668 59.1616 60.3668 59.1616L62.6716 60.104L62.8489 62.7946Z" fill="white"/>
<path opacity="0.1" d="M62.8489 62.7946L62.5401 64.064C62.5401 64.064 60.0665 62.8456 59.6204 61.2975C59.1743 59.7494 60.3668 59.1616 60.3668 59.1616L62.6716 60.104L62.8489 62.7946Z" fill="black"/>
<path d="M48.9669 105.997C48.9669 105.997 46.6792 106.808 45.1064 106.91C44.2714 106.964 43.8324 106.47 43.6065 105.994C43.4831 105.729 43.4035 105.448 43.3706 105.159L43.5751 102.972L43.6837 101.808L47.0252 100.97L47.4985 102.367L47.5428 102.473C47.733 102.939 48.495 104.836 48.4722 105.232C48.4712 105.334 48.4915 105.434 48.5318 105.528C48.5721 105.622 48.6316 105.706 48.7067 105.777C48.7834 105.861 48.8708 105.935 48.9669 105.997Z" fill="white"/>
<path d="M64.5933 104.884C64.5991 104.951 64.5923 105.018 64.5733 105.082C64.5733 105.082 59.6805 105.87 58.6796 105.082C58.3974 104.852 58.0685 104.681 57.7139 104.581C57.3594 104.48 56.987 104.453 56.6207 104.5C56.6207 104.5 54.7276 104.549 54.4116 103.948C54.2801 103.695 54.3144 103.205 54.3959 102.722C54.479 102.27 54.5898 101.823 54.7276 101.383L54.8034 101.325L55.2538 100.976L60.5269 100.825H60.567C60.5412 101.866 62.3571 103.059 62.3571 103.059C64.2859 103.749 64.5705 104.529 64.5933 104.884Z" fill="white"/>
<path opacity="0.1" d="M64.5931 104.885C64.5981 104.951 64.5908 105.018 64.5716 105.082C64.5716 105.082 59.6802 105.87 58.6794 105.082C58.3973 104.852 58.0687 104.681 57.7143 104.581C57.36 104.481 56.9879 104.453 56.6219 104.5C56.6219 104.5 54.7274 104.549 54.4128 103.948C54.2813 103.694 54.3141 103.206 54.3956 102.723C55.1248 102.793 56.2758 102.968 56.7277 103.386C57.4111 104.022 58.5693 104.657 59.2799 104.707C59.8361 104.741 63.1633 104.843 64.5931 104.885Z" fill="black"/>
<path opacity="0.1" d="M48.9669 105.997C48.9669 105.997 46.6791 106.808 45.1064 106.91C44.2713 106.964 43.8324 106.47 43.6079 105.993C44.1898 106.182 44.9977 106.38 45.4223 106.198C45.9256 105.983 47.71 105.844 48.7109 105.784C48.7871 105.865 48.873 105.936 48.9669 105.997Z" fill="black"/>
<path d="M52.3608 40.616C50.4735 39.9082 48.0457 37.5695 48.6519 36.4767C48.7865 36.2009 48.8666 35.9033 48.8878 35.5992C48.9268 35.1863 48.9326 34.7711 48.905 34.3574C48.8625 33.6798 48.778 33.0053 48.6519 32.3374C48.6519 32.3374 54.5442 32.4657 54.201 33.3032C54.1009 33.5488 54.0852 33.9752 54.1124 34.4526C54.1395 34.93 54.211 35.4695 54.2854 35.9262C54.3883 36.5526 54.4913 37.03 54.4913 37.03C54.4913 37.03 54.1309 37.517 53.9193 37.5433C53.7077 37.5695 55.0689 41.6246 52.3608 40.616Z" fill="#CF6F80"/>
<path opacity="0.1" d="M47.5385 102.473L47.4942 102.52C45.7327 100.464 43.6023 103.026 43.6023 103.026L43.5708 102.972L43.6795 101.808L47.0209 100.97L47.4942 102.367L47.5385 102.473Z" fill="black"/>
<path opacity="0.1" d="M60.5686 100.97C60.5686 100.97 59.2818 100.944 58.5955 101.529C57.9091 102.114 54.592 101.656 54.735 101.529C54.7773 101.466 54.8029 101.394 54.8093 101.319L55.2597 100.97L60.5329 100.82C60.5529 100.912 60.5686 100.97 60.5686 100.97Z" fill="black"/>
<path d="M49.7307 84.8256C49.6348 85.0543 49.5621 85.2913 49.5133 85.5334C49.3941 86.1965 49.361 86.8714 49.4147 87.5424C49.4676 88.5082 49.4147 94.9807 49.4147 94.9807C49.4147 94.9807 48.2837 96.7068 47.6532 97.3153C47.0226 97.9238 48.94 99.0165 48.94 99.0165C49.226 100.589 47.493 102.367 47.493 102.367C45.7315 100.311 43.6011 102.874 43.6011 102.874C43.6011 102.874 42.4429 100.943 42.1541 100.253C41.8653 99.5629 43.2851 99.0855 43.7841 98.8054C44.2831 98.5253 43.7598 96.8738 43.7598 96.8738C43.7598 96.8738 43.338 95.4264 42.8376 94.1059C42.3371 92.7855 43.3895 86.2123 43.3895 86.2123C43.3895 86.2123 43.4438 85.045 43.5739 84.638C43.6396 84.3443 43.6526 84.0419 43.6125 83.7439C43.6039 83.6432 43.5939 83.559 43.5868 83.5024C43.5796 83.4459 43.5739 83.4196 43.5739 83.4196L43.5939 83.3865L44.3088 82.1006C44.3088 82.1006 50.0738 84.0157 49.7307 84.8256Z" fill="#FF8811"/>
<path d="M60.5681 100.818C60.5681 100.818 59.2813 100.792 58.595 101.37C57.9087 101.948 54.5915 101.497 54.7345 101.37C54.8775 101.243 54.866 100.304 54.866 100.304C52.9201 97.74 54.5801 96.6996 54.5801 96.6996C54.5801 96.6996 53.7107 92.6638 53.5535 91.1667C53.4434 90.1209 53.3075 87.3103 53.2346 85.7056C53.2032 85.0157 53.1846 84.5411 53.1846 84.5411L54.7745 84.232L54.979 84.192L58.8137 83.4497C58.8137 83.4497 58.9195 84.1396 58.991 84.7039C59.0267 84.9449 59.0467 85.1877 59.0511 85.4311C59.0254 85.707 59.0511 86.5707 59.0511 86.5707L59.1812 89.1606C59.0962 89.4322 59.0524 89.7143 59.0511 89.9981C59.0768 90.3279 59.5758 95.0494 59.5758 95.0494C59.5758 95.0494 60.4437 97.8669 60.1478 98.0697C59.8518 98.2726 60.5681 100.818 60.5681 100.818Z" fill="#FF8811"/>
<path opacity="0.1" d="M54.201 33.3032C54.1009 33.5488 54.0851 33.9752 54.1123 34.4526C53.3231 34.9112 52.4158 35.1457 51.4946 35.1291C50.5735 35.1125 49.6759 34.8455 48.9049 34.3588C48.8625 33.6807 48.778 33.0057 48.6519 32.3374C48.6519 32.3374 54.5441 32.463 54.201 33.3032Z" fill="black"/>
<path d="M56.4788 30.2544C56.48 30.7516 56.3989 31.2458 56.2386 31.7184C55.8804 32.7771 55.1458 33.6796 54.1648 34.2663C53.1837 34.853 52.0193 35.0862 50.8773 34.9245C49.7353 34.7629 48.6893 34.2168 47.9242 33.383C47.1591 32.5491 46.724 31.481 46.696 30.3676C46.696 30.3289 46.696 30.2931 46.696 30.2544C46.6849 29.6277 46.8033 29.0051 47.0441 28.4229C47.285 27.8408 47.6436 27.3107 48.0989 26.8637C48.5543 26.4167 49.0974 26.0617 49.6964 25.8193C50.2955 25.577 50.9386 25.4521 51.5881 25.4521C52.2377 25.4521 52.8808 25.577 53.4798 25.8193C54.0789 26.0617 54.622 26.4167 55.0773 26.8637C55.5327 27.3107 55.8913 27.8408 56.1322 28.4229C56.373 29.0051 56.4914 29.6277 56.4803 30.2544H56.4788Z" fill="#CF6F80"/>
<path opacity="0.1" d="M52.3608 40.6164C50.4735 39.9086 48.0457 37.5699 48.6519 36.4771C48.7865 36.2014 48.8666 35.9038 48.8878 35.5996L51.4715 37.6486L53.07 38.9138L54.2854 35.928C54.3883 36.5544 54.4913 37.0318 54.4913 37.0318C54.4913 37.0318 54.1309 37.5189 53.9193 37.5451C53.7077 37.5713 55.0689 41.6251 52.3608 40.6164Z" fill="black"/>
<path d="M59.0425 49.6715L56.8849 84.6486L54.071 84.8266L46.7847 64.5454L47.98 40.4671L48.2316 35.3799L51.4716 37.9476L53.0716 39.2129L54.3226 36.1401L56.6489 38.0966L59.0425 49.6715Z" fill="#FF8811"/>
<path opacity="0.1" d="M49.7305 84.8253C49.6347 85.054 49.5619 85.291 49.5132 85.5332C47.4657 85.2281 45.4771 84.6286 43.6138 83.7546L43.5752 83.7353L43.5881 83.5132L43.5952 83.3973L44.3101 82.1113C44.3101 82.1113 50.0737 84.0154 49.7305 84.8253Z" fill="black"/>
<path opacity="0.1" d="M54.8077 85.539C54.2843 85.6249 53.7563 85.683 53.2263 85.7129C53.1949 85.023 53.1763 84.5483 53.1763 84.5483L54.7662 84.2393L54.8077 85.539Z" fill="black"/>
<path opacity="0.1" d="M58.9828 84.7108C57.9662 84.966 56.3962 85.253 54.9907 85.0736L54.9707 84.1989L58.8055 83.4565C58.8055 83.4565 58.9113 84.1395 58.9828 84.7108Z" fill="black"/>
<path opacity="0.1" d="M54.9647 85.2337C49.1025 86.1996 43.7336 83.4304 43.7336 83.4304L43.785 82.4921C43.785 82.4921 43.918 71.8555 43.5491 71.04C43.1802 70.2246 42.8928 66.0894 43.1016 65.4547C43.3103 64.82 42.3395 55.3024 42.3395 55.3024L42.1822 51.439L36.4258 49.1886L38.9994 44.0117C39.3471 43.2859 39.646 42.5393 39.8945 41.7765C40.342 40.4326 42.4196 39.1122 42.4196 39.1122C42.4196 39.1122 44.55 37.7931 45.3921 37.8428C46.2343 37.8925 47.3381 36.6755 47.3381 36.6755C48.1531 34.6707 48.8909 35.5786 48.8909 35.5786C48.8909 35.6738 48.8909 35.5786 48.8509 35.8753C48.5649 38.076 53.4749 45.03 53.5449 45.1528L54.0125 56.1441L54.4857 70.0535L54.9647 85.2337Z" fill="black"/>
<path d="M54.8079 85.2337C48.9457 86.1995 43.5753 83.4303 43.5753 83.4303L43.6282 82.4921C43.6282 82.4921 43.7612 71.8554 43.3908 71.04C43.0205 70.2246 42.7345 66.0894 42.9447 65.4547C43.1549 64.82 42.1826 55.3024 42.1826 55.3024L42.0239 51.439L36.2646 49.1803L38.8383 44.0034C39.1852 43.2773 39.4841 42.5308 39.7334 41.7682C40.1795 40.4243 42.2584 39.1039 42.2584 39.1039C42.2584 39.1039 44.3888 37.7848 45.2296 37.8345C46.0703 37.8842 47.1755 36.6672 47.1755 36.6672C47.992 34.6624 48.8913 35.5703 48.8913 35.5703C48.8913 35.6655 48.8055 35.7083 48.8513 35.867C49.4804 38.0015 53.318 45.0217 53.3881 45.1445L53.8613 56.1357L54.3346 70.0452L54.8079 85.2337Z" fill="white"/>
<path opacity="0.1" d="M53.2276 45.458C52.597 45.2041 49.257 41.5242 49.257 41.5242V40.6867C49.1354 40.4108 48.4134 40.5791 47.8271 40.7723L48.0788 35.6851L48.3648 35.9141C48.991 38.0472 53.1546 45.3352 53.2276 45.458Z" fill="black"/>
<path d="M53.3862 45.1528C52.7542 44.8989 49.4142 41.2191 49.4142 41.2191V40.3815C49.2926 40.1056 48.5706 40.2739 47.9844 40.4671L48.2374 35.3799L48.5234 35.6089C49.1511 37.742 53.3161 45.0314 53.3862 45.1528Z" fill="white"/>
<path opacity="0.1" d="M43.7338 63.5053C43.8125 63.5053 47.8102 63.0996 47.8102 63.0996C47.8102 63.0996 50.2309 67.6929 50.0722 68.8105C49.9135 69.9281 49.6261 70.9174 48.6524 70.7421C47.6787 70.5669 43.4121 70.8801 43.4121 70.8801L43.7338 63.5053Z" fill="black"/>
<path d="M43.5751 63.2001C43.6538 63.2001 47.6515 62.7944 47.6515 62.7944C47.6515 62.7944 50.0708 67.3891 49.9135 68.5053C49.7562 69.6215 49.466 70.6122 48.4937 70.437C47.5214 70.2617 43.2534 70.5749 43.2534 70.5749L43.5751 63.2001Z" fill="white"/>
<path d="M46.5875 61.0435C46.5875 61.0435 50.2564 62.9462 50.3351 63.527C50.4137 64.1079 48.4677 63.2732 48.0474 63.1724C47.7707 63.1081 47.4891 63.0657 47.2052 63.0455L44.4014 63.1186L46.5875 61.0435Z" fill="#CF6F80"/>
<path opacity="0.1" d="M52.2039 45.6953C52.4171 45.6953 52.59 45.5285 52.59 45.3227C52.59 45.117 52.4171 44.9502 52.2039 44.9502C51.9907 44.9502 51.8179 45.117 51.8179 45.3227C51.8179 45.5285 51.9907 45.6953 52.2039 45.6953Z" fill="black"/>
<path d="M52.2039 45.5434C52.4171 45.5434 52.59 45.3766 52.59 45.1709C52.59 44.9651 52.4171 44.7983 52.2039 44.7983C51.9907 44.7983 51.8179 44.9651 51.8179 45.1709C51.8179 45.3766 51.9907 45.5434 52.2039 45.5434Z" fill="#3F3D56"/>
<path opacity="0.1" d="M52.9144 61.8218C53.1276 61.8218 53.3004 61.655 53.3004 61.4492C53.3004 61.2435 53.1276 61.0767 52.9144 61.0767C52.7012 61.0767 52.5283 61.2435 52.5283 61.4492C52.5283 61.655 52.7012 61.8218 52.9144 61.8218Z" fill="black"/>
<path d="M52.9144 61.6689C53.1276 61.6689 53.3004 61.5021 53.3004 61.2964C53.3004 61.0906 53.1276 60.9238 52.9144 60.9238C52.7012 60.9238 52.5283 61.0906 52.5283 61.2964C52.5283 61.5021 52.7012 61.6689 52.9144 61.6689Z" fill="#3F3D56"/>
<path opacity="0.1" d="M52.5887 53.7583C52.8019 53.7583 52.9747 53.5915 52.9747 53.3857C52.9747 53.18 52.8019 53.0132 52.5887 53.0132C52.3755 53.0132 52.2026 53.18 52.2026 53.3857C52.2026 53.5915 52.3755 53.7583 52.5887 53.7583Z" fill="black"/>
<path d="M52.5887 53.6069C52.8019 53.6069 52.9747 53.4401 52.9747 53.2344C52.9747 53.0286 52.8019 52.8618 52.5887 52.8618C52.3755 52.8618 52.2026 53.0286 52.2026 53.2344C52.2026 53.4401 52.3755 53.6069 52.5887 53.6069Z" fill="#3F3D56"/>
<path d="M61.4876 62.9683C61.4876 62.9683 61.7507 63.3491 61.4876 63.5271C61.2245 63.7051 61.5133 64.1356 61.5133 64.1356C61.5133 64.1356 60.857 64.5067 61.1458 64.8406C61.4347 65.1745 61.2516 66.6826 61.2516 66.6826L60.4624 67.9437C60.4624 67.9437 60.5096 68.7564 60.5124 69.8547C60.5124 71.5684 60.4081 73.9774 59.8304 75.0757L59.9105 84.087C59.9105 84.087 57.1467 85.0611 54.8332 84.7645L54.4901 70.3045C54.4901 70.3045 54.9905 62.1045 55.175 60.5316C55.2829 59.715 55.3269 58.8917 55.3065 58.0687C55.3065 58.0687 55.2279 55.6072 54.9633 54.4648C54.9633 54.4648 54.6774 49.5155 54.6488 48.1454C54.6359 47.49 54.6717 45.5777 54.7117 43.7591C54.756 41.7709 54.8061 39.8958 54.8061 39.8958L54.2842 35.911C54.2842 35.911 54.8061 35.8599 54.9633 36.0628C55.0338 36.1263 55.1104 36.1831 55.1921 36.2325C56.0929 36.8203 59.2757 38.6278 59.2757 38.6278C59.2757 38.6278 61.0372 39.3039 61.459 40.2724C61.8808 41.241 62.1739 41.9282 62.3783 42.2041C62.5828 42.4801 62.6943 43.7771 62.6943 43.7771C62.6943 43.7771 63.3006 46.1641 63.7738 46.5683C64.2471 46.9726 64.5931 49.5445 64.5931 49.5445L60.4109 52.718C60.4109 52.718 60.0435 57.997 59.9648 58.2012C59.8862 58.4054 61.4876 62.9683 61.4876 62.9683Z" fill="white"/>
<path d="M61.6465 62.9687C61.6465 62.9687 61.9082 63.3496 61.6465 63.5275C61.3849 63.7055 61.6708 64.136 61.6708 64.136C61.6708 64.136 61.0188 64.5113 61.3048 64.8452C61.5908 65.1791 61.4106 66.6872 61.4106 66.6872L60.6214 67.9483C60.6214 67.9483 60.6685 68.761 60.6728 69.8593C60.6728 71.573 60.5684 73.9821 59.9908 75.0803L60.0694 84.0916C60.0694 84.0916 57.3013 85.0657 54.9908 84.7691L54.649 70.3091C54.649 70.3091 55.1495 62.1091 55.3339 60.5362C55.442 59.7196 55.4855 58.8963 55.464 58.0733C55.464 58.0733 55.3854 55.6118 55.1223 54.4694C55.1223 54.4694 54.8363 49.5201 54.8063 48.15C54.7934 47.4946 54.8306 45.5823 54.8692 43.7637C54.9135 41.7755 54.9636 39.9004 54.9636 39.9004L54.2744 35.8618C54.2744 35.8618 54.9636 35.8618 55.1223 36.0674C55.1921 36.1317 55.2688 36.1886 55.3511 36.2371C56.2518 36.8249 59.436 38.6324 59.436 38.6324C59.436 38.6324 61.1961 39.3085 61.6179 40.2771C62.0397 41.2457 62.3328 41.9328 62.5387 42.2087C62.7446 42.4847 62.8533 43.7817 62.8533 43.7817C62.8533 43.7817 63.4595 46.1687 63.9328 46.573C64.4061 46.9772 64.7478 49.5436 64.7478 49.5436L60.5656 52.7171C60.5656 52.7171 60.1981 57.9961 60.1181 58.2003C60.038 58.4045 61.6465 62.9687 61.6465 62.9687Z" fill="white"/>
<path opacity="0.1" d="M56.6379 41.0714L57.0153 42.1338L55.0279 44.0655C55.0722 42.0786 55.1223 40.2022 55.1223 40.2022L54.4331 36.1636C54.4331 36.1636 55.1223 36.1636 55.281 36.3692C55.3506 36.4332 55.4273 36.4897 55.5098 36.5375L57.1998 41.2425L56.6379 41.0714Z" fill="black"/>
<path d="M56.4792 40.7667L56.8581 41.8291L54.8706 43.7608C54.915 41.7726 54.965 39.8975 54.965 39.8975L54.2744 35.8589C54.2744 35.8589 54.965 35.8589 55.1223 36.0645C55.1924 36.1283 55.2691 36.1852 55.3511 36.2342L57.0425 40.9378L56.4792 40.7667Z" fill="white"/>
<path opacity="0.1" d="M56.4788 30.2544C56.48 30.7516 56.3989 31.2458 56.2386 31.7184C56.2116 31.7224 56.184 31.7212 56.1575 31.7148C56.131 31.7084 56.106 31.697 56.0842 31.6811C56.047 30.4393 55.4136 29.2734 54.6344 28.2814C54.4156 27.9818 54.1503 27.7166 53.848 27.4949C53.5423 27.2733 53.162 27.1695 52.7813 27.2038C52.3524 27.2603 51.9735 27.5418 51.5402 27.5777C50.9683 27.6232 50.4564 27.241 49.8888 27.2217C49.658 27.2238 49.4304 27.2734 49.2211 27.3671C49.0117 27.4609 48.8255 27.5966 48.6749 27.7653C48.3767 28.1058 48.1551 28.5023 48.0243 28.9298C47.7995 29.5781 47.6771 30.2553 47.6612 30.9388C47.654 31.3251 47.6154 31.8094 47.2436 31.9502C47.2716 31.666 47.2382 31.3794 47.1454 31.1084C47.0526 30.8374 46.9025 30.5879 46.7046 30.3758L46.696 30.3676C46.696 30.3289 46.696 30.2931 46.696 30.2544C46.6849 29.6277 46.8033 29.0051 47.0441 28.4229C47.285 27.8408 47.6436 27.3107 48.0989 26.8637C48.5543 26.4167 49.0974 26.0617 49.6964 25.8193C50.2955 25.577 50.9386 25.4521 51.5881 25.4521C52.2377 25.4521 52.8808 25.577 53.4798 25.8193C54.0789 26.0617 54.622 26.4167 55.0773 26.8637C55.5327 27.3107 55.8913 27.8408 56.1322 28.4229C56.373 29.0051 56.4914 29.6277 56.4803 30.2544H56.4788Z" fill="black"/>
<path d="M53.6135 22.7579C52.8705 22.4207 52.0254 22.3569 51.2371 22.5786C50.8411 22.6917 50.4679 22.8752 50.0661 22.9676C49.2082 23.1677 48.2073 22.9511 47.471 23.4354C47.0621 23.7113 46.8161 24.1474 46.5874 24.5709L46.0154 25.6223C45.7037 26.1977 45.3892 26.7827 45.2591 27.416C45.1289 28.0493 45.2076 28.7585 45.6237 29.2677C45.9268 29.6388 46.3743 29.872 46.7032 30.2211C46.9002 30.4334 47.0496 30.6827 47.1421 30.9534C47.2347 31.2241 47.2682 31.5103 47.2408 31.794C47.614 31.6561 47.6497 31.1704 47.6583 30.784C47.6742 30.1006 47.7967 29.4234 48.0215 28.7751C48.152 28.3475 48.3735 27.9508 48.672 27.6106C48.8228 27.442 49.009 27.3064 49.2183 27.2126C49.4276 27.1189 49.6552 27.0692 49.8859 27.0669C50.4579 27.0863 50.9712 27.4671 51.5374 27.4215C51.9663 27.387 52.3466 27.1042 52.7785 27.049C53.1592 27.0142 53.5396 27.1181 53.8451 27.3401C54.1474 27.5615 54.4122 27.8268 54.6301 28.1266C55.4107 29.1187 56.0441 30.2818 56.0813 31.5264C56.2429 31.6409 56.4759 31.4919 56.556 31.3153C56.6361 31.1386 56.6389 30.9317 56.7405 30.7633C56.8577 30.5688 57.0822 30.4653 57.2581 30.3191C57.7042 29.9479 57.8157 29.3229 57.7985 28.7558C57.7814 28.1887 57.667 27.6133 57.7785 27.0559C57.8457 26.7137 57.9973 26.3936 58.0802 26.0556C58.1631 25.7175 58.1731 25.3381 57.9773 25.047C57.6913 24.6192 57.0893 24.5351 56.5646 24.4951C55.9684 24.4454 55.435 24.5089 55.0547 24.0246C54.8762 23.7718 54.6753 23.5345 54.4542 23.3153C54.3784 23.2436 53.6135 22.7883 53.6135 22.7579Z" fill="#512E4E"/>
<path opacity="0.1" d="M38.0729 51.8542L36.5787 49.1885L36.1055 53.3016C36.1055 53.3016 36.3686 55.1284 36.3157 55.4085C36.2627 55.6886 37.3937 58.1997 37.3937 58.1997C37.3937 58.1997 41.1298 64.6212 42.6554 64.9523L47.8099 61.398L46.443 59.723C46.443 59.723 45.9697 59.545 45.8511 59.723C45.8511 59.723 43.3131 55.5092 43.0501 55.2043C42.787 54.8993 42.8385 54.2909 42.8385 54.2909C42.8385 54.2909 42.4438 53.8852 42.5754 53.5044C42.7069 53.1236 41.8133 51.8031 41.8133 51.8031L42.6283 51.0677L38.0729 51.8542Z" fill="black"/>
<path d="M36.6574 48.8853L36.2628 49.1888L35.7896 53.3019C35.7896 53.3019 36.0526 55.1287 35.9997 55.4088C35.9468 55.6889 37.0792 58.2001 37.0792 58.2001C37.0792 58.2001 40.8139 64.6215 42.3395 64.9527L47.4954 61.3984L46.1271 59.7233C46.1271 59.7233 45.6538 59.5454 45.5352 59.7233C45.5352 59.7233 42.9972 55.5095 42.7341 55.2046C42.4711 54.8997 42.524 54.2912 42.524 54.2912C42.524 54.2912 42.1293 53.8855 42.2609 53.5047C42.3924 53.1239 41.4974 51.8035 41.4974 51.8035L42.3124 51.068L36.6574 48.8853Z" fill="white"/>
<path opacity="0.1" d="M61.146 64.9984C61.432 65.3337 61.2519 66.839 61.2519 66.839L60.4626 68.1001C60.4626 68.1001 60.5098 68.9142 60.5126 70.0111L59.1858 70.4112C59.0659 70.4474 58.9387 70.4553 58.815 70.4344C58.6912 70.4135 58.5745 70.3643 58.4744 70.291C58.3744 70.2177 58.294 70.1223 58.2399 70.0129C58.1858 69.9035 58.1596 69.7832 58.1635 69.662L58.3922 62.541L61.4878 63.6835C61.2247 63.8601 61.5135 64.2933 61.5135 64.2933C61.5135 64.2933 60.8572 64.6631 61.146 64.9984Z" fill="black"/>
<path d="M61.3047 64.8451C61.5906 65.1804 61.4105 66.6871 61.4105 66.6871L60.6212 67.9483C60.6212 67.9483 60.6684 68.7609 60.6727 69.8592L59.3215 70.2663C59.2041 70.3015 59.0796 70.3091 58.9585 70.2885C58.8374 70.268 58.7231 70.2198 58.6252 70.148C58.5273 70.0761 58.4486 69.9828 58.3956 69.8757C58.3426 69.7686 58.3169 69.6508 58.3207 69.5322L58.5509 62.3892L61.6478 63.5316C61.3833 63.7082 61.6721 64.1401 61.6721 64.1401C61.6721 64.1401 61.0187 64.5112 61.3047 64.8451Z" fill="white"/>
<path d="M62.33 61.4509C62.33 61.4509 62.1198 62.7465 61.5936 62.8223C61.0674 62.8982 60.8315 64.9182 60.3068 64.8465C59.782 64.7747 60.1295 62.9686 60.1481 62.6181C60.1666 62.2677 59.5761 60.8162 60.0179 60.4864C60.4598 60.1566 61.8581 60.4864 61.8581 60.4864L62.33 61.4509Z" fill="#CF6F80"/>
<path opacity="0.1" d="M63.4493 51.4737L64.4416 49.542C64.4416 49.542 64.8362 51.0142 64.8362 51.8007C64.8362 52.5871 65.3881 52.6644 65.3881 52.6644C65.3881 52.6644 65.9929 53.3543 65.6741 53.8565C65.3552 54.3588 65.2265 55.6088 65.2265 55.6088C65.2265 55.6088 65.3309 57.9944 64.8577 58.3242C64.3844 58.654 64.2857 59.4418 64.2857 59.4418C64.2857 59.4418 63.4164 60.9389 63.4436 61.2949C63.4707 61.6508 62.234 64.0613 62.234 64.0613C62.234 64.0613 62.8388 61.0658 59.3143 59.7716C59.3143 59.7716 59.2871 58.7547 59.5502 58.476C59.8133 58.1973 60.2236 58.0703 59.9663 56.6616C59.7089 55.2529 59.8919 53.5695 59.8919 53.2315C59.8919 52.8934 60.6812 50.7852 60.6812 50.7852L63.4493 51.4737Z" fill="black"/>
<path d="M63.8786 49.2661L64.7451 49.5421C64.7451 49.5421 65.1411 51.0143 65.1411 51.8007C65.1411 52.5872 65.693 52.6645 65.693 52.6645C65.693 52.6645 66.2978 53.3544 65.979 53.8566C65.6601 54.3588 65.5329 55.6089 65.5329 55.6089C65.5329 55.6089 65.6373 57.9945 65.164 58.3243C64.6907 58.6541 64.5849 59.4419 64.5849 59.4419C64.5849 59.4419 63.717 60.939 63.7442 61.2949C63.7714 61.6509 62.5331 64.0614 62.5331 64.0614C62.5331 64.0614 63.1394 61.0659 59.6135 59.7717C59.6135 59.7717 59.5877 58.7548 59.8508 58.4761C60.1139 58.1974 60.5243 58.0704 60.2669 56.6617C60.0095 55.2529 60.1926 53.5696 60.1926 53.2316C60.1926 52.8935 60.9818 50.7852 60.9818 50.7852L63.8786 49.2661Z" fill="white"/>
<path opacity="0.1" d="M44.7402 99.3339C44.7402 99.3339 46.1214 98.4964 47.0279 99.1049C47.9344 99.7134 44.7402 99.3339 44.7402 99.3339Z" fill="black"/>
<path opacity="0.1" d="M55.4727 96.7438C55.4727 96.7438 56.6951 96.592 57.7218 97.6586C58.7484 98.7251 55.4727 96.7438 55.4727 96.7438Z" fill="black"/>
<g opacity="0.1">
<path opacity="0.1" d="M57.261 30.0169C57.0851 30.1632 56.8592 30.2681 56.742 30.4626C56.6419 30.6296 56.639 30.8351 56.559 31.0145C56.4789 31.1939 56.2458 31.3401 56.0843 31.227C56.0471 29.9852 55.4122 28.8193 54.633 27.8259C54.4151 27.5261 54.1503 27.2607 53.848 27.0394C53.542 26.8174 53.1611 26.7136 52.78 26.7483C52.351 26.8048 51.9735 27.0863 51.5403 27.1208C50.9684 27.1677 50.4551 26.7855 49.8874 26.7662C49.6568 26.7684 49.4293 26.8182 49.2201 26.9122C49.011 27.0062 48.8251 27.1422 48.675 27.3112C48.3765 27.6509 48.1549 28.0471 48.0244 28.4744C47.7997 29.1227 47.6773 29.7999 47.6612 30.4833C47.6526 30.8682 47.6155 31.3484 47.2466 31.4919C47.2552 31.5938 47.2552 31.6963 47.2466 31.7982C47.6183 31.6602 47.6555 31.1746 47.6641 30.7882C47.68 30.1048 47.8025 29.4276 48.0273 28.7793C48.1578 28.3516 48.3793 27.955 48.6778 27.6148C48.8283 27.4462 49.0143 27.3106 49.2234 27.2169C49.4324 27.1231 49.6598 27.0734 49.8903 27.0711C50.4622 27.0904 50.977 27.4713 51.5432 27.4257C51.9721 27.3912 52.3524 27.1084 52.7828 27.0532C53.164 27.0185 53.5449 27.1223 53.8509 27.3443C54.1532 27.5657 54.418 27.831 54.6359 28.1308C55.4151 29.1228 56.0499 30.286 56.0871 31.5305C56.2487 31.6451 56.4817 31.496 56.5618 31.3194C56.6419 31.1428 56.6447 30.9359 56.7448 30.7675C56.8621 30.573 57.088 30.4695 57.2639 30.3232C57.71 29.9521 57.8215 29.3271 57.8043 28.76C57.8043 28.742 57.8043 28.7241 57.8043 28.7075C57.7772 29.1987 57.6413 29.6996 57.261 30.0169Z" fill="black"/>
<path opacity="0.1" d="M46.7061 29.9185C46.3773 29.5694 45.9283 29.3362 45.6266 28.9665C45.3726 28.6391 45.2275 28.2451 45.2106 27.8364C45.1656 28.3471 45.3133 28.8562 45.6266 29.27C45.9283 29.6412 46.3773 29.8743 46.7061 30.2234C47.0219 30.5649 47.2115 30.9977 47.2452 31.4542C47.2671 31.1764 47.2306 30.8972 47.138 30.6333C47.0454 30.3694 46.8985 30.1263 46.7061 29.9185Z" fill="black"/>
<path opacity="0.1" d="M58.083 25.7532C57.9986 26.0912 57.8485 26.4127 57.7799 26.7535C57.7392 26.9812 57.7244 27.2126 57.7355 27.4434C57.7403 27.3119 57.7551 27.1809 57.7799 27.0515C57.8485 26.7094 57.9986 26.3892 58.083 26.0512C58.1322 25.8648 58.1481 25.6716 58.1302 25.48C58.1213 25.572 58.1055 25.6633 58.083 25.7532Z" fill="black"/>
</g>
<path opacity="0.1" d="M18.978 104.944C26.6725 104.944 32.9101 103.977 32.9101 102.784C32.9101 101.592 26.6725 100.625 18.978 100.625C11.2835 100.625 5.0459 101.592 5.0459 102.784C5.0459 103.977 11.2835 104.944 18.978 104.944Z" fill="#FF8811"/>
<path d="M19.4268 61.4189H18.5303V80.8971H19.4268V61.4189Z" fill="#535461"/>
<path d="M25.0606 80.8379L25.0048 81.7155L24.9247 82.9573L24.8919 83.4733L24.8132 84.7151L24.7789 85.2311L24.6988 86.4729L23.7952 100.556C23.7559 101.162 23.4788 101.731 23.0204 102.147C22.5619 102.562 21.9565 102.794 21.3273 102.794H16.629C16 102.794 15.3947 102.562 14.9365 102.147C14.4782 101.731 14.2015 101.162 14.1625 100.556L13.2632 86.4633L13.1831 85.2215L13.1502 84.7054L13.0702 83.4636L13.0373 82.9476L12.9572 81.7058L12.9 80.8283C12.8901 80.6594 12.916 80.4903 12.9762 80.3314C13.0364 80.1725 13.1296 80.0272 13.2501 79.9043C13.3706 79.7815 13.5159 79.6837 13.677 79.6169C13.838 79.5501 14.0115 79.5158 14.1868 79.5161H23.7966C23.9713 79.5176 24.1437 79.5535 24.3034 79.6218C24.4631 79.6901 24.6066 79.7892 24.725 79.9131C24.8435 80.0369 24.9343 80.1829 24.992 80.342C25.0498 80.501 25.0731 80.6698 25.0606 80.8379Z" fill="#3F3D56"/>
<path d="M25.0045 81.7153L24.9244 82.953H13.0312L12.9512 81.7153H25.0045Z" fill="#9D9CB5"/>
<path d="M24.8914 83.4692L24.8127 84.7083H13.144L13.064 83.4692H24.8914Z" fill="#9D9CB5"/>
<path d="M24.7787 85.2256L24.7001 86.4632H13.2573L13.1772 85.2256H24.7787Z" fill="#9D9CB5"/>
<path d="M11.5832 68.7195C16.8035 72.3648 18.9825 78.066 18.9825 78.066C18.9825 78.066 12.6913 77.8577 7.46966 74.2124C2.24799 70.567 0.0732422 64.8672 0.0732422 64.8672C0.0732422 64.8672 6.36156 65.0742 11.5832 68.7195Z" fill="#FF8811"/>
<path d="M0.0688477 64.8672C0.0688477 64.8672 6.60023 68.3649 8.69491 71.261C10.7896 74.1572 18.9824 78.066 18.9824 78.066" stroke="#535461" stroke-width="2" stroke-miterlimit="10"/>
<path d="M14.9529 61.3761C17.794 63.3588 18.9821 66.4619 18.9821 66.4619C18.9821 66.4619 15.5577 66.3487 12.7153 64.366C9.87281 62.3833 8.6875 59.2788 8.6875 59.2788C8.6875 59.2788 12.1105 59.3919 14.9529 61.3761Z" fill="#FF8811"/>
<path d="M8.6875 59.2788C8.6875 59.2788 12.242 61.1829 13.3816 62.7586C14.5211 64.3343 18.9821 66.4619 18.9821 66.4619" stroke="#535461" stroke-width="2" stroke-miterlimit="10"/>
<path d="M23.1072 66.3047C19.8429 69.7665 19.1523 74.2908 19.1523 74.2908C19.1523 74.2908 23.7549 73.2008 27.0163 69.7376C30.2777 66.2743 30.9712 61.7515 30.9712 61.7515C30.9712 61.7515 26.3715 62.8429 23.1072 66.3047Z" fill="#FF8811"/>
<path d="M30.974 61.7529C30.974 61.7529 26.7218 65.3017 25.6408 67.7466C24.5599 70.1916 19.1523 74.2909 19.1523 74.2909" stroke="#535461" stroke-width="2" stroke-miterlimit="10"/>
<path d="M142.934 65.0861C142.934 65.0861 140.573 53.7527 141.477 52.3426C141.477 52.3426 141.51 51.0318 141.456 49.3609C141.456 49.2974 141.456 49.234 141.456 49.1691C141.615 49.2714 141.78 49.3636 141.952 49.4451C142.784 49.8578 143.74 49.9769 144.654 49.7817L143.939 49.0132C143.768 48.8297 143.589 48.631 143.552 48.3882C143.514 48.1453 143.617 47.9287 143.706 47.7121C144.385 46.0563 144.421 43.9743 143.113 42.7104C142.007 41.648 141.739 40.2765 140.539 39.3065C139.663 38.5959 139.181 37.5542 138.726 36.547C138.341 35.6957 137.954 34.8374 137.734 33.9351C137.562 33.23 137.494 32.5001 137.258 31.8116C137.022 31.1231 136.58 30.4539 135.889 30.1462C135.643 30.0372 135.37 29.9751 135.146 29.8303C134.851 29.6385 134.674 29.3267 134.461 29.0535C133.379 27.6737 129.754 28.4864 128.038 29.0466C127.572 29.1876 127.14 29.4186 126.769 29.7254L126.784 29.7006C126.797 29.6799 126.813 29.6592 126.827 29.6385C126.639 29.785 126.477 29.9597 126.347 30.1559C126.097 30.5381 125.992 30.9838 125.783 31.3977C125.532 31.8875 124.132 33.2549 124.734 33.8054C124.776 33.8424 124.824 33.8722 124.877 33.8937C125.103 33.9844 125.352 34.0085 125.592 33.9627L125.566 34.022C125.36 34.5077 125.255 35.0275 125.256 35.5522C125.256 37.8191 127.193 39.657 129.585 39.657C130.035 39.6574 130.482 39.5908 130.911 39.4597C130.921 39.5121 130.929 39.5645 130.939 39.617C130.939 39.6377 130.946 39.6584 130.949 39.6791L130.874 39.7812C130.87 39.7749 130.865 39.7689 130.861 39.7632L128.616 42.7904C128.273 43.0236 126.297 44.4034 126.185 45.4382C126.068 46.571 125.951 47.897 125.951 47.897L125.935 48.1812C125.837 48.2603 125.722 48.3179 125.599 48.3501C125.475 48.3822 125.346 48.3882 125.22 48.3675C124.519 48.2571 124.519 50.851 124.519 50.851C124.519 50.851 124.053 51.265 123.733 50.9062C123.413 50.5475 122.566 51.7631 122.566 51.7631L117.262 51.9838L117.14 51.9907L116.854 51.1367C116.823 51.0466 116.757 50.9718 116.67 50.9287C116.582 50.8855 116.48 50.8775 116.387 50.9062C116.364 50.9133 116.343 50.922 116.322 50.9324L116.302 50.9435L116.265 50.9683L116.247 50.9849C116.236 50.9939 116.227 51.0035 116.218 51.0139L116.201 51.0332L116.192 51.0415C116.159 51.0855 116.137 51.1364 116.128 51.1901C116.119 51.2438 116.124 51.2987 116.141 51.3505L116.387 52.0832C115.363 52.2819 114.316 52.8421 115.17 54.3846L110.843 53.6133L112.243 54.7475L119.469 56.1866C119.374 56.3522 119.436 56.5923 119.735 56.9303C121.022 58.3887 123.367 58.7847 124.311 58.8868C124.56 59.4248 124.871 59.9339 125.239 60.4046L125.157 61.8575C125.157 61.8575 122.768 72.9315 122.33 73.493C122.551 73.2515 122.753 72.9947 122.935 72.7245C122.242 74.9998 121.272 78.1139 121.018 78.5803C120.609 79.3253 120.23 82.3401 120.696 82.5333C120.839 82.5926 121.248 82.5636 121.831 82.5209V82.7706L121.806 92.2344C121.806 92.2344 121.923 98.0391 121.601 98.5924C121.279 99.1457 121.194 100.306 121.194 100.306C121.194 100.306 119.907 102.595 118.887 103.515C118.88 103.523 118.873 103.529 118.865 103.535L118.833 103.32C118.833 103.32 117.608 104.812 114.897 104.728C114.897 104.728 113.265 105.752 115.685 105.807C118.104 105.862 121.194 105.724 121.194 105.724C121.194 105.724 123.351 102.551 125.159 102.965V105.37H125.712V102.926C125.968 102.763 126.188 102.552 126.357 102.304C126.527 102.057 126.642 101.779 126.697 101.487C126.744 101.186 126.71 100.879 126.596 100.595C126.483 100.311 126.295 100.061 126.051 99.8687C125.941 99.773 125.853 99.6564 125.792 99.5263C125.731 99.3962 125.699 99.2553 125.698 99.1126L125.678 99.1292C125.678 99.0809 125.665 99.0312 125.659 98.9801C125.5 97.7383 125.302 95.1761 126.004 93.2803C126.966 90.6808 127.258 87.0603 126.557 84.9051C126.331 84.2162 126.145 83.5155 126.001 82.8065C125.984 82.7168 125.968 82.6313 125.954 82.5512C126.432 82.6138 126.907 82.7059 127.373 82.8272C128.996 83.259 132.546 83.3391 135.578 83.3156C135.585 83.3956 135.593 83.4798 135.603 83.564C135.657 84.149 135.77 84.7276 135.941 85.2914C136.321 86.3953 136.496 91.2617 136.496 91.2617C136.496 91.2617 136.986 95.263 136.719 96.8912C136.576 97.7963 136.433 98.7056 136.351 99.619V99.6369C136.351 99.6369 135.548 101.845 134.96 103.044C134.946 103.074 134.93 103.104 134.916 103.133C134.759 103.147 134.605 103.18 134.457 103.231C134.457 103.231 133.669 104.749 132.884 105C132.099 105.251 132.359 106.078 134.136 105.774C135.914 105.471 138.597 105.222 138.597 105.222L138.713 103.674L139.259 103.015L139.116 104.559L139.698 104.448L139.621 102.57L140.515 101.491C140.515 101.491 141.594 100.564 139.99 98.7401V98.7801C139.973 98.7539 139.957 98.7262 139.939 98.7V98.6918C139.673 98.2944 139.461 97.5535 139.848 96.2385C140.549 93.8626 140.957 91.706 140.957 91.706C140.957 91.706 142.521 85.9289 140.641 83.1956H140.723C140.531 82.811 140.395 82.4023 140.319 81.9814C140.309 81.9317 140.301 81.8807 140.293 81.8282C141.684 81.751 143.05 81.5081 144.164 80.9838C144.159 80.9783 143.489 67.2689 142.934 65.0861ZM125.271 55.5243V55.5519L124.986 55.5657L125.271 55.5243ZM124.291 55.6554C124.244 55.6655 124.2 55.6857 124.162 55.7147C124.039 55.8826 123.962 56.0776 123.937 56.2818L123.491 56.1852C123.491 56.1852 123.178 56.1204 122.728 56.0473L122.515 55.8403C123.101 55.7934 123.71 55.7244 124.291 55.6554Z" fill="url(#paint1_linear)"/>
<path d="M139.051 102.59L138.88 104.545L139.451 104.435L139.365 102.314L139.051 102.59Z" fill="#1D2366"/>
<path d="M126.035 93.3066C125.347 95.1969 125.542 97.7481 125.696 98.9871C125.753 99.4452 125.806 99.7239 125.806 99.7239C125.806 99.7239 124.778 101.984 124.692 102.07C124.607 102.155 121.667 103.887 121.667 103.887L119.612 105.044C119.612 105.044 117.528 104.163 118.527 103.859C118.731 103.78 118.915 103.659 119.066 103.504C120.067 102.587 121.324 100.306 121.324 100.306C121.324 100.306 121.41 99.1486 121.724 98.598C122.039 98.0475 121.924 92.2621 121.924 92.2621L121.949 82.8314V81.6021L125.859 81.6296C125.884 82.047 125.94 82.4621 126.028 82.8714C126.168 83.5781 126.35 84.2764 126.573 84.9632C127.262 87.1142 126.976 90.7168 126.035 93.3066Z" fill="#FFB0B1"/>
<path opacity="0.1" d="M125.806 99.7243C125.806 99.7243 124.778 101.984 124.692 102.07C124.607 102.155 121.667 103.887 121.667 103.887L119.612 105.045C119.612 105.045 117.528 104.163 118.527 103.859C118.731 103.78 118.915 103.659 119.066 103.505L119.155 104.108L119.84 104.08L125.702 98.9902C125.753 99.4456 125.806 99.7243 125.806 99.7243Z" fill="black"/>
<path d="M125.735 99.1187L119.84 104.243L119.155 104.271L119.012 103.305C119.012 103.305 117.814 104.792 115.151 104.709C115.151 104.709 113.553 105.729 115.922 105.784C118.291 105.839 121.317 105.702 121.317 105.702C121.317 105.702 123.43 102.528 125.199 102.942V105.339H125.742V102.92C125.995 102.756 126.21 102.544 126.376 102.297C126.541 102.051 126.654 101.774 126.706 101.485C126.753 101.187 126.719 100.882 126.609 100.6C126.499 100.317 126.315 100.067 126.075 99.8734C125.968 99.7766 125.883 99.6597 125.824 99.5299C125.766 99.4001 125.735 99.2602 125.735 99.1187Z" fill="#1D2366"/>
<path d="M139.594 96.254C139.213 97.5648 139.421 98.303 139.681 98.699V98.7073C140.015 99.1962 140.247 99.7431 140.364 100.317L140.387 100.442L137.705 104.215L136.249 104.767C136.249 104.767 133.909 103.996 134.336 103.775C134.444 103.721 134.611 103.434 134.802 103.038C135.374 101.845 136.164 99.6428 136.164 99.6428V99.6248C136.247 98.7156 136.378 97.809 136.524 96.9067C136.786 95.2827 136.305 91.2965 136.305 91.2965C136.305 91.2965 136.134 86.4494 135.762 85.347C135.594 84.7865 135.482 84.2117 135.429 83.6305C135.351 82.9407 135.334 82.3722 135.334 82.3722C135.334 82.3722 136.876 80.3025 139.701 82.5378C139.927 82.716 140.126 82.9241 140.291 83.1559C142.243 85.8354 140.672 91.7381 140.672 91.7381C140.672 91.7381 140.279 93.885 139.594 96.254Z" fill="#FFB0B1"/>
<path opacity="0.1" d="M140.392 100.442L137.709 104.215L136.254 104.767C136.254 104.767 133.913 103.996 134.341 103.775C134.448 103.721 134.615 103.434 134.807 103.038C135.798 103.03 136.311 103.941 136.311 103.941L137.566 103.748C137.566 103.748 139.222 100.607 139.594 100.416C139.966 100.224 139.651 98.982 139.651 98.982V98.666C139.661 98.6771 139.67 98.6895 139.681 98.7005V98.7088C140.015 99.1977 140.247 99.7446 140.365 100.319L140.392 100.442Z" fill="black"/>
<path d="M136.397 104.022C136.397 104.022 135.682 102.756 134.312 103.223C134.312 103.223 133.541 104.741 132.771 104.987C132 105.232 132.257 106.06 133.999 105.758C135.74 105.456 138.366 105.206 138.366 105.206L138.48 103.662L140.25 101.486C140.25 101.486 141.305 100.563 139.735 98.7461V99.0621C139.735 99.0621 140.05 100.304 139.678 100.496C139.306 100.687 137.656 103.829 137.656 103.829L136.397 104.022Z" fill="#1D2366"/>
<path opacity="0.1" d="M125.864 81.6272C125.888 82.0446 125.945 82.4596 126.032 82.869C124.422 82.6413 122.928 82.7545 121.949 82.829V81.5996L125.864 81.6272Z" fill="black"/>
<path opacity="0.1" d="M140.45 83.4994C140.45 83.4994 138.163 83.607 135.435 83.6291C135.357 82.9392 135.34 82.3707 135.34 82.3707C135.34 82.3707 136.882 80.3011 139.707 82.5363C139.933 82.7146 140.132 82.9227 140.297 83.1544C140.342 83.2721 140.393 83.3872 140.45 83.4994Z" fill="black"/>
<path d="M140.45 83.2513C140.45 83.2513 130.43 83.719 127.376 82.8926C124.322 82.0661 121.295 82.7822 120.839 82.5904C120.383 82.3986 120.753 79.3948 121.154 78.6511C121.554 77.9074 123.75 70.3863 123.75 70.3863L125.863 59.7538L128.09 59.1619L128.247 59.1191L132.126 58.0871L134.968 57.3296C134.968 57.3296 140.621 78.6236 140.136 80.1937C139.96 80.795 139.931 81.4275 140.053 82.0412C140.127 82.4603 140.261 82.8676 140.45 83.2513Z" fill="#1D2366"/>
<path d="M118.497 52.4824C118.497 52.4824 116.495 54.5521 118.011 55.7056C119.527 56.859 120.523 55.8159 120.523 55.8159L118.497 52.4824Z" fill="#C7DAF5"/>
<path opacity="0.1" d="M118.497 52.4824C118.497 52.4824 116.495 54.5521 118.011 55.7056C119.527 56.859 120.523 55.8159 120.523 55.8159L118.497 52.4824Z" fill="black"/>
<path d="M134.67 38.8751C134.67 38.8751 134.435 39.0903 134.082 39.4077C133.579 39.8616 132.834 40.5253 132.174 41.0813C131.258 41.8499 130.504 42.4142 130.774 41.9326C131.044 41.4511 130.993 40.6122 130.858 39.8271C130.848 39.7747 130.84 39.7223 130.83 39.6712C130.718 39.0946 130.571 38.5251 130.388 37.9658C130.388 37.9658 131.866 36.1224 132.684 35.3953C132.989 35.1194 133.202 35.0062 133.214 35.198C133.229 35.456 133.429 36.0259 133.678 36.6302C133.685 36.6495 133.692 36.6675 133.701 36.6868C133.866 37.1007 134.054 37.5257 134.218 37.8927C134.47 38.4556 134.67 38.8751 134.67 38.8751Z" fill="#FFB0B1"/>
<path opacity="0.1" d="M133.701 36.6866C133.562 37.4077 133.225 38.0796 132.725 38.632C132.224 39.1845 131.58 39.5971 130.858 39.827C130.744 39.1971 130.587 38.5753 130.388 37.9657C130.388 37.9657 133.172 34.4955 133.214 35.1978C133.224 35.4641 133.442 36.0547 133.701 36.6866Z" fill="black"/>
<path opacity="0.1" d="M130.58 40.754L130.941 40.2642C130.941 40.2642 131.179 41.6688 132.057 41.0492C132.935 40.4297 132.978 45.7115 132.978 45.7115L132.036 59.3063L125.227 58.9131L125.42 52.344L126.191 49.0326L128.097 44.2186L129.231 42.6277L130.58 40.754Z" fill="black"/>
<path d="M132.978 45.796L132.12 58.0884L132.03 59.3909L128.234 59.1715L128.091 59.1632L125.231 58.9976L125.424 52.4272L126.195 49.1157L128.101 44.3017L129.235 42.7109L130.585 40.8302L130.945 40.3418C130.945 40.3418 131.184 41.7464 132.062 41.1269L132.08 41.1145C132.938 40.5902 132.978 45.796 132.978 45.796Z" fill="#1D2366"/>
<path d="M126.291 47.9648C126.291 47.9648 125.949 48.6547 125.263 48.543C124.577 48.4312 124.578 51.0265 124.578 51.0265C124.578 51.0265 124.122 51.4405 123.808 51.0817C123.493 50.723 122.664 51.9358 122.664 51.9358L117.468 52.1566C117.468 52.1566 119.78 53.1762 119.327 56.2614C119.327 56.2614 127.176 55.7923 127.434 55.0762C127.691 54.3601 126.291 47.9648 126.291 47.9648Z" fill="white"/>
<path opacity="0.03" d="M126.291 47.9648C126.291 47.9648 125.949 48.6547 125.263 48.543C124.577 48.4312 124.578 51.0265 124.578 51.0265C124.578 51.0265 124.122 51.4405 123.808 51.0817C123.493 50.723 122.664 51.9358 122.664 51.9358L117.468 52.1566C117.468 52.1566 119.78 53.1762 119.327 56.2614C119.327 56.2614 127.176 55.7923 127.434 55.0762C127.691 54.3601 126.291 47.9648 126.291 47.9648Z" fill="black"/>
<path d="M111.191 53.7778L112.561 54.9065L123.836 57.1927L122.438 55.8157L111.191 53.7778Z" fill="white"/>
<path d="M130.602 41.189C130.414 41.465 129.878 42.8778 129.431 44.1114C129.058 45.1393 128.746 46.043 128.746 46.043C128.746 46.043 128.018 50.6156 127.646 51.4421C127.275 52.2686 127.476 55.4917 127.476 55.4917L126.091 63.4516C126.091 63.4516 125.463 67.5564 124.494 70.0082C123.537 72.4215 122.472 73.5529 122.439 73.5887C122.868 73.0285 125.206 61.9987 125.206 61.9987L125.978 48.0879C125.978 48.0879 126.091 46.766 126.205 45.636C126.319 44.506 128.636 42.9634 128.636 42.9634L130.869 39.8989C131.094 40.1887 130.943 40.6937 130.602 41.189Z" fill="white"/>
<path d="M124.778 59.0665C124.778 59.0665 121.49 58.9286 119.897 57.0824C118.304 55.2363 123.579 56.3456 123.579 56.3456L124.95 56.6492L124.778 59.0665Z" fill="#FFB0B1"/>
<path opacity="0.1" d="M140.136 80.1947C139.96 80.7959 139.932 81.4285 140.053 82.0422C136.466 82.2878 132.628 81.3523 132.628 81.3523C131.913 81.987 130.03 82.9225 130.03 82.9225L129.003 70.6425C128.347 68.9868 128.09 60.3122 128.09 60.3122C128.09 60.3122 128.148 59.8583 128.233 59.178C128.233 59.1615 128.233 59.1435 128.24 59.127C128.496 57.227 129.003 53.6603 129.252 53.1788C129.595 52.5165 128.197 50.7545 128.197 50.7545L128.833 45.5183L128.911 44.8864C130.252 44.3083 131.28 42.4621 131.28 42.4621L132.069 41.1279C132.927 40.5967 132.971 45.8026 132.971 45.8026L132.113 58.0949L134.956 57.3374C134.956 57.3374 140.621 78.6245 140.136 80.1947Z" fill="black"/>
<path d="M143.818 81.0437C139.907 82.9174 132.799 81.1817 132.799 81.1817C132.085 81.8164 130.201 82.7519 130.201 82.7519L129.173 70.4719C128.519 68.8162 128.261 60.1416 128.261 60.1416C128.261 60.1416 129.088 53.6691 129.431 53.0082C129.531 52.815 129.482 52.528 129.364 52.219C128.78 50.7479 128.566 49.1645 128.737 47.5981L129.012 45.3477L129.088 44.7172C130.43 44.1377 131.458 42.2915 131.458 42.2915L132.173 41.0828L133.489 38.8559L134.112 37.8018L134.218 37.8942L135.026 38.6006C135.026 38.6006 135.369 38.8766 135.884 39.2905C137.003 40.2012 138.938 41.8045 139.936 42.7855C140.814 43.6492 141.091 47.009 141.171 49.5381C141.224 51.2034 141.192 52.5087 141.192 52.5087C140.307 53.9147 142.622 65.2026 142.622 65.2026C143.161 67.384 143.818 81.0437 143.818 81.0437Z" fill="white"/>
<path opacity="0.03" d="M136.311 42.2635C136.311 42.2635 133.627 47.1934 133.939 49.0671C134.251 50.9408 135.137 53.0615 134.71 53.5569C134.563 53.7445 134.373 53.8969 134.155 54.0019C133.937 54.107 133.697 54.162 133.453 54.1626C133.024 54.1902 131.88 54.9615 131.88 55.0443C131.88 55.127 130.824 55.127 129.879 55.5134C128.933 55.8997 127.538 56.1191 127.538 56.1191C127.538 56.1191 124.821 56.0363 124.568 56.2847C124.315 56.533 124.055 58.019 124.597 59.2043C125.139 60.3895 125.741 61.2739 126.195 61.4353C126.65 61.5968 129.535 60.6641 131.876 60.4433C134.217 60.2225 136.757 58.433 136.757 58.433C136.757 58.433 139.555 57.4671 140.046 55.8431C140.536 54.2192 139.447 45.2934 139.447 45.2934C139.447 45.2934 138.623 41.1334 136.311 42.2635Z" fill="black"/>
<path opacity="0.03" d="M135.968 41.85C135.968 41.85 133.284 46.7813 133.599 48.6536C133.913 50.526 134.797 52.6481 134.368 53.1448C134.221 53.3326 134.032 53.4852 133.814 53.5903C133.596 53.6954 133.356 53.7502 133.112 53.7505C132.683 53.7781 131.54 54.5494 131.54 54.6322C131.54 54.7149 130.483 54.715 129.538 55.0999C128.593 55.4849 127.197 55.7056 127.197 55.7056C127.197 55.7056 124.481 55.6228 124.229 55.8712C123.977 56.1196 123.714 57.6069 124.258 58.7908C124.801 59.9746 125.401 60.8604 125.856 61.0219C126.311 61.1833 129.196 60.2506 131.537 60.0312C133.877 59.8118 136.418 58.0195 136.418 58.0195C136.418 58.0195 139.215 57.0537 139.7 55.4311C140.184 53.8084 139.1 44.88 139.1 44.88C139.1 44.88 138.28 40.7213 135.968 41.85Z" fill="black"/>
<path d="M136.227 42.0155C136.227 42.0155 133.543 46.9467 133.858 48.8191C134.172 50.6914 135.056 52.8135 134.628 53.3089C134.482 53.4972 134.292 53.6501 134.074 53.7554C133.856 53.8608 133.615 53.9157 133.371 53.916C132.943 53.9436 131.799 54.7148 131.799 54.7962C131.799 54.8777 130.743 54.879 129.797 55.2654C128.85 55.6517 127.456 55.8711 127.456 55.8711C127.456 55.8711 124.74 55.7883 124.487 56.0367C124.234 56.285 123.973 57.7724 124.515 58.9563C125.057 60.1401 125.659 61.0259 126.114 61.1873C126.568 61.3488 129.454 60.416 131.794 60.1953C134.135 59.9745 136.676 58.185 136.676 58.185C136.676 58.185 139.474 57.2191 139.964 55.5951C140.455 53.9711 139.372 45.0454 139.372 45.0454C139.372 45.0454 138.537 40.8923 136.227 42.0155Z" fill="white"/>
<path opacity="0.1" d="M136.168 55.2418C136.168 55.2418 134.023 54.8279 134.77 55.5178C135.516 56.2076 135.512 56.812 136.425 56.7844C137.339 56.7568 136.168 55.2418 136.168 55.2418Z" fill="black"/>
<path opacity="0.1" d="M139.793 70.0854C139.793 70.0854 138.823 70.7188 140.678 72.1786C142.532 73.6383 139.793 70.0854 139.793 70.0854Z" fill="black"/>
<path opacity="0.1" d="M137.943 75.291C137.943 75.3738 137.599 78.3265 138.883 79.0647C140.167 79.8029 137.943 75.291 137.943 75.291Z" fill="black"/>
<path d="M117.556 52.1499C116.521 52.1844 114.285 52.4893 115.444 54.5769C116.469 56.4244 118.192 55.1895 119.162 54.2527C118.925 53.3792 118.351 52.6266 117.556 52.1499Z" fill="#FFB0B1"/>
<path d="M119.175 54.2353L119.217 54.1934L119.175 54.2353Z" fill="#FFB0B1"/>
<path opacity="0.1" d="M135.883 39.3743C134.785 40.0987 133.865 40.71 133.684 40.8369C133.193 41.1887 132.255 43.2543 131.65 44.3084C131.168 45.157 129.602 45.375 129.012 45.4288L129.088 44.7982C130.43 44.2187 131.458 42.3726 131.458 42.3726L134.112 37.8828L135.026 38.6845C135.026 38.6845 135.369 38.9604 135.883 39.3743Z" fill="black"/>
<path d="M135.883 39.2918C134.785 40.0162 133.865 40.6274 133.684 40.7558C133.193 41.1062 132.255 43.1717 131.65 44.2259C131.168 45.0744 129.602 45.2924 129.012 45.3463L129.088 44.7157C130.43 44.1362 131.458 42.2901 131.458 42.2901L134.112 37.8003L135.026 38.5992C135.026 38.5992 135.369 38.8724 135.883 39.2918Z" fill="#DCE7FF"/>
<path d="M133.771 35.7763C133.771 36.6045 133.511 37.4134 133.024 38.0957C132.45 38.9023 131.594 39.4834 130.613 39.7335C129.633 39.9837 128.591 39.8862 127.679 39.4589C126.766 39.0316 126.042 38.3027 125.639 37.4045C125.235 36.5063 125.179 35.4982 125.48 34.5633C125.781 33.6284 126.419 32.8286 127.279 32.3089C128.138 31.7892 129.163 31.5841 130.166 31.7308C131.169 31.8775 132.084 32.3664 132.745 33.1086C133.407 33.8508 133.77 34.7973 133.771 35.7763Z" fill="#FFB0B1"/>
<path opacity="0.1" d="M141.171 49.5395C140.59 49.1948 140.118 48.7046 139.803 48.1211C139.564 47.6657 139.405 47.14 138.998 46.8172C138.63 46.5274 138.14 46.4571 137.682 46.3274C136.178 45.8983 134.917 44.5737 134.87 43.0615C134.847 42.3495 135.077 41.6389 134.973 40.9338C134.914 40.5348 134.749 40.1571 134.495 39.8369C134.369 39.6838 134.231 39.5403 134.082 39.4078C133.882 39.2257 133.672 39.0491 133.489 38.8559C133.373 38.7363 133.273 38.6044 133.188 38.4627C133.12 38.3467 133.065 38.2242 133.024 38.097C132.738 37.2526 132.998 36.2509 132.684 35.3968L132.667 35.3499C132.548 35.0464 132.306 34.7428 131.97 34.7194C131.634 34.6959 131.347 34.965 131.027 35.085C130.356 35.3361 129.633 34.9084 129.073 34.4724C128.514 34.0364 127.884 33.5383 127.173 33.6349C126.703 33.6997 126.331 34.0088 125.898 34.1688C125.8 34.2054 125.699 34.2336 125.596 34.253C125.963 33.3707 126.636 32.6391 127.501 32.1839C128.366 31.7288 129.368 31.5785 130.336 31.7589C131.303 31.9393 132.175 32.4391 132.802 33.1725C133.428 33.9059 133.771 34.827 133.77 35.7777C133.771 36.0647 133.74 36.351 133.677 36.6317C133.685 36.651 133.692 36.669 133.7 36.6883C133.866 37.1022 134.054 37.5272 134.218 37.8942L135.026 38.6007C135.026 38.6007 135.369 38.8766 135.884 39.2905C137.003 40.2012 138.938 41.8045 139.936 42.7855C140.814 43.652 141.088 47.0104 141.171 49.5395Z" fill="black"/>
<path d="M125.848 31.6475C126.052 31.246 126.154 30.7962 126.398 30.4154C126.757 29.8635 127.384 29.5103 128.027 29.2964C129.707 28.7376 133.257 27.9263 134.318 29.2964C134.527 29.5724 134.7 29.8787 134.989 30.0691C135.209 30.214 135.475 30.276 135.716 30.385C136.393 30.6914 136.825 31.3592 137.055 32.0408C137.285 32.7224 137.354 33.4537 137.522 34.156C137.738 35.0569 138.117 35.911 138.495 36.7596C138.939 37.7613 139.411 38.8003 140.269 39.5081C141.44 40.4739 141.699 41.8413 142.785 42.9009C144.072 44.1593 144.031 46.2358 143.367 47.8846C143.28 48.1013 143.182 48.3276 143.216 48.558C143.25 48.7884 143.427 48.9981 143.595 49.1816L144.298 49.9474C142.634 50.3351 140.751 49.4962 139.976 48.024C139.737 47.5687 139.578 47.0444 139.169 46.7201C138.803 46.4304 138.312 46.3614 137.855 46.2317C136.351 45.8012 135.09 44.4752 135.043 42.963C135.02 42.2524 135.25 41.5419 135.146 40.8382C135.088 40.4365 134.923 40.0561 134.667 39.7344C134.274 39.239 133.68 38.9065 133.36 38.3546C132.818 37.4315 133.23 36.2325 132.84 35.2418C132.72 34.9383 132.479 34.6347 132.143 34.6113C131.807 34.5878 131.52 34.8569 131.198 34.9769C130.529 35.228 129.806 34.8017 129.247 34.3643C128.687 33.9269 128.057 33.4302 127.345 33.5282C126.874 33.5916 126.504 33.9007 126.071 34.0621C125.751 34.1808 125.102 34.287 124.821 34.0263C124.229 33.5006 125.601 32.1387 125.848 31.6475Z" fill="#591D4B"/>
<path opacity="0.1" d="M140.373 47.5688C140.133 47.1135 139.975 46.5892 139.566 46.2663C139.2 45.9766 138.709 45.9062 138.251 45.7765C136.748 45.3474 135.487 44.0215 135.439 42.5092C135.416 41.7987 135.646 41.0867 135.543 40.383C135.483 39.9839 135.318 39.6062 135.064 39.2861C134.669 38.7908 134.076 38.4582 133.757 37.9063C133.215 36.9846 133.627 35.7856 133.235 34.7936C133.117 34.4914 132.875 34.1879 132.54 34.163C132.206 34.1382 131.916 34.41 131.595 34.53C130.926 34.7812 130.201 34.3534 129.644 33.9174C129.086 33.4814 128.453 32.9833 127.742 33.0799C127.272 33.1448 126.9 33.4538 126.468 33.6139C126.148 33.7325 125.497 33.8402 125.217 33.5794C124.628 33.0275 125.999 31.6684 126.245 31.18C126.449 30.7771 126.551 30.3286 126.797 29.9478C126.81 29.9271 126.824 29.9064 126.838 29.8857C126.654 30.0328 126.496 30.207 126.368 30.4018C126.123 30.7826 126.022 31.2296 125.817 31.6339C125.57 32.1223 124.199 33.4856 124.789 34.0333C125.075 34.2955 125.719 34.1879 126.039 34.0692C126.468 33.9078 126.843 33.5987 127.313 33.5352C128.028 33.4373 128.657 33.9354 129.215 34.3714C129.772 34.8074 130.501 35.2351 131.168 34.984C131.488 34.8639 131.768 34.5935 132.111 34.6183C132.455 34.6432 132.683 34.9454 132.808 35.2489C133.198 36.2396 132.786 37.4386 133.328 38.3617C133.649 38.9039 134.242 39.2433 134.635 39.7414C134.891 40.0632 135.056 40.4435 135.114 40.8452C135.218 41.5489 134.988 42.2595 135.011 42.9701C135.058 44.4878 136.319 45.8083 137.824 46.2388C138.277 46.3684 138.772 46.4374 139.138 46.7272C139.548 47.0514 139.709 47.5757 139.944 48.0311C140.719 49.5033 142.602 50.3422 144.266 49.9545L143.935 49.593C142.492 49.6137 141.032 48.8217 140.373 47.5688Z" fill="black"/>
<path opacity="0.1" d="M130.516 41.2717C130.329 41.5476 129.793 42.9605 129.345 44.194C128.926 44.0367 128.546 43.0336 128.546 43.0336L130.779 39.9678C131.008 40.2713 130.858 40.7749 130.516 41.2717Z" fill="black"/>
<path d="M130.602 41.1887C130.415 41.4647 129.879 42.8776 129.431 44.1111C129.012 43.9552 128.632 42.9507 128.632 42.9507L130.865 39.8862C131.094 40.1884 130.944 40.6934 130.602 41.1887Z" fill="#DCE7FF"/>
<path d="M117.616 55.2847L116.378 51.5166C116.364 51.4725 116.358 51.426 116.362 51.3798C116.366 51.3336 116.38 51.2887 116.402 51.2475C116.424 51.2064 116.454 51.1698 116.491 51.14C116.527 51.1102 116.57 51.0876 116.616 51.0737C116.708 51.0459 116.808 51.0544 116.893 51.0973C116.979 51.1402 117.044 51.214 117.073 51.3027L118.311 55.0667L118.188 55.8546L117.616 55.2847Z" fill="#BE8B87"/>
<path opacity="0.1" d="M116.495 51.1853C116.588 51.1571 116.688 51.1654 116.774 51.2083C116.86 51.2512 116.925 51.3253 116.954 51.4143L118.192 55.1783L118.099 55.7689L118.19 55.8599L118.312 55.0721L117.067 51.3081C117.038 51.2194 116.973 51.1456 116.887 51.1027C116.802 51.0598 116.702 51.0513 116.61 51.079C116.532 51.1033 116.465 51.1519 116.419 51.217C116.444 51.2044 116.469 51.1938 116.495 51.1853Z" fill="white"/>
<path d="M117.616 55.2847L118.311 55.0723L118.21 55.718L118.188 55.8601L117.985 55.6559L117.616 55.2847Z" fill="#EFC8C4"/>
<path d="M117.985 55.6556C117.997 55.6409 118.013 55.6287 118.03 55.6197C118.04 55.6136 118.051 55.6104 118.063 55.6104C118.075 55.6104 118.087 55.6136 118.097 55.6197C118.107 55.6311 118.115 55.6436 118.121 55.657C118.131 55.6722 118.144 55.6852 118.159 55.695C118.174 55.7048 118.192 55.7111 118.21 55.7136L118.188 55.8515L117.985 55.6556Z" fill="#727A9C"/>
<path d="M116.371 52.855C116.371 52.855 118.855 52.8412 118.27 53.8608C117.685 54.8805 116.771 55.0033 116.771 55.0033L116.371 52.855Z" fill="#FFB0B1"/>
<path d="M100.925 7.09473H100.817C96.5508 7.09473 92.7775 9.27338 90.6071 12.4882C88.4366 9.27338 84.6633 7.09473 80.3968 7.09473H80.2895C77.0876 7.12417 74.0271 8.37184 71.7731 10.5666C69.5191 12.7614 68.2537 15.7259 68.252 18.8159C68.252 22.653 69.9935 28.0976 73.3893 32.5777C79.8592 41.1143 90.6071 48.583 90.6071 48.583C90.6071 48.583 101.355 41.1157 107.823 32.5777C111.221 28.0976 112.961 22.653 112.961 18.8159C112.959 15.7261 111.694 12.7618 109.44 10.5671C107.186 8.37236 104.126 7.12453 100.925 7.09473ZM99.3904 33.2344C98.9045 33.2327 98.4305 33.0891 98.0306 32.8227C97.6308 32.5563 97.3238 32.1794 97.1499 31.7415H94.5991C94.4311 31.7405 94.2677 31.6889 94.1316 31.5939C93.9954 31.4989 93.8935 31.3653 93.8399 31.2117L93.0563 28.9337L90.577 37.2937C90.5288 37.4547 90.4277 37.5961 90.289 37.6969C90.1503 37.7976 89.9814 37.8523 89.8078 37.8525H89.7578C89.5766 37.8441 89.4039 37.7759 89.2686 37.6594C89.1333 37.5428 89.0435 37.385 89.0142 37.2123L86.4592 22.3826L84.5918 31.1579C84.549 31.3246 84.4496 31.4726 84.3094 31.5784C84.1692 31.6842 83.9963 31.7416 83.8183 31.7415H80.2252C80.1175 31.7459 80.01 31.7293 79.9091 31.6925C79.8083 31.6558 79.7161 31.5997 79.6383 31.5277C79.5605 31.4557 79.4986 31.3693 79.4562 31.2736C79.4139 31.1779 79.3921 31.075 79.3921 30.9709C79.3921 30.8669 79.4139 30.7639 79.4562 30.6682C79.4986 30.5726 79.5605 30.4861 79.6383 30.4141C79.7161 30.3421 79.8083 30.2861 79.9091 30.2493C80.01 30.2126 80.1175 30.1959 80.2252 30.2003H83.1892L85.8343 18.4019C85.8778 18.2275 85.9826 18.073 86.131 17.9649C86.2794 17.8569 86.4621 17.8019 86.6478 17.8094C86.8335 17.8168 87.0108 17.8864 87.1493 18.006C87.2878 18.1257 87.379 18.2881 87.4071 18.4654L90.0165 33.5932L92.2385 26.1135C92.2847 25.9559 92.3826 25.8171 92.5173 25.7176C92.6521 25.6181 92.8166 25.5634 92.9863 25.5615H93.002C93.17 25.5616 93.3338 25.6128 93.4698 25.708C93.6059 25.8031 93.7074 25.9373 93.7598 26.0914L95.1767 30.2045H97.1184C97.2565 29.7997 97.5077 29.4397 97.8444 29.164C98.1812 28.8884 98.5903 28.7079 99.0266 28.6424C99.4629 28.577 99.9094 28.6291 100.317 28.7931C100.725 28.9571 101.077 29.2266 101.336 29.5718C101.595 29.917 101.75 30.3245 101.784 30.7493C101.818 31.1741 101.73 31.5998 101.529 31.9793C101.328 32.3587 101.022 32.6773 100.646 32.8998C100.269 33.1222 99.8362 33.24 99.3947 33.24L99.3904 33.2344Z" fill="#FF8811"/>
</g>
<defs>
<linearGradient id="paint0_linear" x1="50.9485" y1="106.914" x2="50.9485" y2="22.0114" gradientUnits="userSpaceOnUse">
<stop stop-color="#808080" stop-opacity="0.25"/>
<stop offset="0.54" stop-color="#808080" stop-opacity="0.12"/>
<stop offset="1" stop-color="#808080" stop-opacity="0.1"/>
</linearGradient>
<linearGradient id="paint1_linear" x1="31915.6" y1="64060.2" x2="31915.6" y2="20478.9" gradientUnits="userSpaceOnUse">
<stop stop-color="#808080" stop-opacity="0.25"/>
<stop offset="0.54" stop-color="#808080" stop-opacity="0.12"/>
<stop offset="1" stop-color="#808080" stop-opacity="0.1"/>
</linearGradient>
<clipPath id="clip0">
<rect width="158" height="108" fill="white"/>
</clipPath>
</defs>
</svg>
