<svg width="177" height="100" viewBox="0 0 177 100" fill="none" xmlns="http://www.w3.org/2000/svg">
<g clip-path="url(#clip0)">
<path d="M11.6065 73.2193L10.5436 69.2874C8.65894 68.5383 6.73072 67.8895 4.76813 67.344L4.63393 69.1713L4.08973 67.1582C1.6558 66.5064 0 66.2192 0 66.2192C0 66.2192 2.23661 74.1961 6.92773 80.2945L12.3939 81.195L8.14738 81.7692C8.73773 82.4353 9.37216 83.0659 10.0469 83.6572C16.8712 89.5981 24.4721 92.3238 27.0241 89.7453C29.5761 87.1667 26.1127 80.2603 19.2884 74.3194C17.1729 72.4777 14.5152 70.9997 11.855 69.8365L11.6065 73.2193Z" fill="#E6E6E6"/>
<path d="M21.7154 68.9492L22.9725 65.0681C21.772 63.5131 20.4789 62.0229 19.0994 60.6045L17.9775 62.1037L18.6211 60.1166C16.8968 58.3786 15.6376 57.3301 15.6376 57.3301C15.6376 57.3301 13.1559 65.2429 13.8107 72.7376L17.9937 76.1585L14.042 74.5914C14.1803 75.4478 14.3758 76.2951 14.6276 77.1285C17.1952 85.5225 22.1997 91.5408 25.8054 90.5706C29.4112 89.6004 30.2527 82.0092 27.6851 73.6151C26.8891 71.0129 25.4286 68.4593 23.7924 66.1738L21.7154 68.9492Z" fill="#E6E6E6"/>
<path d="M177.001 91.1548H0.0168457V91.5736H177.001V91.1548Z" fill="#3F3D56"/>
<path d="M27.9783 47.7807C27.9783 47.7807 26.6 63.3234 26.3041 66.6539C26.1012 68.7416 25.6036 70.7949 24.8245 72.7598C24.8245 72.7598 24.2326 73.87 24.2326 74.9802V89.1348C24.2326 89.1348 23.0489 89.1348 23.3449 90.245C23.6408 91.3552 23.9367 93.298 23.9367 93.298H28.3756C28.3756 93.298 28.0796 92.4653 28.9674 92.1878C29.8552 91.9103 28.9674 89.6899 28.9674 89.6899L33.7022 73.0374L40.8044 59.1602C40.8044 59.1602 44.9473 71.6497 45.8351 73.0374C45.8351 73.0374 49.0902 88.5797 49.6821 89.9675C50.2739 91.3552 50.5699 91.3552 50.2739 91.9103C49.978 92.4653 49.978 93.0204 50.2739 93.298C50.5699 93.5755 56.1924 93.298 56.1924 93.298L54.7128 73.5924L52.0495 50.0013L38.437 46.1157L27.9783 47.7807Z" fill="#2F2E41"/>
<path d="M27.1917 91.0776C27.1917 91.0776 25.7121 86.0818 23.3447 89.9674C20.9773 93.853 20.9773 95.2407 20.9773 95.2407C20.9773 95.2407 17.1303 100.514 22.4569 99.959C27.7836 99.4039 26.5999 96.906 26.5999 96.906C26.5999 96.906 28.6713 95.7958 28.6713 94.9632C28.6713 94.1306 27.1917 91.0776 27.1917 91.0776Z" fill="#2F2E41"/>
<path d="M51.1617 90.5224C51.1617 90.5224 52.6414 85.5267 55.0088 89.4123C57.3762 93.2979 57.3762 94.6856 57.3762 94.6856C57.3762 94.6856 61.2232 99.9589 55.8965 99.4038C50.5699 98.8487 51.7536 96.3508 51.7536 96.3508C51.7536 96.3508 49.6821 95.2407 49.6821 94.408C49.6821 93.5754 51.1617 90.5224 51.1617 90.5224Z" fill="#2F2E41"/>
<path d="M37.2533 10.313C37.2533 10.313 37.8451 13.921 36.0696 14.7537C34.294 15.5863 39.9166 18.6393 41.3962 18.6393C42.8758 18.6393 45.5392 15.8638 45.5392 15.8638C45.5392 15.8638 44.0595 11.7007 44.3555 10.8681L37.2533 10.313Z" fill="#A0616A"/>
<path d="M40.5083 13.0884C43.9405 13.0884 46.7227 10.479 46.7227 7.26004C46.7227 4.0411 43.9405 1.43164 40.5083 1.43164C37.0762 1.43164 34.2939 4.0411 34.2939 7.26004C34.2939 10.479 37.0762 13.0884 40.5083 13.0884Z" fill="#A0616A"/>
<path d="M52.6412 19.1943L45.2433 14.9906C45.2433 14.9906 41.0341 19.4718 36.4803 14.4761L28.6713 16.4189L29.855 35.2918C29.855 35.2918 28.0795 42.7854 28.6713 44.1731C29.2632 45.5608 27.1917 46.1159 27.7836 46.3935C28.3754 46.671 27.7836 48.6138 27.7836 48.6138C27.7836 48.6138 39.3246 54.1647 52.0493 50.0015L50.8656 46.3935C51.0267 45.9218 51.0569 45.4194 50.9534 44.9338C50.8498 44.4481 50.6159 43.9953 50.2738 43.618C50.2738 43.618 51.4575 41.9528 49.9779 40.5651C49.9779 40.5651 50.5697 38.0672 49.0901 36.957L48.7942 33.0714L49.6819 31.1286L52.6412 19.1943Z" fill="#CFCCE0"/>
<path d="M37.3282 4.55358C37.3282 4.55358 36.5874 6.05734 39.5509 5.45583C39.5509 5.45583 40.6622 6.05734 40.6622 5.15508C40.6622 5.15508 42.144 6.65885 42.5144 5.75659C42.8849 4.85433 43.6258 6.05734 43.6258 6.05734L44.3666 4.55358L45.1075 5.45583H47.7006C47.7006 5.45583 48.4415 -0.559224 39.5509 0.0422829C30.6603 0.64379 35.034 10.1741 35.034 10.1741C35.034 10.1741 35.1056 8.46336 35.8465 9.36562C36.5874 10.2679 37.3282 4.55358 37.3282 4.55358Z" fill="#2F2E41"/>
<path d="M55.3045 30.2959L55.6005 36.1243C55.6005 36.1243 56.7842 46.9485 54.4168 51.6667V54.1645C54.4168 54.1645 53.8249 60.548 50.8657 60.2705C47.9064 59.9929 51.7534 51.1116 51.7534 51.1116L51.1616 38.8997L50.5697 31.9612L55.3045 30.2959Z" fill="#A0616A"/>
<path d="M49.3862 19.4718L52.3382 19.022C54.4647 20.9382 55.9132 23.4201 56.4884 26.1328C57.3762 30.5735 57.6721 31.4061 57.6721 31.4061L50.5699 33.0714L46.7229 26.1328L49.3862 19.4718Z" fill="#CFCCE0"/>
<path d="M83.3754 16.3042H36.6758V38.0614H83.3754V16.3042Z" fill="white"/>
<path d="M41.7752 17.6126C40.5754 16.9359 39.1288 16.9876 38.5789 17.0393C38.7883 17.5188 39.4167 18.742 40.6164 19.419C41.8191 20.0974 43.2638 20.0442 43.813 19.9928C43.6036 19.5134 42.9751 18.2897 41.7752 17.6126Z" fill="#FF8811"/>
<path d="M47.4127 31.04H39.9141C39.6924 31.0398 39.4728 31.0806 39.2679 31.16C39.063 31.2394 38.8768 31.3559 38.7199 31.5029C38.563 31.6499 38.4386 31.8244 38.3537 32.0165C38.2688 32.2086 38.2251 32.4145 38.2251 32.6224C38.2251 32.8304 38.2688 33.0363 38.3537 33.2284C38.4386 33.4205 38.563 33.595 38.7199 33.7419C38.8768 33.8889 39.063 34.0054 39.2679 34.0848C39.4728 34.1643 39.6924 34.205 39.9141 34.2048H47.4127C47.6345 34.205 47.854 34.1643 48.059 34.0848C48.2639 34.0054 48.4501 33.8889 48.6069 33.7419C48.7638 33.595 48.8882 33.4205 48.9732 33.2284C49.0581 33.0363 49.1018 32.8304 49.1018 32.6224C49.1018 32.4145 49.0581 32.2086 48.9732 32.0165C48.8882 31.8244 48.7638 31.6499 48.6069 31.5029C48.4501 31.3559 48.2639 31.2394 48.059 31.16C47.854 31.0806 47.6345 31.0398 47.4127 31.04Z" fill="#FF8811"/>
<path d="M81.3692 14.3374H39.3267C38.8377 14.3374 38.3534 14.4277 37.9016 14.6033C37.4497 14.7788 37.0392 15.0361 36.6933 15.3604C36.3475 15.6848 36.0732 16.0698 35.886 16.4936C35.6989 16.9174 35.6025 17.3716 35.6025 17.8303V37.0418C35.6025 37.9682 35.9949 38.8566 36.6933 39.5117C37.3918 40.1667 38.339 40.5347 39.3267 40.5347H81.3692C82.3569 40.5347 83.3042 40.1667 84.0026 39.5117C84.701 38.8566 85.0934 37.9682 85.0934 37.0418V17.8303C85.0934 17.3716 84.9971 16.9174 84.8099 16.4936C84.6227 16.0698 84.3484 15.6848 84.0026 15.3604C83.6568 15.0361 83.2462 14.7788 82.7944 14.6033C82.3425 14.4277 81.8582 14.3374 81.3692 14.3374ZM38.2865 16.7201C38.3696 16.706 40.3382 16.3918 41.9684 17.3118C43.5985 18.2316 44.2247 20.0102 44.2506 20.0854L44.3165 20.2772L44.1049 20.3124C43.8031 20.3566 43.498 20.3776 43.1926 20.3752C42.2237 20.3926 41.2674 20.1666 40.423 19.7205C38.7929 18.8009 38.1667 17.0223 38.1409 16.9471L38.075 16.7553L38.2865 16.7201ZM47.4128 34.5568H39.9142C39.3673 34.5568 38.8428 34.353 38.4561 33.9903C38.0694 33.6276 37.8521 33.1357 37.8521 32.6228C37.8521 32.1098 38.0694 31.6179 38.4561 31.2552C38.8428 30.8925 39.3673 30.6887 39.9142 30.6887H47.4128C47.9598 30.6887 48.4843 30.8925 48.871 31.2552C49.2577 31.6179 49.475 32.1098 49.475 32.6228C49.475 33.1357 49.2577 33.6276 48.871 33.9903C48.4843 34.353 47.9598 34.5568 47.4128 34.5568ZM81.5315 34.2051C81.5298 34.7642 81.2922 35.2999 80.8707 35.6952C80.4492 36.0905 79.878 36.3134 79.2819 36.315H73.658C73.0619 36.3134 72.4907 36.0905 72.0692 35.6952C71.6477 35.2999 71.4102 34.7642 71.4084 34.2051V31.0404C71.4102 30.4813 71.6477 29.9456 72.0692 29.5503C72.4907 29.155 73.0619 28.9322 73.658 28.9305H79.2819C79.878 28.9322 80.4492 29.155 80.8707 29.5503C81.2922 29.9456 81.5298 30.4813 81.5315 31.0404V34.2051Z" fill="#FF8811"/>
<path d="M75.4389 33.5894H73.0018C72.8278 33.5894 72.6609 33.6542 72.5379 33.7696C72.4148 33.885 72.3457 34.0415 72.3457 34.2047C72.3457 34.3679 72.4148 34.5245 72.5379 34.6399C72.6609 34.7553 72.8278 34.8201 73.0018 34.8201H75.4389C75.6129 34.8201 75.7798 34.7553 75.9028 34.6399C76.0259 34.5245 76.095 34.3679 76.095 34.2047C76.095 34.0415 76.0259 33.885 75.9028 33.7696C75.7798 33.6542 75.6129 33.5894 75.4389 33.5894ZM75.4389 34.4685H73.0018C72.9648 34.4686 72.9282 34.4618 72.894 34.4486C72.8598 34.4354 72.8287 34.416 72.8025 34.3915C72.7763 34.367 72.7555 34.3379 72.7414 34.3058C72.7272 34.2738 72.7199 34.2394 72.7199 34.2047C72.7199 34.17 72.7272 34.1357 72.7414 34.1036C72.7555 34.0716 72.7763 34.0425 72.8025 34.018C72.8287 33.9935 72.8598 33.9741 72.894 33.9609C72.9282 33.9477 72.9648 33.9409 73.0018 33.941H75.4389C75.5133 33.9412 75.5847 33.9691 75.6372 34.0185C75.6898 34.0679 75.7193 34.1349 75.7193 34.2047C75.7193 34.2746 75.6898 34.3415 75.6372 34.391C75.5847 34.4404 75.5133 34.4683 75.4389 34.4685Z" fill="#FF8811"/>
<path d="M79.9379 33.5894H77.5009C77.3268 33.5894 77.16 33.6542 77.0369 33.7696C76.9139 33.885 76.8447 34.0415 76.8447 34.2047C76.8447 34.3679 76.9139 34.5245 77.0369 34.6399C77.16 34.7553 77.3268 34.8201 77.5009 34.8201H79.9379C80.1119 34.8201 80.2788 34.7553 80.4019 34.6399C80.5249 34.5245 80.594 34.3679 80.594 34.2047C80.594 34.0415 80.5249 33.885 80.4019 33.7696C80.2788 33.6542 80.1119 33.5894 79.9379 33.5894ZM79.9379 34.4685H77.5009C77.4639 34.4686 77.4272 34.4618 77.393 34.4486C77.3588 34.4354 77.3277 34.416 77.3015 34.3915C77.2753 34.367 77.2546 34.3379 77.2404 34.3058C77.2262 34.2738 77.2189 34.2394 77.2189 34.2047C77.2189 34.17 77.2262 34.1357 77.2404 34.1036C77.2546 34.0716 77.2753 34.0425 77.3015 34.018C77.3277 33.9935 77.3588 33.9741 77.393 33.9609C77.4272 33.9477 77.4639 33.9409 77.5009 33.941H79.9379C80.0124 33.9412 80.0837 33.9691 80.1363 34.0185C80.1888 34.0679 80.2184 34.1349 80.2184 34.2047C80.2184 34.2746 80.1888 34.3415 80.1363 34.391C80.0837 34.4404 80.0124 34.4683 79.9379 34.4685Z" fill="#FF8811"/>
<path d="M75.4389 32.0068H73.0018C72.8278 32.0068 72.6609 32.0717 72.5379 32.1871C72.4148 32.3025 72.3457 32.459 72.3457 32.6222C72.3457 32.7854 72.4148 32.9419 72.5379 33.0573C72.6609 33.1727 72.8278 33.2376 73.0018 33.2376H75.4389C75.6129 33.2376 75.7798 33.1727 75.9028 33.0573C76.0259 32.9419 76.095 32.7854 76.095 32.6222C76.095 32.459 76.0259 32.3025 75.9028 32.1871C75.7798 32.0717 75.6129 32.0068 75.4389 32.0068ZM75.4389 32.8859H73.0018C72.9649 32.8859 72.9283 32.8791 72.8942 32.8659C72.8601 32.8526 72.8291 32.8332 72.803 32.8087C72.7769 32.7842 72.7562 32.7551 72.742 32.7231C72.7279 32.6911 72.7206 32.6568 72.7206 32.6222C72.7206 32.5876 72.7279 32.5533 72.742 32.5213C72.7562 32.4893 72.7769 32.4602 72.803 32.4357C72.8291 32.4112 72.8601 32.3918 72.8942 32.3786C72.9283 32.3653 72.9649 32.3585 73.0018 32.3585H75.4389C75.4758 32.3585 75.5124 32.3653 75.5465 32.3786C75.5806 32.3918 75.6116 32.4112 75.6377 32.4357C75.6638 32.4602 75.6845 32.4893 75.6987 32.5213C75.7128 32.5533 75.7201 32.5876 75.7201 32.6222C75.7201 32.6568 75.7128 32.6911 75.6987 32.7231C75.6845 32.7551 75.6638 32.7842 75.6377 32.8087C75.6116 32.8332 75.5806 32.8526 75.5465 32.8659C75.5124 32.8791 75.4758 32.8859 75.4389 32.8859Z" fill="#FF8811"/>
<path d="M79.9379 32.0068H77.5009C77.3268 32.0068 77.16 32.0717 77.0369 32.1871C76.9139 32.3025 76.8447 32.459 76.8447 32.6222C76.8447 32.7854 76.9139 32.9419 77.0369 33.0573C77.16 33.1727 77.3268 33.2376 77.5009 33.2376H79.9379C80.1119 33.2376 80.2788 33.1727 80.4019 33.0573C80.5249 32.9419 80.594 32.7854 80.594 32.6222C80.594 32.459 80.5249 32.3025 80.4019 32.1871C80.2788 32.0717 80.1119 32.0068 79.9379 32.0068ZM79.9379 32.8859H77.5009C77.4639 32.8859 77.4274 32.8791 77.3932 32.8659C77.3591 32.8526 77.3281 32.8332 77.302 32.8087C77.2759 32.7842 77.2552 32.7551 77.2411 32.7231C77.2269 32.6911 77.2197 32.6568 77.2197 32.6222C77.2197 32.5876 77.2269 32.5533 77.2411 32.5213C77.2552 32.4893 77.2759 32.4602 77.302 32.4357C77.3281 32.4112 77.3591 32.3918 77.3932 32.3786C77.4274 32.3653 77.4639 32.3585 77.5009 32.3585H79.9379C79.9748 32.3585 80.0114 32.3653 80.0455 32.3786C80.0796 32.3918 80.1106 32.4112 80.1368 32.4357C80.1629 32.4602 80.1836 32.4893 80.1977 32.5213C80.2118 32.5533 80.2191 32.5876 80.2191 32.6222C80.2191 32.6568 80.2118 32.6911 80.1977 32.7231C80.1836 32.7551 80.1629 32.7842 80.1368 32.8087C80.1106 32.8332 80.0796 32.8526 80.0455 32.8659C80.0114 32.8791 79.9748 32.8859 79.9379 32.8859Z" fill="#FF8811"/>
<path d="M75.4389 30.4248H73.0018C72.8278 30.4248 72.6609 30.4896 72.5379 30.605C72.4148 30.7205 72.3457 30.877 72.3457 31.0402C72.3457 31.2034 72.4148 31.3599 72.5379 31.4753C72.6609 31.5907 72.8278 31.6556 73.0018 31.6556H75.4389C75.6129 31.6556 75.7798 31.5907 75.9028 31.4753C76.0259 31.3599 76.095 31.2034 76.095 31.0402C76.095 30.877 76.0259 30.7205 75.9028 30.605C75.7798 30.4896 75.6129 30.4248 75.4389 30.4248ZM75.4389 31.3039H73.0018C72.9648 31.304 72.9282 31.2973 72.894 31.284C72.8598 31.2708 72.8287 31.2514 72.8025 31.2269C72.7763 31.2024 72.7555 31.1733 72.7414 31.1413C72.7272 31.1092 72.7199 31.0749 72.7199 31.0402C72.7199 31.0055 72.7272 30.9711 72.7414 30.9391C72.7555 30.907 72.7763 30.8779 72.8025 30.8534C72.8287 30.8289 72.8598 30.8095 72.894 30.7963C72.9282 30.7831 72.9648 30.7764 73.0018 30.7765H75.4389C75.5133 30.7766 75.5847 30.8045 75.6372 30.8539C75.6898 30.9034 75.7193 30.9704 75.7193 31.0402C75.7193 31.11 75.6898 31.177 75.6372 31.2264C75.5847 31.2759 75.5133 31.3037 75.4389 31.3039Z" fill="#FF8811"/>
<path d="M79.9379 30.4248H77.5009C77.3268 30.4248 77.16 30.4896 77.0369 30.605C76.9139 30.7205 76.8447 30.877 76.8447 31.0402C76.8447 31.2034 76.9139 31.3599 77.0369 31.4753C77.16 31.5907 77.3268 31.6556 77.5009 31.6556H79.9379C80.1119 31.6556 80.2788 31.5907 80.4019 31.4753C80.5249 31.3599 80.594 31.2034 80.594 31.0402C80.594 30.877 80.5249 30.7205 80.4019 30.605C80.2788 30.4896 80.1119 30.4248 79.9379 30.4248ZM79.9379 31.3039H77.5009C77.4639 31.304 77.4272 31.2973 77.393 31.284C77.3588 31.2708 77.3277 31.2514 77.3015 31.2269C77.2753 31.2024 77.2546 31.1733 77.2404 31.1413C77.2262 31.1092 77.2189 31.0749 77.2189 31.0402C77.2189 31.0055 77.2262 30.9711 77.2404 30.9391C77.2546 30.907 77.2753 30.8779 77.3015 30.8534C77.3277 30.8289 77.3588 30.8095 77.393 30.7963C77.4272 30.7831 77.4639 30.7764 77.5009 30.7765H79.9379C80.0124 30.7766 80.0837 30.8045 80.1363 30.8539C80.1888 30.9034 80.2184 30.9704 80.2184 31.0402C80.2184 31.11 80.1888 31.177 80.1363 31.2264C80.0837 31.2759 80.0124 31.3037 79.9379 31.3039Z" fill="#FF8811"/>
<path d="M24.2324 26.9655C24.2324 26.9655 21.569 37.5121 24.8242 37.5121C28.0794 37.5121 35.7734 25.5778 35.7734 25.5778C35.7734 25.5778 43.7633 21.6922 40.5082 20.3045C37.253 18.9168 33.1101 22.5248 33.1101 22.5248L28.3297 28.7495L28.0794 25.5778L24.2324 26.9655Z" fill="#A0616A"/>
<path d="M30.4469 18.0842L28.6714 16.4189C28.6714 16.4189 25.1203 18.3617 24.8244 20.3045C24.5284 22.2473 23.0488 28.3533 23.0488 28.3533L28.5234 28.7696L30.299 26.2717L30.4469 18.0842Z" fill="#CFCCE0"/>
<path d="M114.558 14.1356C114.335 13.5182 111.539 11.4195 113.252 11.0668L114.657 12.8237L121.116 6.76611L121.766 7.37536L114.558 14.1356Z" fill="#FF8811"/>
<path d="M114.558 34.7342C114.335 34.1168 111.539 32.0182 113.252 31.6654L114.657 33.4223L121.116 27.3647L121.766 27.974L114.558 34.7342Z" fill="#FF8811"/>
<path d="M114.558 55.6268C114.335 55.0094 111.539 52.9108 113.252 52.558L114.657 54.3149L121.116 48.2573L121.766 48.8666L114.558 55.6268Z" fill="#FF8811"/>
<path d="M134.121 13.5007C135.222 13.5007 136.115 12.6638 136.115 11.6315C136.115 10.5991 135.222 9.76221 134.121 9.76221C133.021 9.76221 132.128 10.5991 132.128 11.6315C132.128 12.6638 133.021 13.5007 134.121 13.5007Z" fill="#3F3D56"/>
<path d="M173.684 11.4443H141.595V11.8182H173.684V11.4443Z" fill="#3F3D56"/>
<path d="M134.121 34.0989C135.222 34.0989 136.115 33.262 136.115 32.2296C136.115 31.1972 135.222 30.3604 134.121 30.3604C133.021 30.3604 132.128 31.1972 132.128 32.2296C132.128 33.262 133.021 34.0989 134.121 34.0989Z" fill="#3F3D56"/>
<path d="M173.684 32.0425H141.595V32.4163H173.684V32.0425Z" fill="#3F3D56"/>
<path d="M134.121 54.991C135.222 54.991 136.115 54.1541 136.115 53.1217C136.115 52.0893 135.222 51.2524 134.121 51.2524C133.021 51.2524 132.128 52.0893 132.128 53.1217C132.128 54.1541 133.021 54.991 134.121 54.991Z" fill="#3F3D56"/>
<path d="M173.684 52.9346H141.595V53.3084H173.684V52.9346Z" fill="#3F3D56"/>
<path d="M119.592 58.4117H109.626V48.8784H116.403V49.2523H110.025V58.0378H119.193V53.7385H119.592V58.4117Z" fill="#3F3D56"/>
<path d="M119.592 37.4761H109.626V27.9429H116.403V28.3167H110.025V37.1023H119.193V32.803H119.592V37.4761Z" fill="#3F3D56"/>
<path d="M119.592 16.1665H109.626V6.6333H116.403V7.00715H110.025V15.7927H119.193V11.4934H119.592V16.1665Z" fill="#3F3D56"/>
</g>
<defs>
<clipPath id="clip0">
<rect width="177" height="100" fill="white"/>
</clipPath>
</defs>
</svg>
