<svg width="173" height="126" viewBox="0 0 173 126" fill="none" xmlns="http://www.w3.org/2000/svg">
<g clip-path="url(#clip0)">
<path d="M13.4053 35.3661C18.516 35.3661 22.6592 31.5229 22.6592 26.7819C22.6592 22.041 18.516 18.1978 13.4053 18.1978C8.29448 18.1978 4.15137 22.041 4.15137 26.7819C4.15137 31.5229 8.29448 35.3661 13.4053 35.3661Z" fill="#FF6584"/>
<path d="M47.1959 68.5298L56.0112 56.3693L47.2139 69.838L47.2323 71.2063C46.5888 71.2109 45.9515 71.201 45.3204 71.1765L45.7577 53.5872L45.7457 53.4515L45.7618 53.4253L45.8037 51.7632L36.1499 38.7614L45.7923 50.5192L45.8265 50.8705L46.1567 37.5811L37.8185 24.1012L46.1805 35.2465L46.0932 7.7142L46.0934 7.62256L46.0962 7.71268L46.6497 29.4118L54.249 20.5976L46.6746 31.2812L46.8405 43.1683L53.8334 31.5669L46.8662 44.9159L46.9585 51.5257L57.1281 35.3651L46.9894 53.8316L47.1959 68.5298Z" fill="#3F3D56"/>
<path d="M77.8219 77.353L86.6372 65.1925L77.8399 78.6612L77.8583 80.0296C77.2148 80.0342 76.5775 80.0242 75.9464 79.9998L76.3836 62.4104L76.3717 62.2747L76.3878 62.2485L76.4296 60.5864L66.7759 47.5846L76.4182 59.3424L76.4525 59.6938L76.7827 46.4043L68.4445 32.9244L76.8064 44.0697L76.7192 16.5374L76.7194 16.4458L76.7222 16.5359L77.2757 38.2351L84.875 29.4209L77.3006 40.1044L77.4664 51.9915L84.4594 40.3902L77.4921 53.7391L77.5845 60.3489L87.7541 44.1884L77.6154 62.6548L77.8219 77.353Z" fill="#E6E6E6"/>
<path d="M20.3981 60.9072L29.2133 48.7467L20.4161 62.2154L20.4345 63.5838C19.7909 63.5883 19.1536 63.5784 18.5226 63.554L18.9598 45.9646L18.9478 45.8289L18.964 45.8027L19.0058 44.1406L9.35205 31.1388L18.9944 42.8966L19.0286 43.248L19.3589 29.9585L11.0206 16.4786L19.3826 27.6239L19.2953 0.0916371L19.2955 0L19.2984 0.0901218L19.8519 21.7893L27.4512 12.9751L19.8768 23.6586L20.0426 35.5457L27.0356 23.9444L20.0683 37.2933L20.1606 43.9031L30.3303 27.7426L20.1916 46.209L20.3981 60.9072Z" fill="#3F3D56"/>
<path d="M107.354 89.9658L116.169 77.8053L107.372 91.274L107.391 92.6424C106.747 92.6469 106.11 92.637 105.479 92.6126L105.916 75.0232L105.904 74.8875L105.92 74.8613L105.962 73.1992L96.3081 60.1974L105.95 71.9552L105.985 72.3065L106.315 59.0171L97.9767 45.5372L106.339 56.6825L106.251 29.1502L106.252 29.0586L106.254 29.1487L106.808 50.8479L114.407 42.0337L106.833 52.7172L106.999 64.6043L113.992 53.0029L107.024 66.3519L107.117 72.9617L117.286 56.8012L107.148 75.2676L107.354 89.9658Z" fill="#E6E6E6"/>
<path d="M173 126H0V57.3438C0.176822 57.3438 0.355481 57.3438 0.532303 57.3454C21.9358 57.3691 42.4224 58.9367 61.3266 61.7861C62.2727 61.9265 63.2146 62.0719 64.1522 62.2224C64.2342 62.2342 64.3144 62.2461 64.3946 62.2596C68.3888 62.8937 72.3064 63.5854 76.1473 64.3345C76.8328 64.4698 77.5164 64.6057 78.1982 64.7421C80.9582 65.2967 83.6738 65.8807 86.3451 66.494C87.6029 66.7815 88.8504 67.0757 90.0876 67.3767C108.091 71.743 123.927 77.3792 136.805 83.9709C141.409 86.3046 145.838 88.9244 150.062 91.8123C164.654 101.879 173 113.552 173 126Z" fill="#3F3D56"/>
<path d="M133.372 126H0V73.0703C20.0946 73.0703 39.152 74.8341 56.2423 77.9929C57.914 78.3007 59.5662 78.6231 61.199 78.9602C61.9172 79.1056 62.6324 79.2556 63.3446 79.41C65.5613 79.8852 67.7404 80.3852 69.8818 80.91C72.8733 81.6405 75.7846 82.4161 78.6156 83.2369C80.291 83.7239 81.9353 84.2244 83.5486 84.7385C83.7273 84.796 83.9059 84.8535 84.0827 84.911C85.3497 85.3185 86.5966 85.7362 87.8235 86.1641C98.8761 90.0044 108.315 94.5584 115.688 99.6434C126.937 107.404 133.372 116.403 133.372 126Z" fill="#FF8811"/>
<path d="M115.062 117.129L114.774 117.337C116.366 119.215 117.734 121.248 118.854 123.399L119.184 123.254C118.052 121.081 116.67 119.027 115.062 117.129ZM104.13 107.456C104.019 107.378 103.908 107.302 103.796 107.226L103.579 107.499C103.691 107.575 103.802 107.651 103.911 107.727C105.875 109.074 107.756 110.523 109.544 112.066L109.794 111.819C107.995 110.268 106.104 108.812 104.13 107.456ZM90.5216 99.7417L90.3557 100.044C92.7255 101.162 95.0061 102.332 97.1316 103.523L97.3194 103.234C95.1865 102.04 92.8987 100.865 90.5216 99.7417ZM76.286 93.9769L76.1584 94.2932C78.623 95.1505 81.0421 96.0569 83.3445 96.9853L83.4885 96.6758C81.1806 95.7441 78.7579 94.836 76.286 93.9769ZM67.0034 91.0244C65.2169 90.5052 63.372 89.9979 61.5181 89.516L61.4196 89.8423C63.27 90.3226 65.1111 90.8299 66.894 91.3457C67.5485 91.5368 68.1956 91.7278 68.841 91.9223L68.9521 91.601C68.3068 91.4066 67.6572 91.2143 67.0034 91.0244ZM51.7196 87.1941C50.9941 87.0369 50.2703 86.8847 49.5721 86.7426C48.5294 86.5279 47.4721 86.3182 46.4257 86.117L46.3528 86.4484C47.3955 86.6479 48.4528 86.8593 49.4938 87.0741C50.192 87.2145 50.912 87.3666 51.6358 87.5222C52.3996 87.6862 53.167 87.8554 53.9181 88.0228L54.0038 87.6947C53.2527 87.5256 52.4834 87.3565 51.7196 87.1941ZM31.1291 83.6311L31.0763 83.966C33.6467 84.3109 36.2243 84.6931 38.7346 85.1006L38.7984 84.7675C36.2827 84.36 33.7032 83.9778 31.1291 83.6311ZM15.7013 81.9638L15.6685 82.3003C18.248 82.515 20.8439 82.7619 23.3852 83.0359L23.4271 82.6994C20.8822 82.4254 18.2827 82.1785 15.7013 81.9638ZM0.1988 81.0557L0.186035 81.3939C2.76736 81.4835 5.37421 81.6053 7.93367 81.7558L7.95554 81.4175C5.39425 81.2687 2.78559 81.147 0.1988 81.0557Z" fill="white"/>
<path d="M93.3179 126H0V88.9663C34.6182 88.9663 64.8358 96.4475 80.9436 107.559C88.8152 112.989 93.3179 119.287 93.3179 126Z" fill="#3F3D56"/>
<path opacity="0.2" d="M173 126H0L80.9436 107.559L115.688 99.6433L150.062 91.812C164.654 101.879 173 113.552 173 126Z" fill="black"/>
<path d="M131.767 53.2604L132.152 52.6342L130.224 52.2764L130.031 53.1709L130.32 53.8866L131.767 53.2604Z" fill="#FF8811"/>
<path opacity="0.2" d="M131.767 53.2604L132.152 52.6342L130.224 52.2764L130.031 53.1709L130.32 53.8866L131.767 53.2604Z" fill="black"/>
<path d="M130.657 52.8577C132.042 52.8577 133.165 51.8163 133.165 50.5316C133.165 49.247 132.042 48.2056 130.657 48.2056C129.273 48.2056 128.15 49.247 128.15 50.5316C128.15 51.8163 129.273 52.8577 130.657 52.8577Z" fill="#FFB8B8"/>
<path d="M128.536 50.5317L126.51 53.6631L129.5 55.2735L131.043 51.9632L128.536 50.5317Z" fill="#FFB8B8"/>
<path d="M128.343 54.1999L125.739 53.2158C125.739 53.2158 121.784 53.8421 121.399 55.0051C121.013 56.1682 121.013 65.5619 121.013 65.5619C121.013 65.5619 120.048 67.888 121.399 67.9775C121.399 67.9775 121.013 68.5143 121.399 68.6037C121.784 68.6932 125.739 68.6037 127.282 69.0511C128.825 69.4984 131.911 69.8562 131.911 69.4089V68.6037C131.911 68.6037 132.586 67.9775 132.2 66.9039C131.815 65.8303 131.332 63.5043 131.332 63.5043C131.332 63.5043 134.226 57.5996 133.937 56.8839C133.647 56.1682 130.115 53.955 130.115 53.955L128.343 54.1999Z" fill="#FF8811"/>
<path d="M122.363 65.5621L122.46 66.2778L123.81 64.7568H123.328L122.363 65.5621Z" fill="#FFB8B8"/>
<path d="M128.343 54.2001L125.546 53.5738C125.546 53.5738 124.967 53.1265 124.967 52.5897C124.967 52.0529 125.835 51.2477 126.414 50.711C126.464 50.663 126.525 50.6251 126.591 50.5994C126.658 50.5737 126.729 50.5609 126.802 50.5616C127.375 50.5571 128.069 51.254 128.069 51.254L127.298 52.4466L127.264 52.4994L128.343 54.2001Z" fill="#FF8811"/>
<path d="M130.499 53.1316L132.152 52.6343C132.152 52.6343 132.683 54.5578 132.104 54.6472C131.525 54.7367 128.343 54.4683 128.343 54.4683L130.499 53.1316Z" fill="#FF8811"/>
<path d="M121.592 68.1567L120.338 74.7771C120.338 74.7771 119.856 75.5823 120.048 75.9402C120.241 76.298 120.338 76.298 120.048 76.477C119.759 76.6559 119.373 76.477 119.47 76.9243C119.528 77.1895 119.56 77.459 119.566 77.7295L116.866 86.3181C116.866 86.3181 115.13 87.0338 116.384 87.4811C117.637 87.9284 118.891 88.2863 119.18 87.839C119.47 87.3916 119.18 86.8549 119.18 86.8549L123.617 77.0137C123.617 77.0137 124.292 76.1191 124.292 75.5823C124.292 75.0455 126.51 71.1985 126.51 71.1985C126.51 71.1985 126.607 75.0455 126.703 75.3139C126.8 75.5823 126.51 76.1191 126.51 76.477C126.51 76.8348 126.317 76.8348 126.51 77.0137C126.703 77.1927 126.703 79.2504 126.703 79.2504C126.703 79.2504 125.546 87.2127 126.221 87.3022C126.896 87.3917 128.825 87.2127 128.825 86.8549C128.833 86.7616 128.81 86.6682 128.758 86.5879C128.706 86.5077 128.628 86.4445 128.536 86.4075L129.789 79.6082C129.737 79.3368 129.77 79.0571 129.886 78.803C130.079 78.4452 130.079 78.4452 130.079 78.2663C130.079 78.0873 129.982 77.9979 130.079 77.9084C130.142 77.8312 130.176 77.7369 130.175 77.64C130.175 77.64 129.982 77.1032 130.079 77.0137C130.175 76.9243 132.297 70.2144 131.622 69.4092C130.947 68.6041 121.592 68.1567 121.592 68.1567Z" fill="#2F2E41"/>
<path d="M126.317 87.0333L125.642 88.4647C125.642 88.4647 124.099 90.0751 125.257 90.433C126.414 90.7908 126.8 90.7014 126.8 90.7014C126.8 90.7014 127.282 90.7908 127.282 90.9698C127.282 91.1487 131.14 92.4906 131.429 91.3276C131.718 90.1646 128.439 88.0174 128.439 88.0174V86.9438L126.317 87.0333Z" fill="#2F2E41"/>
<path d="M118.878 87.6963L119.024 89.2528C119.024 89.2528 119.931 91.2365 118.711 91.2321C117.491 91.2277 117.157 91.0285 117.157 91.0285C117.157 91.0285 116.669 90.9702 116.607 91.1397C116.546 91.3093 112.428 91.436 112.555 90.2482C112.682 89.0604 116.529 87.9991 116.529 87.9991L116.899 86.9819L118.878 87.6963Z" fill="#2F2E41"/>
<path d="M128.215 51.1686C128.37 51.159 128.473 51.0024 128.516 50.8534C128.54 50.7009 128.587 50.5525 128.658 50.4131C128.897 50.0622 129.521 50.2039 129.774 49.8626C129.93 49.6527 129.897 49.3109 130.122 49.1773C130.197 49.1454 130.28 49.1299 130.363 49.132C130.446 49.1341 130.527 49.1537 130.601 49.1894C131.207 49.3963 131.767 49.7055 132.252 50.1014L132.453 49.9493L132.705 50.4158C132.802 50.3067 132.99 50.3912 133.072 50.5125C133.154 50.6338 133.194 50.7888 133.311 50.8771C133.497 51.0179 133.787 50.8987 133.9 50.6945C133.994 50.4775 134.013 50.2385 133.955 50.0109C133.857 49.4351 133.65 48.88 133.342 48.3717L133.573 48.2437L133.275 48.2042L133.389 47.9646L133.077 47.9612L133.2 47.7563C132.781 47.8897 132.348 47.6454 131.948 47.4633C131.287 47.146 130.536 47.028 129.799 47.1256C129.427 47.1817 129.071 47.3091 128.755 47.4998C128.438 47.6904 128.168 47.9401 127.961 48.2329C127.613 48.7319 127.491 49.3376 127.62 49.9197C127.764 50.4228 128.393 50.5011 128.215 51.1686Z" fill="#2F2E41"/>
<path d="M121.977 54.6476C121.977 54.6476 121.399 54.5582 121.013 55.2739C120.627 55.9896 117.734 61.7153 119.18 63.5046C120.627 65.2939 121.977 65.8307 121.977 65.8307L122.267 65.9202L123.713 64.4887L123.231 63.8625C123.231 63.8625 123.231 63.2362 122.845 63.1468C122.459 63.0573 122.459 63.3257 122.363 62.9678C122.267 62.61 122.749 62.8784 122.267 62.5205C121.784 62.1626 122.17 61.9837 122.17 61.9837L121.977 54.6476Z" fill="#FF8811"/>
<path d="M132.201 66.591L132.104 67.3066L130.754 65.7856H131.236L132.201 66.591Z" fill="#FFB8B8"/>
<path d="M132.056 56.5705C132.056 56.5705 133.406 55.9443 133.792 56.66C134.178 57.3757 136.83 62.7436 135.383 64.5329C133.937 66.3222 132.587 66.859 132.587 66.859L132.297 66.9484L130.851 65.517L131.333 64.8907C131.333 64.8907 131.333 64.2645 131.719 64.175C132.104 64.0855 132.104 64.3539 132.201 63.9961C132.297 63.6382 131.815 63.9066 132.297 63.5487C132.779 63.1909 132.394 63.012 132.394 63.012L132.056 56.5705Z" fill="#FF8811"/>
<path opacity="0.2" d="M122.894 58.1812L121.833 62.1176L123.087 63.5491L122.508 61.7598L122.894 58.1812Z" fill="black"/>
<path opacity="0.2" d="M128.069 51.254L127.298 52.4466C126.814 52.2909 126.774 51.2486 126.802 50.5615C127.374 50.5571 128.069 51.254 128.069 51.254Z" fill="black"/>
</g>
<defs>
<clipPath id="clip0">
<rect width="173" height="126" fill="white"/>
</clipPath>
</defs>
</svg>
