<svg width="163" height="93" viewBox="0 0 163 93" fill="none" xmlns="http://www.w3.org/2000/svg">
<g clip-path="url(#clip0)">
<path d="M162.833 3.11815V89.8819C162.833 90.1115 162.812 90.3405 162.771 90.5649C162.653 91.2492 162.341 91.8643 161.887 92.3074C161.434 92.7506 160.868 92.995 160.282 93H2.54173C2.03113 92.9962 1.53336 92.8089 1.11345 92.4624C0.693538 92.1159 0.371016 91.6264 0.188023 91.0578C0.0624421 90.6839 -0.00179514 90.2847 -0.00120286 89.8819V3.11815C-0.00603145 2.71421 0.0559282 2.3131 0.181135 1.93774C0.306342 1.56238 0.492342 1.22012 0.728503 0.930543C0.964664 0.640962 1.24636 0.409729 1.55748 0.250061C1.8686 0.0903929 2.20306 0.00542162 2.54173 0H160.29C160.629 0.00542162 160.963 0.0903929 161.274 0.250061C161.585 0.409729 161.867 0.640962 162.103 0.930543C162.339 1.22012 162.525 1.56238 162.65 1.93774C162.776 2.3131 162.838 2.71421 162.833 3.11815Z" fill="#F2F2F2"/>
<path opacity="0.03" d="M111.71 8.90918H50.9583V90.476H111.71V8.90918Z" fill="black"/>
<path opacity="0.03" d="M75.4214 19.7979H61.3523C60.012 19.7979 58.9255 21.0937 58.9255 22.6923V59.2706C58.9255 60.8692 60.012 62.1651 61.3523 62.1651H75.4214C76.7616 62.1651 77.8481 60.8692 77.8481 59.2706V22.6923C77.8481 21.0937 76.7616 19.7979 75.4214 19.7979Z" fill="black"/>
<path opacity="0.03" d="M87.2466 62.165H101.316C102.656 62.165 103.742 60.8692 103.742 59.2706V22.6923C103.742 21.0937 102.656 19.7978 101.316 19.7978H87.2466C85.9063 19.7978 84.8199 21.0937 84.8199 22.6923V59.2706C84.8199 60.8692 85.9063 62.165 87.2466 62.165Z" fill="black"/>
<path opacity="0.03" d="M44.5478 10.2949H7.57235C5.77374 10.2949 4.31567 12.034 4.31567 14.1792V58.2807C4.31567 60.426 5.77374 62.1651 7.57235 62.1651H44.5478C46.3464 62.1651 47.8045 60.426 47.8045 58.2807V14.1792C47.8045 12.034 46.3464 10.2949 44.5478 10.2949Z" fill="black"/>
<path opacity="0.03" d="M118.12 62.165L155.096 62.165C156.894 62.165 158.352 60.426 158.352 58.2807V14.1792C158.352 12.034 156.894 10.2949 155.096 10.2949L118.12 10.2949C116.322 10.2949 114.864 12.034 114.864 14.1792V58.2807C114.864 60.426 116.322 62.165 118.12 62.165Z" fill="black"/>
<path d="M69.5753 19.7979L58.9255 33.7038V37.99L72.1415 19.7979H69.5753Z" fill="#F2F2F2"/>
<path d="M77.8481 34.1118L58.9255 56.1546L59.0085 60.0865L77.9311 37.9902L77.8481 34.1118Z" fill="#F2F2F2"/>
<path d="M95.4696 19.7979L84.8198 33.7038V37.99L98.0358 19.7979H95.4696Z" fill="#F2F2F2"/>
<path d="M103.742 34.1118L84.8198 56.1546L84.9028 60.0865L103.825 37.9902L103.742 34.1118Z" fill="#F2F2F2"/>
<path d="M18.7516 10.2949L4.31567 30.0313V42.6841L26.0601 10.2949H18.7516Z" fill="#F2F2F2"/>
<path d="M37.9182 10.2949L4.31567 49.6925V52.6859L42.3667 10.2949H37.9182Z" fill="#F2F2F2"/>
<path d="M129.549 10.394L115.113 30.1304V42.7832L136.857 10.394H129.549Z" fill="#F2F2F2"/>
<path d="M148.715 10.394L115.113 49.7916V52.785L153.164 10.394H148.715Z" fill="#F2F2F2"/>
<path d="M47.8044 56.4868V58.2805C47.8044 59.3107 47.4613 60.2987 46.8505 61.0271C46.2398 61.7556 45.4114 62.1648 44.5477 62.1648H39.027C38.861 61.9787 38.7066 61.7906 38.5489 61.5986C37.875 60.777 37.1928 59.8603 36.7679 58.7299C36.1421 57.0689 36.1819 55.2019 36.2151 53.7032C36.2151 53.5587 36.2234 53.4162 36.2267 53.2697C35.7414 54.2701 35.0153 55.0736 34.1426 55.576C33.2699 56.0784 32.2908 56.2565 31.3321 56.0873C30.3735 55.9181 29.4796 55.4094 28.7663 54.6271C28.0529 53.8448 27.5531 52.8249 27.3315 51.6997C27.228 51.1813 27.1866 50.6481 27.2086 50.1159C27.237 49.3619 27.3897 48.6221 27.6579 47.9386C27.9262 47.2551 28.3049 46.6414 28.7722 46.1326L30.53 48.144L29.6752 45.3525C30.2494 44.967 30.8836 44.7256 31.5389 44.6433C32.1942 44.561 32.8566 44.6394 33.4855 44.8738C34.1144 45.1082 34.6965 45.4936 35.1959 46.0063C35.6953 46.519 36.1015 47.1481 36.3894 47.855C36.4414 46.4256 36.5006 44.9988 36.567 43.5747H36.5471C36.4458 43.5549 36.3446 43.5292 36.2467 43.5034L36.0807 43.4519C35.9894 43.4203 35.8981 43.3886 35.8101 43.353L35.6441 43.2837C35.5545 43.2441 35.4649 43.1966 35.3785 43.149C35.331 43.1268 35.2845 43.1017 35.2391 43.0738C35.1312 43.0124 35.0283 42.9471 34.9254 42.8758C34.9022 42.86 34.8789 42.8461 34.8557 42.8283C34.7329 42.7392 34.615 42.6442 34.5005 42.5432C34.4606 42.5116 34.4241 42.472 34.3876 42.4383C34.3112 42.367 34.2365 42.2938 34.1652 42.2205L34.039 42.08C33.976 42.0087 33.9145 41.9354 33.8564 41.8622C33.7983 41.7889 33.7734 41.7573 33.7336 41.6998C33.6938 41.6424 33.6224 41.5474 33.5676 41.4662L33.4597 41.2999C33.4033 41.2069 33.3502 41.1138 33.2937 41.0168C33.2672 40.9693 33.239 40.9218 33.2141 40.8723C33.1427 40.7298 33.0763 40.5852 33.0149 40.4348C32.9916 40.3774 32.9717 40.316 32.9501 40.2605C32.912 40.1616 32.8754 40.0626 32.8423 39.9576C32.819 39.8903 32.8008 39.8191 32.7792 39.7458C32.7576 39.6726 32.7277 39.5597 32.7045 39.4607C32.6812 39.3617 32.6713 39.3122 32.6547 39.235C32.6547 39.1954 32.6364 39.1539 32.6298 39.1143C32.4076 37.92 32.5117 36.6723 32.9268 35.5537C33.342 34.4352 34.0464 33.5044 34.937 32.8978L36.0193 35.4517L35.9877 32.3593C37.0717 31.9791 38.2331 32.0636 39.2704 32.5981C40.3076 33.1326 41.1552 34.0834 41.6662 35.2854L41.6811 35.3289C41.7043 35.3824 41.7243 35.4339 41.7458 35.4893C41.784 35.5922 41.8222 35.6873 41.8554 35.8021C41.872 35.8496 41.8886 35.8932 41.9035 35.9407C41.9467 36.0852 41.9832 36.2297 42.0181 36.3782C42.0297 36.4277 42.0396 36.4792 42.0496 36.5287C42.0778 36.6653 42.1011 36.8019 42.121 36.9405C42.121 36.9662 42.121 36.99 42.1342 37.0177C42.1542 37.18 42.1674 37.3483 42.1774 37.5166C42.1774 37.5601 42.1774 37.5997 42.1774 37.6453C42.1774 37.8195 42.1857 37.9917 42.1774 38.1679C42.1238 39.5389 41.6617 40.842 40.8741 41.8427C40.0866 42.8433 39.0254 43.4758 37.8816 43.6262C37.7157 47.0076 37.6011 50.399 37.5281 53.7606C37.4916 55.4613 37.5015 56.859 37.9646 58.0904C38.2115 58.7049 38.5337 59.272 38.9207 59.7732C38.9207 59.6663 38.9207 59.5574 38.9207 59.4485C38.9501 58.6915 39.1043 57.9488 39.3744 57.2629C39.6445 56.577 40.0253 55.9612 40.4949 55.4509C40.9646 54.9405 41.514 54.5455 42.1117 54.2884C42.7094 54.0314 43.3437 53.9173 43.9784 53.9527H43.9917L45.0872 56.5403L45.0623 54.1645C46.1796 54.523 47.1523 55.3468 47.8044 56.4868Z" fill="#F2F2F2"/>
<path opacity="0.03" d="M82.33 8.90918H80.3381V90.476H82.33V8.90918Z" fill="black"/>
<path d="M162.773 90.5651C162.654 91.2495 162.342 91.8646 161.889 92.3077C161.436 92.7509 160.869 92.9953 160.283 93.0003H2.54292C2.03232 92.9965 1.53455 92.8091 1.11464 92.4626C0.694725 92.1162 0.372202 91.6267 0.189209 91.0581C7.34826 88.8942 26.3406 87.1421 50.9582 86.3244C52.3293 86.2769 53.7175 86.2347 55.1229 86.1978H55.3835C55.7154 86.1879 56.064 86.1819 56.406 86.17C57.8987 86.1318 59.4092 86.0955 60.9374 86.0611L61.4653 86.0493L63.2745 86.0117L63.9186 85.9998C65.19 85.976 66.4726 85.9549 67.7662 85.9364C71.8644 85.877 76.0655 85.8414 80.3381 85.8354H84.0794C85.2624 85.8354 86.4398 85.8354 87.6117 85.8354L91.1406 85.8632C98.2963 85.9206 105.19 86.0611 111.71 86.2591L114.283 86.3443C115.514 86.3838 116.731 86.4274 117.934 86.4749C138.719 87.2668 155.014 88.7457 162.773 90.5651Z" fill="#3F3D56"/>
<path d="M47.8875 67.8076C47.8875 69.0094 47.1571 69.9854 46.2575 69.9854H6.02868C5.12903 69.9854 4.39868 69.0094 4.39868 67.8076C4.39868 66.6039 5.12903 65.6299 6.02868 65.6299H46.2575C47.1571 65.6299 47.8875 66.6039 47.8875 67.8076Z" fill="#3F3D56"/>
<path d="M91.4062 21.6548H85.6199V33.5631H91.4062V21.6548Z" fill="#3F3D56"/>
<path opacity="0.1" d="M91.4062 21.6548H85.6199V33.5631H91.4062V21.6548Z" fill="black"/>
<path d="M114.063 31.3951C114.409 31.1476 114.837 31.1634 115.24 31.1971C115.482 31.1882 115.722 31.2493 115.939 31.3753C116.354 31.6742 116.417 32.3493 116.437 32.9274C116.457 33.6164 116.457 34.3806 116.072 34.9072C115.766 35.317 115.29 35.4675 114.837 35.5625C114.518 35.6026 114.205 35.6973 113.909 35.8436C113.615 36.0486 113.344 36.2967 113.102 36.5821C112.563 37.1305 111.846 37.669 111.139 37.8016C110.664 36.6593 110.541 35.5645 111.283 34.5825C111.693 34.04 112.223 33.6223 112.667 33.1194C113.112 32.6166 113.521 31.7851 114.063 31.3951Z" fill="#A0616A"/>
<path d="M86.8115 89.3195C86.7297 89.5573 86.6901 89.8128 86.6953 90.0698C86.7417 90.6638 87.2347 91.0379 87.6912 91.2854C88.302 91.62 89.0722 91.8655 89.6034 91.3725C90.1943 90.8241 90.1013 89.7511 90.3321 88.8998C90.4682 88.4029 90.7238 87.9653 90.8914 87.4823C91.3512 86.1578 91.1089 84.6512 90.8599 83.2495L90.4964 81.2084C90.4811 81.0465 90.423 80.8946 90.3304 80.7748C90.0632 80.4956 88.81 80.3947 88.4913 80.66C87.9817 81.0817 88.1045 82.5051 88.0232 83.1743C87.7729 85.2615 87.3674 87.318 86.8115 89.3195Z" fill="#575A89"/>
<path d="M84.8862 89.3195C84.9672 89.5576 85.0067 89.8129 85.0024 90.0698C84.9559 90.6638 84.463 91.0379 84.0065 91.2854C83.3957 91.62 82.6238 91.8655 82.0943 91.3725C81.5034 90.8241 81.5963 89.7511 81.364 88.8998C81.2295 88.4029 80.9739 87.9653 80.8062 87.4823C80.3448 86.1578 80.5888 84.6512 80.8378 83.2495L81.2013 81.2084C81.2166 81.0465 81.2747 80.8946 81.3673 80.7748C81.6345 80.4956 82.8877 80.3947 83.2064 80.66C83.7144 81.0817 83.5915 82.5051 83.6729 83.1743C83.9237 85.2616 84.3297 87.3181 84.8862 89.3195Z" fill="#575A89"/>
<path d="M89.0924 28.0871C89.1857 28.2014 89.2526 28.3426 89.2866 28.4969C89.3463 28.8691 89.0558 29.1977 88.7587 29.3324C88.4616 29.467 88.1296 29.4987 87.8607 29.7026C87.585 29.9487 87.3854 30.2968 87.2931 30.6925C86.7287 32.5851 87.3578 34.9708 88.855 35.8914C89.8874 36.5269 91.1157 36.4279 92.2743 36.3131C92.4368 36.3088 92.5973 36.2685 92.7474 36.1943C92.8996 36.0907 93.031 35.9488 93.1325 35.7785C93.7822 34.7966 94.2324 33.6486 94.4478 32.4244C94.6633 31.2002 94.638 29.9332 94.3741 28.7226C94.3572 28.6215 94.3239 28.5254 94.2761 28.4395C93.9774 27.9505 93.257 28.5523 92.8337 28.2197C92.7038 28.0968 92.6064 27.9319 92.5532 27.7446C92.2626 26.9311 92.0622 26.0759 91.9573 25.2006C91.944 25.0937 90.0584 25.9549 89.8974 26.0499C89.255 26.4459 89.2218 26.0816 88.7454 26.729C89.2567 26.8992 88.6691 27.505 89.0924 28.0871Z" fill="#A0616A"/>
<path opacity="0.1" d="M89.0924 28.0871C89.1857 28.2014 89.2526 28.3426 89.2866 28.4969C89.3463 28.8691 89.0558 29.1977 88.7587 29.3324C88.4616 29.467 88.1296 29.4987 87.8607 29.7026C87.585 29.9487 87.3854 30.2968 87.2931 30.6925C86.7287 32.5851 87.3578 34.9708 88.855 35.8914C89.8874 36.5269 91.1157 36.4279 92.2743 36.3131C92.4368 36.3088 92.5973 36.2685 92.7474 36.1943C92.8996 36.0907 93.031 35.9488 93.1325 35.7785C93.7822 34.7966 94.2324 33.6486 94.4478 32.4244C94.6633 31.2002 94.638 29.9332 94.3741 28.7226C94.3572 28.6215 94.3239 28.5254 94.2761 28.4395C93.9774 27.9505 93.257 28.5523 92.8337 28.2197C92.7038 28.0968 92.6064 27.9319 92.5532 27.7446C92.2626 26.9311 92.0622 26.0759 91.9573 25.2006C91.944 25.0937 90.0584 25.9549 89.8974 26.0499C89.255 26.4459 89.2218 26.0816 88.7454 26.729C89.2567 26.8992 88.6691 27.505 89.0924 28.0871Z" fill="black"/>
<path d="M82.4709 51.6918C82.5816 52.9668 82.6596 54.2444 82.705 55.5247C82.7531 56.7541 82.773 58.0132 82.4593 59.1853C82.2933 59.8426 82.0095 60.4563 81.8618 61.1215C81.6958 61.9035 81.6958 62.7231 81.7041 63.5329C81.6923 63.9984 81.7291 64.464 81.8136 64.9187C81.9049 65.3325 82.0742 65.7106 82.1987 66.1066C82.6469 67.5261 82.544 69.1 82.3896 70.6046C82.0991 73.4357 81.646 76.2391 81.1928 79.0385L80.3745 84.1146C81.2664 84.5522 82.1944 84.8766 83.1432 85.0827C83.7308 85.2094 84.4977 85.1857 84.7317 84.5284C84.809 84.2274 84.821 83.9079 84.7666 83.5999C84.6364 82.1891 84.7737 80.7615 85.1682 79.4225C85.4903 78.3356 85.9766 77.32 86.2239 76.2054C86.3652 75.5025 86.4508 74.7853 86.4796 74.0633C86.5559 72.7962 86.588 71.5272 86.5758 70.2562C86.5592 68.5417 86.4679 66.7856 86.8978 65.1484C87.4605 63.0062 88.9013 61.0977 88.7337 58.8606C88.7685 61.3254 88.805 63.7922 88.6656 66.2511C88.5786 67.2692 88.5453 68.2927 88.566 69.3158C88.6357 70.8145 88.9992 72.327 88.732 73.796C88.6225 74.3899 88.4133 74.9641 88.3585 75.5778C88.2722 76.5321 88.5743 77.5338 88.3071 78.4406C88.0764 79.2325 87.434 79.8581 87.4539 80.6916C87.4672 81.3152 87.8739 81.8478 88.3486 82.1111C88.8233 82.3744 89.3578 82.4179 89.879 82.4575C90.4433 82.5011 91.1272 82.4734 91.4111 81.8893C91.758 81.1786 91.2085 80.3392 91.1056 79.5275C91.0027 78.7158 91.3662 77.9238 91.6916 77.1953C93.5268 73.0813 94.5338 68.5142 94.6329 63.8556C94.6611 62.4479 94.6063 61.0383 94.613 59.6307C94.6259 56.4003 94.9602 53.1831 95.6089 50.0466C91.1654 49.8447 86.6638 49.8942 82.4709 51.6918Z" fill="#3C354C"/>
<path d="M89.5919 28.085C91.4409 28.085 92.9398 26.2972 92.9398 24.0918C92.9398 21.8865 91.4409 20.0986 89.5919 20.0986C87.7428 20.0986 86.2439 21.8865 86.2439 24.0918C86.2439 26.2972 87.7428 28.085 89.5919 28.085Z" fill="#A0616A"/>
<path d="M92.1481 29.9144C91.7863 30.6945 91.3365 31.4725 90.6675 31.8744C89.9986 32.2763 89.0641 32.1733 88.6441 31.4329C88.3271 30.8726 88.3205 30.0312 87.8275 29.7026C87.4324 29.4393 86.9063 29.6848 86.6324 30.1144C86.3585 30.544 86.2772 31.1043 86.2241 31.6349C86.1131 32.9715 86.0743 34.3152 86.1079 35.6578C86.1776 42.2009 86.6158 48.7381 86.5461 55.2833C86.5492 56.3062 86.4998 57.3283 86.3983 58.344C88.4184 57.7342 90.4517 57.1245 92.5399 56.9701C93.5474 56.8968 94.5616 56.9305 95.5608 56.7721C96.2472 56.6458 96.9272 56.474 97.5975 56.2573C97.6874 56.2416 97.7713 56.194 97.8382 56.1207C97.8909 56.0328 97.9199 55.9278 97.9212 55.8198C98.127 53.5054 97.4481 51.2267 97.1477 48.9282C96.8655 46.7841 96.9153 44.5945 96.673 42.4425C96.341 39.4233 95.4264 36.4833 95.4463 33.4364C95.4463 32.3298 95.5824 31.2052 95.3766 30.1243C95.2106 29.2334 94.6346 28.0455 93.7997 27.8713C92.8752 27.6773 92.4967 29.1641 92.1481 29.9144Z" fill="#FF8811"/>
<path d="M91.7763 31.3655C90.7522 33.7986 89.7115 36.2852 89.3778 38.9817C89.0774 41.4128 89.3662 43.9014 89.1189 46.3405C88.8019 49.4725 87.6134 52.6599 88.4201 55.6652C88.5994 56.3364 88.8732 56.9659 89.0641 57.6312C89.8941 60.5533 89.0641 63.81 89.6003 66.8312C89.6054 66.9083 89.6252 66.9831 89.6583 67.0496C89.6914 67.1162 89.7369 67.1729 89.7911 67.2153C89.9322 67.2885 90.0866 67.1658 90.2343 67.1103C90.8734 66.8668 91.3132 67.8349 91.8195 68.3615C92.0735 68.6179 92.3849 68.7801 92.7153 68.8279C93.0456 68.8758 93.3805 68.8072 93.6786 68.6308C94.6264 68.0487 94.8787 66.5995 95.0065 65.3384C95.6428 59.3067 96.0301 53.2466 96.1684 47.1581C96.1999 45.7723 96.2165 44.3864 96.0256 43.0204C95.7949 41.3633 95.2637 39.7874 94.9783 38.1442C94.5201 35.4992 94.711 32.7652 94.8355 30.0687C94.8704 29.2768 94.6845 26.9961 93.5574 27.7405C92.6909 28.3126 92.1963 30.3696 91.7763 31.3655Z" fill="#575A89"/>
<path opacity="0.1" d="M86.634 38.2055C86.624 39.0687 86.6124 39.9458 86.39 40.7674C86.1676 41.589 85.7393 42.3175 85.3941 43.0857C84.5641 44.9665 84.2637 47.1205 84.2222 49.2428C84.1807 51.3651 84.3882 53.4835 84.5259 55.5999C84.7348 58.8207 84.7819 62.0535 84.667 65.281C85.777 64.817 86.9776 64.757 88.1163 65.1087C88.7802 65.3067 89.572 65.6314 90.0915 65.0929C90.4617 64.7088 90.5065 64.0535 90.5231 63.4695C90.699 57.5183 90.7544 51.5644 90.6891 45.6079C90.6666 44.8273 90.6849 44.0457 90.7438 43.2678C90.7986 42.6739 90.9098 42.0681 90.9098 41.4623C90.9098 40.611 90.7189 39.7795 90.5247 38.9598L88.7736 31.5574C88.659 31.0704 88.5362 30.5676 88.2524 30.1874C87.9685 29.8073 87.1104 29.3045 86.7767 29.7915C86.4879 30.2191 86.702 31.6841 86.6971 32.2108L86.634 38.2055Z" fill="black"/>
<path d="M86.4083 38.0693C86.3984 38.9324 86.3851 39.8115 86.1627 40.6331C85.9403 41.4547 85.5137 42.1813 85.1668 42.9514C84.3368 44.8322 84.0364 46.9862 83.9949 49.1085C83.9534 51.2308 84.1609 53.3492 84.2986 55.4656C84.5075 58.6857 84.5546 61.9178 84.4397 65.1447C85.5505 64.6817 86.7513 64.6218 87.8906 64.9724C88.5546 65.1803 89.3447 65.4971 89.8642 64.9586C90.2344 64.5745 90.2792 63.9192 90.2974 63.3332C90.4723 57.382 90.5276 51.4281 90.4634 45.4716C90.4404 44.6917 90.4581 43.9108 90.5165 43.1335C90.5981 42.5355 90.6535 41.9329 90.6825 41.328C90.6825 40.4767 90.4933 39.6432 90.2991 38.8255L88.5479 31.4232C88.4317 30.9341 88.3089 30.4333 88.0251 30.0512C87.7412 29.6691 86.8831 29.1702 86.5494 29.6651C86.2623 30.0908 86.4764 31.5578 86.4698 32.0824L86.4083 38.0693Z" fill="#575A89"/>
<path d="M87.1154 28.9996C86.2108 29.1085 85.5153 30.039 85.1617 31.0368C84.8082 32.0346 84.7053 33.1314 84.4364 34.1648C83.9666 35.9565 82.9923 37.572 82.8346 39.4389C82.6885 41.2009 83.2927 42.9887 83.0006 44.723C82.9096 45.1878 82.7926 45.6448 82.6503 46.091C82.086 48.0609 81.764 50.1159 81.442 52.163L80.9639 55.2098C80.6319 57.3579 80.2883 59.5653 80.5971 61.7174C80.9172 61.4429 81.3072 61.3093 81.7006 61.3393C82.0941 61.3692 82.4667 61.5609 82.7549 61.8817C82.9209 62.0658 83.0587 62.2994 83.2761 62.339C83.6496 62.4024 83.8787 61.8718 83.9766 61.4382C84.3291 59.8898 84.5652 58.307 84.682 56.7085C84.7451 55.8414 84.775 54.9624 84.9891 54.1348C85.1252 53.6141 85.3211 53.1251 85.4705 52.6084C85.8024 51.3869 85.7576 50.0723 85.8954 48.7993C86.0132 47.6966 86.2672 46.6216 86.4116 45.5248C86.5605 44.1888 86.6265 42.8415 86.6092 41.494L86.6739 33.7392C86.6822 32.7354 86.7386 31.601 87.3793 30.9516C87.7113 30.621 88.5728 30.3161 88.4931 29.6945C88.4151 29.1104 87.4872 28.956 87.1154 28.9996Z" fill="#FF6584"/>
<path d="M92.4634 28.2853C93.4327 27.4161 94.5034 26.5035 95.7167 26.5391C96.1187 26.5686 96.5167 26.651 96.9035 26.7846L99.649 27.6022C99.3756 28.1611 98.968 28.6094 98.4788 28.8891C98.9241 28.7977 99.3822 28.8896 99.7779 29.1497C100.174 29.4098 100.483 29.8226 100.657 30.3205C101.04 31.5202 100.535 32.8348 100.089 34.0048C99.3253 36.0024 98.6912 38.1287 98.6979 40.3263C98.6979 41.4409 98.0522 42.5436 97.9891 43.6562C97.9432 44.3532 97.9914 45.0543 98.1319 45.733C98.2995 46.3947 98.5081 47.0405 98.756 47.6653C100.437 52.3732 100.819 57.6097 100.633 62.7235H96.8853C96.678 62.7085 96.4703 62.7401 96.2728 62.8165C96.0371 62.9254 95.8595 63.1551 95.6503 63.3253C95.2906 63.6161 94.8492 63.7257 94.422 63.6302C94.022 61.4525 94.6544 59.2391 94.9665 57.0494C95.1232 55.8501 95.2235 54.6412 95.2669 53.4284C95.3543 51.5067 95.3986 49.5817 95.3997 47.6534C95.3997 46.1963 95.3698 44.7095 94.9665 43.3355C94.7673 42.6545 94.4785 42.011 94.2909 41.3241C94.1224 40.635 94.0058 39.9294 93.9423 39.2156C93.524 35.5352 92.8817 31.9617 92.4634 28.2853Z" fill="#FF6584"/>
<path d="M84.4513 31.3659C84.1692 31.6114 84.0862 32.0589 83.9617 32.4489C83.6496 33.4269 82.9873 34.1792 82.5524 35.0859C82.3029 35.6446 82.0962 36.229 81.935 36.8321C81.359 38.7921 80.773 40.8372 80.9789 42.8981C81.0253 43.3594 81.1233 43.8425 81.3972 44.1731C81.9964 44.8918 83.1035 44.4483 83.5666 43.597C84.0297 42.7457 84.0563 41.6766 84.1492 40.6709C84.3252 38.7545 84.7916 36.9093 85.1452 35.0285C85.3375 34.085 85.4773 33.1274 85.5634 32.1618C85.5883 31.8648 85.7294 31.2036 85.4937 31.0155C85.346 30.8967 84.5891 31.2551 84.4513 31.3659Z" fill="#FF6584"/>
<path d="M102.756 36.6459C103.17 37.2398 103.673 37.8674 104.313 37.8476C104.631 37.807 104.937 37.6848 105.211 37.4892C107.364 36.2078 109.604 35.1435 111.906 34.3077C111.649 35.0109 111.582 35.7914 111.712 36.5422C111.843 37.293 112.165 37.9772 112.634 38.5009C110.692 39.0933 108.823 39.9851 107.074 41.1538C106.703 41.3822 106.358 41.6678 106.05 42.0031C105.851 42.2787 105.637 42.538 105.409 42.7792C104.901 43.2425 104.212 43.2741 103.571 43.286C103.194 43.3434 102.81 43.3045 102.446 43.1717C102.082 43.0389 101.746 42.8154 101.46 42.5159L96.8754 38.6058C96.8015 38.5683 96.7365 38.5097 96.6861 38.4351C96.6357 38.3605 96.6014 38.2723 96.5864 38.1782C96.5713 38.0841 96.5758 37.9871 96.5996 37.8956C96.6234 37.8041 96.6657 37.721 96.7227 37.6536L98.1735 34.5671C98.5054 33.8682 98.8789 32.712 99.6574 32.5873C100.436 32.4626 100.721 33.4604 101.09 34.1137C101.606 34.9939 102.162 35.8393 102.756 36.6459Z" fill="#FF6584"/>
<path d="M82.4642 29.9455L80.8805 30.6923C80.5309 30.8571 80.3596 31.3287 80.4978 31.7456L82.3333 37.2837C82.4715 37.7006 82.8669 37.905 83.2164 37.7402L84.8002 36.9934C85.1497 36.8286 85.3211 36.357 85.1829 35.9401L83.3473 30.402C83.2091 29.9851 82.8138 29.7807 82.4642 29.9455Z" fill="#3F3D56"/>
<path opacity="0.1" d="M82.4642 29.9455L80.8805 30.6923C80.5309 30.8571 80.3596 31.3287 80.4978 31.7456L82.3333 37.2837C82.4715 37.7006 82.8669 37.905 83.2164 37.7402L84.8002 36.9934C85.1497 36.8286 85.3211 36.357 85.1829 35.9401L83.3473 30.402C83.2091 29.9851 82.8138 29.7807 82.4642 29.9455Z" fill="black"/>
<path d="M82.2362 30.0793L80.6524 30.8261C80.3029 30.9909 80.1315 31.4625 80.2697 31.8794L82.1053 37.4175C82.2435 37.8344 82.6389 38.0388 82.9884 37.8739L84.5722 37.1272C84.9217 36.9624 85.0931 36.4908 84.9549 36.0739L83.1193 30.5358C82.9811 30.1189 82.5857 29.9145 82.2362 30.0793Z" fill="#3F3D56"/>
<path d="M82.3865 33.1573C82.6055 33.1573 82.7832 32.9454 82.7832 32.6841C82.7832 32.4228 82.6055 32.2109 82.3865 32.2109C82.1674 32.2109 81.9897 32.4228 81.9897 32.6841C81.9897 32.9454 82.1674 33.1573 82.3865 33.1573Z" fill="#FF8811"/>
<path d="M81.261 37.3226C81.0552 37.0178 80.7979 36.7644 80.617 36.4397C80.4036 36.0047 80.2743 35.5184 80.2386 35.0162C80.1735 34.4684 80.1375 33.9163 80.1307 33.3631C80.1297 33.2897 80.1428 33.217 80.1691 33.1506C80.1953 33.0842 80.2339 33.0258 80.282 32.9799C80.3301 32.9341 80.3863 32.9019 80.4464 32.886C80.5065 32.8701 80.5688 32.8707 80.6286 32.8879C81.2907 33.0751 81.8873 33.5043 82.335 34.1154C82.8812 34.884 83.2314 35.8232 83.3442 36.8218C83.4006 37.3346 83.4322 37.8508 83.4388 38.368L83.4985 40.4883C83.0653 40.4883 82.4346 40.6328 82.0196 40.4883C81.4237 40.2903 81.6644 40.4151 81.7241 39.7162C81.7922 38.8451 81.7424 38.0354 81.261 37.3226Z" fill="#A0616A"/>
<path d="M82.4313 39.5895C82.193 39.6145 81.9531 39.5753 81.7292 39.4747C81.2744 39.247 81.0138 38.6828 80.7881 38.1621C80.8259 39.2995 80.777 40.4386 80.642 41.5653C80.5557 42.1593 80.4212 42.7532 80.4328 43.361C80.4512 44.1308 80.7051 44.866 81.1466 45.4279C81.2672 45.5922 81.4169 45.7227 81.5848 45.81C81.9433 45.9783 82.3517 45.8219 82.6803 45.5843C83.1576 45.2387 83.5365 44.7295 83.7675 44.1232C84.0995 43.2442 84.0829 42.2761 84.0995 41.3337C84.1161 40.4527 84.3535 39.5281 84.3402 38.6828C83.7659 38.6016 83.1301 39.546 82.4313 39.5895Z" fill="#FF6584"/>
<path d="M85.7644 22.69C86.348 23.0573 86.9912 23.2701 87.65 23.3139C88.3089 23.3576 88.9679 23.2312 89.5821 22.9434C89.3879 23.9551 89.8327 24.9648 90.0635 25.9665C90.671 28.6056 89.7315 31.4723 88.2376 33.5451C88.9299 33.6276 89.6289 33.5237 90.2831 33.241C90.9372 32.9584 91.5298 32.5041 92.0171 31.9118C91.592 33.2743 90.9595 34.5315 90.1514 35.6199C93.0247 34.5528 95.0763 31.3753 95.9975 27.9582C96.7013 25.3409 96.8275 22.4029 95.868 19.9064C94.9086 17.4099 92.7043 15.5034 90.4087 15.7291C88.7339 15.8934 87.2018 17.1684 86.3503 18.8967C85.4988 20.6251 85.3046 22.7415 85.6498 24.7212L85.7644 22.69Z" fill="#3F3D56"/>
<path opacity="0.1" d="M90.07 25.9668C90.3735 27.3951 90.2999 28.9003 89.8592 30.2768C90.4518 28.6929 90.6792 26.9468 90.2974 25.2897C90.0667 24.2879 89.6202 23.2783 89.8144 22.2666C89.2003 22.5547 88.5412 22.6812 87.8823 22.6375C87.2234 22.5937 86.5802 22.3808 85.9967 22.0132L85.9502 22.8051C86.518 23.1264 87.1352 23.3053 87.7633 23.3305C88.3915 23.3557 89.0173 23.2267 89.6019 22.9516C89.3944 23.9553 89.8393 24.965 90.07 25.9668Z" fill="black"/>
<path opacity="0.1" d="M86.0829 19.5283C85.4808 21.1608 85.3291 22.9793 85.6497 24.7213L85.7509 23.0226C85.653 21.843 85.7661 20.6519 86.0829 19.5283Z" fill="black"/>
<path opacity="0.1" d="M92.2511 31.2349C91.7883 31.7956 91.2311 32.2329 90.6162 32.5179C90.0014 32.8028 89.3428 32.929 88.684 32.888C88.5429 33.1157 88.3968 33.3354 88.2441 33.5453C88.9334 33.6271 89.6293 33.5242 90.281 33.244C90.9326 32.9638 91.5235 32.5134 92.0104 31.9258C92.0967 31.6981 92.1781 31.4685 92.2511 31.2349Z" fill="black"/>
<path opacity="0.1" d="M90.7041 34.8181C90.5381 35.0972 90.3505 35.3665 90.158 35.6258C92.8619 34.6221 94.8388 31.7474 95.8281 28.564C94.8239 31.3416 93.0561 33.7906 90.7041 34.8181Z" fill="black"/>
<path d="M117.934 8.41418V0.0991211H114.282V87.6052C114.282 88.1828 114.475 88.7367 114.817 89.1451C115.16 89.5536 115.624 89.783 116.108 89.783C116.593 89.783 117.057 89.5536 117.399 89.1451C117.742 88.7367 117.934 88.1828 117.934 87.6052V12.7697H126.898V18.9367C123.714 19.1743 121.254 20.7521 121.254 22.6686C121.254 24.4306 123.345 25.9134 126.166 26.3193C126.684 26.3931 127.205 26.4301 127.727 26.4301C131.303 26.4301 134.201 24.7434 134.201 22.6686C134.201 21.2431 132.84 20.0038 130.831 19.3663C130.087 19.1346 129.325 18.9907 128.557 18.9367V12.7697H146.816V18.9367C146.304 18.9747 145.794 19.0508 145.289 19.1644C142.879 19.7128 141.172 21.0749 141.172 22.6686C141.174 22.9752 141.236 23.2771 141.353 23.5496C142.036 25.2007 144.593 26.4301 147.646 26.4301C151.221 26.4301 154.12 24.7434 154.12 22.6686C154.12 20.7521 151.66 19.1743 148.476 18.9367V12.7697H163V8.41418H117.934ZM152.792 22.6686C152.792 24.3177 150.488 25.6561 147.646 25.6561C144.804 25.6561 142.5 24.3177 142.5 22.6686C142.5 22.5096 142.522 22.3518 142.565 22.2013C142.741 21.5401 143.289 20.9541 144.077 20.5166C145.018 20.0238 146.027 19.7464 147.053 19.6989H148.239C150.801 19.8672 152.792 21.1342 152.792 22.6686ZM130.345 20.0949C131.859 20.6195 132.873 21.5757 132.873 22.6686C132.873 24.3177 130.569 25.6561 127.727 25.6561C127.369 25.6567 127.01 25.6349 126.654 25.5907C124.33 25.3056 122.582 24.1059 122.582 22.6686C122.582 21.1342 124.574 19.8672 127.135 19.6989H128.32C129.005 19.7408 129.684 19.8723 130.345 20.0909V20.0949Z" fill="#3F3D56"/>
<path d="M63.8621 46.0039H63.2778V67.2806H63.8621V46.0039Z" fill="#575A89"/>
<path d="M65.678 46.0039H65.092V67.2806H65.678V46.0039Z" fill="#575A89"/>
<path d="M61.9848 89.1771C62.5367 89.1771 62.9841 88.6435 62.9841 87.9853C62.9841 87.3271 62.5367 86.7935 61.9848 86.7935C61.433 86.7935 60.9856 87.3271 60.9856 87.9853C60.9856 88.6435 61.433 89.1771 61.9848 89.1771Z" fill="#575A89"/>
<path d="M58.4458 66.2967C58.4458 66.2967 59.4417 65.3306 60.3165 65.6652C61.1912 65.9997 63.4702 66.3343 63.8686 68.0409C64.267 69.7475 63.8686 88.5217 63.8686 88.5217C63.8686 88.5217 61.9365 89.1156 61.407 88.8186C60.8775 88.5217 60.9389 85.6985 60.9389 85.6985L60.7846 69.0466L58.4458 66.2967Z" fill="#FF8811"/>
<path opacity="0.1" d="M58.4458 66.2967C58.4458 66.2967 59.4417 65.3306 60.3165 65.6652C61.1912 65.9997 63.4702 66.3343 63.8686 68.0409C64.267 69.7475 63.8686 88.5217 63.8686 88.5217C63.8686 88.5217 61.9365 89.1156 61.407 88.8186C60.8775 88.5217 60.9389 85.6985 60.9389 85.6985L60.7846 69.0466L58.4458 66.2967Z" fill="black"/>
<path d="M67.5154 87.5595L63.3209 88.6682L63.2778 87.7792L63.2496 70.2641C63.2487 69.4455 63.0899 68.6381 62.7853 67.9044C62.4808 67.1707 62.0387 66.5305 61.4934 66.0334C61.4934 66.0334 63.6662 65.9997 65.331 66.8946C65.6863 67.0926 66.0431 67.2727 66.4083 67.4331C66.8615 67.631 67.4756 68.0567 67.5154 68.8961C67.5669 69.989 67.7412 80.8144 67.8043 84.7561C67.8196 85.7009 67.7224 86.6434 67.5154 87.5555V87.5595Z" fill="#FF8811"/>
<path d="M63.9783 44.4243H63.0039V46.2457H63.9783V44.4243Z" fill="#535461"/>
<path opacity="0.1" d="M63.9783 44.4243H63.0039V46.2457H63.9783V44.4243Z" fill="black"/>
<path d="M65.8091 44.7134H64.8347V46.5348H65.8091V44.7134Z" fill="#535461"/>
<path d="M65.8091 44.7174H64.8348C64.6529 44.7231 64.4761 44.7899 64.3246 44.91C64.1731 45.0301 64.0531 45.1987 63.9783 45.3965C63.965 45.4321 63.9517 45.4677 63.9384 45.5073L63.7243 45.2599L63.2778 44.7451L63.0039 44.4303C63.0039 44.4303 64.8032 43.3315 65.8091 44.7174Z" fill="#535461"/>
<path d="M66.2341 90.0165C66.786 90.0165 67.2334 89.4829 67.2334 88.8246C67.2334 88.1664 66.786 87.6328 66.2341 87.6328C65.6822 87.6328 65.2349 88.1664 65.2349 88.8246C65.2349 89.4829 65.6822 90.0165 66.2341 90.0165Z" fill="#575A89"/>
<path d="M55.9145 88.389C56.4664 88.389 56.9138 87.8554 56.9138 87.1972C56.9138 86.539 56.4664 86.0054 55.9145 86.0054C55.3627 86.0054 54.9153 86.539 54.9153 87.1972C54.9153 87.8554 55.3627 88.389 55.9145 88.389Z" fill="#575A89"/>
<path d="M57.792 66.0376C57.792 66.0376 54.957 66.9305 54.8043 75.4415C54.6516 83.9526 54.6167 84.8455 54.6167 84.8455C54.6167 84.8455 54.6798 87.3004 58.8544 88.8229H61.4156L61.8123 69.2666C61.8123 69.2666 61.3442 66.2969 57.792 66.0376Z" fill="#FF8811"/>
<path opacity="0.1" d="M57.543 79.2327C57.543 79.2327 56.816 67.3323 60.7333 67.2788L61.1002 67.7064C61.1002 67.7064 57.6675 66.2236 57.543 79.2327Z" fill="black"/>
<path d="M59.3042 91.056C59.856 91.056 60.3034 90.5224 60.3034 89.8642C60.3034 89.206 59.856 88.6724 59.3042 88.6724C58.7523 88.6724 58.3049 89.206 58.3049 89.8642C58.3049 90.5224 58.7523 91.056 59.3042 91.056Z" fill="#575A89"/>
<path opacity="0.1" d="M64.8465 44.7055H64.8366C64.6547 44.7113 64.4779 44.778 64.3264 44.8981C64.1749 45.0182 64.0549 45.1868 63.9801 45.3846C63.9668 45.4202 63.9535 45.4559 63.9402 45.4955L63.7261 45.248C63.7244 45.2262 63.7244 45.2044 63.7261 45.1827C63.7463 45.0088 63.8225 44.8511 63.9386 44.7431C64.0499 44.6333 64.183 44.5595 64.3252 44.529C64.4674 44.4985 64.6138 44.5122 64.7502 44.5689C64.7984 44.5966 64.8565 44.6422 64.8465 44.7055Z" fill="black"/>
</g>
<defs>
<clipPath id="clip0">
<rect width="163" height="93" fill="white"/>
</clipPath>
</defs>
</svg>
